<svg xmlns="http://www.w3.org/2000/svg" xmlns:xlink="http://www.w3.org/1999/xlink" xmlns:s="https://github.com/nturley/netlistsvg" width="828" height="589"><style>svg {
  stroke:#000;
  fill:none;
}
text {
  fill:#000;
  stroke:none;
  font-size:10px;
  font-weight: bold;
  font-family: "Courier New", monospace;
}
line {
    stroke-linecap: round;
}
.nodelabel {
  text-anchor: middle;
}
.inputPortLabel {
  text-anchor: end;
}
.splitjoinBody {
  fill:#000;
}</style><g s:type="or" transform="translate(82.66666666666667,479.5)" s:width="30" s:height="25" id="cell_$abc$156$auto$blifparse.cc:381:parse_blif$157"><s:alias val="$or"/><s:alias val="$logic_or"/><s:alias val="$_OR_"/><path d="M0,25 L0,25 L15,25 A15 12.5 0 0 0 15,0 L0,0 A30 25 0 0 1 0,25 Z" fill="#eebaff" class="cell_$abc$156$auto$blifparse.cc:381:parse_blif$157"/><g s:x="2" s:y="5" s:pid="A"/><g s:x="2" s:y="20" s:pid="B"/><g s:x="30" s:y="12.5" s:pid="Y"/></g><g s:type="or" transform="translate(150,547)" s:width="30" s:height="25" id="cell_$abc$156$auto$blifparse.cc:381:parse_blif$158"><s:alias val="$or"/><s:alias val="$logic_or"/><s:alias val="$_OR_"/><path d="M0,25 L0,25 L15,25 A15 12.5 0 0 0 15,0 L0,0 A30 25 0 0 1 0,25 Z" fill="#eebaff" class="cell_$abc$156$auto$blifparse.cc:381:parse_blif$158"/><g s:x="2" s:y="5" s:pid="A"/><g s:x="2" s:y="20" s:pid="B"/><g s:x="30" s:y="12.5" s:pid="Y"/></g><g s:type="nand" transform="translate(219,539.5)" s:width="30" s:height="25" id="cell_$abc$156$auto$blifparse.cc:381:parse_blif$159"><s:alias val="$nand"/><s:alias val="$logic_nand"/><s:alias val="$_NAND_"/><s:alias val="$_ANDNOT_"/><path d="M0,0 L0,25 L15,25 A15 12.5 0 0 0 15,0 Z" fill="#eebaff" class="cell_$abc$156$auto$blifparse.cc:381:parse_blif$159"/><circle cx="34" cy="12.5" r="3" fill="#eebaff" class="cell_$abc$156$auto$blifparse.cc:381:parse_blif$159"/><g s:x="0" s:y="5" s:pid="A"/><g s:x="0" s:y="20" s:pid="B"/><g s:x="36" s:y="12.5" s:pid="Y"/></g><g s:type="not" transform="translate(83,183.5)" s:width="30" s:height="20" id="cell_$abc$156$auto$blifparse.cc:381:parse_blif$160"><s:alias val="$_NOT_"/><s:alias val="$not"/><s:alias val="$logic_not"/><path d="M0,0 L0,20 L20,10 Z" fill="#eebaff" class="cell_$abc$156$auto$blifparse.cc:381:parse_blif$160"/><circle cx="24" cy="10" r="3" fill="#eebaff" class="cell_$abc$156$auto$blifparse.cc:381:parse_blif$160"/><g s:x="-1" s:y="10" s:pid="A"/><g s:x="27" s:y="10" s:pid="Y"/></g><g s:type="or" transform="translate(150,487)" s:width="30" s:height="25" id="cell_$abc$156$auto$blifparse.cc:381:parse_blif$161"><s:alias val="$or"/><s:alias val="$logic_or"/><s:alias val="$_OR_"/><path d="M0,25 L0,25 L15,25 A15 12.5 0 0 0 15,0 L0,0 A30 25 0 0 1 0,25 Z" fill="#eebaff" class="cell_$abc$156$auto$blifparse.cc:381:parse_blif$161"/><g s:x="2" s:y="5" s:pid="A"/><g s:x="2" s:y="20" s:pid="B"/><g s:x="30" s:y="12.5" s:pid="Y"/></g><g s:type="nand" transform="translate(219,479.5)" s:width="30" s:height="25" id="cell_$abc$156$auto$blifparse.cc:381:parse_blif$162"><s:alias val="$nand"/><s:alias val="$logic_nand"/><s:alias val="$_NAND_"/><s:alias val="$_ANDNOT_"/><path d="M0,0 L0,25 L15,25 A15 12.5 0 0 0 15,0 Z" fill="#eebaff" class="cell_$abc$156$auto$blifparse.cc:381:parse_blif$162"/><circle cx="34" cy="12.5" r="3" fill="#eebaff" class="cell_$abc$156$auto$blifparse.cc:381:parse_blif$162"/><g s:x="0" s:y="5" s:pid="A"/><g s:x="0" s:y="20" s:pid="B"/><g s:x="36" s:y="12.5" s:pid="Y"/></g><g s:type="or" transform="translate(292,532)" s:width="30" s:height="25" id="cell_$abc$156$auto$blifparse.cc:381:parse_blif$163"><s:alias val="$or"/><s:alias val="$logic_or"/><s:alias val="$_OR_"/><path d="M0,25 L0,25 L15,25 A15 12.5 0 0 0 15,0 L0,0 A30 25 0 0 1 0,25 Z" fill="#eebaff" class="cell_$abc$156$auto$blifparse.cc:381:parse_blif$163"/><g s:x="2" s:y="5" s:pid="A"/><g s:x="2" s:y="20" s:pid="B"/><g s:x="30" s:y="12.5" s:pid="Y"/></g><g s:type="reduce_nor" transform="translate(148,404.5)" s:width="33" s:height="25" id="cell_$abc$156$auto$blifparse.cc:381:parse_blif$164"><s:alias val="$nor"/><s:alias val="$reduce_nor"/><s:alias val="$_NOR_"/><s:alias val="$_ORNOT_"/><path d="M0,25 L0,25 L15,25 A15 12.5 0 0 0 15,0 L0,0 A30 25 0 0 1 0,25 Z" fill="#eebaff" class="cell_$abc$156$auto$blifparse.cc:381:parse_blif$164"/><circle cx="34" cy="12.5" r="3" fill="#eebaff" class="cell_$abc$156$auto$blifparse.cc:381:parse_blif$164"/><g s:x="2" s:y="5" s:pid="A"/><g s:x="2" s:y="20" s:pid="B"/><g s:x="36" s:y="12.5" s:pid="Y"/></g><g s:type="or" transform="translate(221,419.5)" s:width="30" s:height="25" id="cell_$abc$156$auto$blifparse.cc:381:parse_blif$165"><s:alias val="$or"/><s:alias val="$logic_or"/><s:alias val="$_OR_"/><path d="M0,25 L0,25 L15,25 A15 12.5 0 0 0 15,0 L0,0 A30 25 0 0 1 0,25 Z" fill="#eebaff" class="cell_$abc$156$auto$blifparse.cc:381:parse_blif$165"/><g s:x="2" s:y="5" s:pid="A"/><g s:x="2" s:y="20" s:pid="B"/><g s:x="30" s:y="12.5" s:pid="Y"/></g><g s:type="nand" transform="translate(290,412)" s:width="30" s:height="25" id="cell_$abc$156$auto$blifparse.cc:381:parse_blif$166"><s:alias val="$nand"/><s:alias val="$logic_nand"/><s:alias val="$_NAND_"/><s:alias val="$_ANDNOT_"/><path d="M0,0 L0,25 L15,25 A15 12.5 0 0 0 15,0 Z" fill="#eebaff" class="cell_$abc$156$auto$blifparse.cc:381:parse_blif$166"/><circle cx="34" cy="12.5" r="3" fill="#eebaff" class="cell_$abc$156$auto$blifparse.cc:381:parse_blif$166"/><g s:x="0" s:y="5" s:pid="A"/><g s:x="0" s:y="20" s:pid="B"/><g s:x="36" s:y="12.5" s:pid="Y"/></g><g s:type="or" transform="translate(363.3333333333333,524.5)" s:width="30" s:height="25" id="cell_$abc$156$auto$blifparse.cc:381:parse_blif$167"><s:alias val="$or"/><s:alias val="$logic_or"/><s:alias val="$_OR_"/><path d="M0,25 L0,25 L15,25 A15 12.5 0 0 0 15,0 L0,0 A30 25 0 0 1 0,25 Z" fill="#eebaff" class="cell_$abc$156$auto$blifparse.cc:381:parse_blif$167"/><g s:x="2" s:y="5" s:pid="A"/><g s:x="2" s:y="20" s:pid="B"/><g s:x="30" s:y="12.5" s:pid="Y"/></g><g s:type="or" transform="translate(292,308.5)" s:width="30" s:height="25" id="cell_$abc$156$auto$blifparse.cc:381:parse_blif$168"><s:alias val="$or"/><s:alias val="$logic_or"/><s:alias val="$_OR_"/><path d="M0,25 L0,25 L15,25 A15 12.5 0 0 0 15,0 L0,0 A30 25 0 0 1 0,25 Z" fill="#eebaff" class="cell_$abc$156$auto$blifparse.cc:381:parse_blif$168"/><g s:x="2" s:y="5" s:pid="A"/><g s:x="2" s:y="20" s:pid="B"/><g s:x="30" s:y="12.5" s:pid="Y"/></g><g s:type="nand" transform="translate(361,301)" s:width="30" s:height="25" id="cell_$abc$156$auto$blifparse.cc:381:parse_blif$169"><s:alias val="$nand"/><s:alias val="$logic_nand"/><s:alias val="$_NAND_"/><s:alias val="$_ANDNOT_"/><path d="M0,0 L0,25 L15,25 A15 12.5 0 0 0 15,0 Z" fill="#eebaff" class="cell_$abc$156$auto$blifparse.cc:381:parse_blif$169"/><circle cx="34" cy="12.5" r="3" fill="#eebaff" class="cell_$abc$156$auto$blifparse.cc:381:parse_blif$169"/><g s:x="0" s:y="5" s:pid="A"/><g s:x="0" s:y="20" s:pid="B"/><g s:x="36" s:y="12.5" s:pid="Y"/></g><g s:type="or" transform="translate(439,517)" s:width="30" s:height="25" id="cell_$abc$156$auto$blifparse.cc:381:parse_blif$170"><s:alias val="$or"/><s:alias val="$logic_or"/><s:alias val="$_OR_"/><path d="M0,25 L0,25 L15,25 A15 12.5 0 0 0 15,0 L0,0 A30 25 0 0 1 0,25 Z" fill="#eebaff" class="cell_$abc$156$auto$blifparse.cc:381:parse_blif$170"/><g s:x="2" s:y="5" s:pid="A"/><g s:x="2" s:y="20" s:pid="B"/><g s:x="30" s:y="12.5" s:pid="Y"/></g><g s:type="not" transform="translate(364,85)" s:width="30" s:height="20" id="cell_$abc$156$auto$blifparse.cc:381:parse_blif$171"><s:alias val="$_NOT_"/><s:alias val="$not"/><s:alias val="$logic_not"/><path d="M0,0 L0,20 L20,10 Z" fill="#eebaff" class="cell_$abc$156$auto$blifparse.cc:381:parse_blif$171"/><circle cx="24" cy="10" r="3" fill="#eebaff" class="cell_$abc$156$auto$blifparse.cc:381:parse_blif$171"/><g s:x="-1" s:y="10" s:pid="A"/><g s:x="27" s:y="10" s:pid="Y"/></g><g s:type="reduce_nor" transform="translate(290,152.5)" s:width="33" s:height="25" id="cell_$abc$156$auto$blifparse.cc:381:parse_blif$172"><s:alias val="$nor"/><s:alias val="$reduce_nor"/><s:alias val="$_NOR_"/><s:alias val="$_ORNOT_"/><path d="M0,25 L0,25 L15,25 A15 12.5 0 0 0 15,0 L0,0 A30 25 0 0 1 0,25 Z" fill="#eebaff" class="cell_$abc$156$auto$blifparse.cc:381:parse_blif$172"/><circle cx="34" cy="12.5" r="3" fill="#eebaff" class="cell_$abc$156$auto$blifparse.cc:381:parse_blif$172"/><g s:x="2" s:y="5" s:pid="A"/><g s:x="2" s:y="20" s:pid="B"/><g s:x="36" s:y="12.5" s:pid="Y"/></g><g s:type="or" transform="translate(363.3333333333333,241)" s:width="30" s:height="25" id="cell_$abc$156$auto$blifparse.cc:381:parse_blif$173"><s:alias val="$or"/><s:alias val="$logic_or"/><s:alias val="$_OR_"/><path d="M0,25 L0,25 L15,25 A15 12.5 0 0 0 15,0 L0,0 A30 25 0 0 1 0,25 Z" fill="#eebaff" class="cell_$abc$156$auto$blifparse.cc:381:parse_blif$173"/><g s:x="2" s:y="5" s:pid="A"/><g s:x="2" s:y="20" s:pid="B"/><g s:x="30" s:y="12.5" s:pid="Y"/></g><g s:type="nand" transform="translate(437,233.5)" s:width="30" s:height="25" id="cell_$abc$156$auto$blifparse.cc:381:parse_blif$174"><s:alias val="$nand"/><s:alias val="$logic_nand"/><s:alias val="$_NAND_"/><s:alias val="$_ANDNOT_"/><path d="M0,0 L0,25 L15,25 A15 12.5 0 0 0 15,0 Z" fill="#eebaff" class="cell_$abc$156$auto$blifparse.cc:381:parse_blif$174"/><circle cx="34" cy="12.5" r="3" fill="#eebaff" class="cell_$abc$156$auto$blifparse.cc:381:parse_blif$174"/><g s:x="0" s:y="5" s:pid="A"/><g s:x="0" s:y="20" s:pid="B"/><g s:x="36" s:y="12.5" s:pid="Y"/></g><g s:type="or" transform="translate(510,509.5)" s:width="30" s:height="25" id="cell_$abc$156$auto$blifparse.cc:381:parse_blif$175"><s:alias val="$or"/><s:alias val="$logic_or"/><s:alias val="$_OR_"/><path d="M0,25 L0,25 L15,25 A15 12.5 0 0 0 15,0 L0,0 A30 25 0 0 1 0,25 Z" fill="#eebaff" class="cell_$abc$156$auto$blifparse.cc:381:parse_blif$175"/><g s:x="2" s:y="5" s:pid="A"/><g s:x="2" s:y="20" s:pid="B"/><g s:x="30" s:y="12.5" s:pid="Y"/></g><g s:type="or" transform="translate(439,173.5)" s:width="30" s:height="25" id="cell_$abc$156$auto$blifparse.cc:381:parse_blif$176"><s:alias val="$or"/><s:alias val="$logic_or"/><s:alias val="$_OR_"/><path d="M0,25 L0,25 L15,25 A15 12.5 0 0 0 15,0 L0,0 A30 25 0 0 1 0,25 Z" fill="#eebaff" class="cell_$abc$156$auto$blifparse.cc:381:parse_blif$176"/><g s:x="2" s:y="5" s:pid="A"/><g s:x="2" s:y="20" s:pid="B"/><g s:x="30" s:y="12.5" s:pid="Y"/></g><g s:type="nand" transform="translate(508,166)" s:width="30" s:height="25" id="cell_$abc$156$auto$blifparse.cc:381:parse_blif$177"><s:alias val="$nand"/><s:alias val="$logic_nand"/><s:alias val="$_NAND_"/><s:alias val="$_ANDNOT_"/><path d="M0,0 L0,25 L15,25 A15 12.5 0 0 0 15,0 Z" fill="#eebaff" class="cell_$abc$156$auto$blifparse.cc:381:parse_blif$177"/><circle cx="34" cy="12.5" r="3" fill="#eebaff" class="cell_$abc$156$auto$blifparse.cc:381:parse_blif$177"/><g s:x="0" s:y="5" s:pid="A"/><g s:x="0" s:y="20" s:pid="B"/><g s:x="36" s:y="12.5" s:pid="Y"/></g><g s:type="or" transform="translate(581,502)" s:width="30" s:height="25" id="cell_$abc$156$auto$blifparse.cc:381:parse_blif$178"><s:alias val="$or"/><s:alias val="$logic_or"/><s:alias val="$_OR_"/><path d="M0,25 L0,25 L15,25 A15 12.5 0 0 0 15,0 L0,0 A30 25 0 0 1 0,25 Z" fill="#eebaff" class="cell_$abc$156$auto$blifparse.cc:381:parse_blif$178"/><g s:x="2" s:y="5" s:pid="A"/><g s:x="2" s:y="20" s:pid="B"/><g s:x="30" s:y="12.5" s:pid="Y"/></g><g s:type="nand" transform="translate(437,54)" s:width="30" s:height="25" id="cell_$abc$156$auto$blifparse.cc:381:parse_blif$179"><s:alias val="$nand"/><s:alias val="$logic_nand"/><s:alias val="$_NAND_"/><s:alias val="$_ANDNOT_"/><path d="M0,0 L0,25 L15,25 A15 12.5 0 0 0 15,0 Z" fill="#eebaff" class="cell_$abc$156$auto$blifparse.cc:381:parse_blif$179"/><circle cx="34" cy="12.5" r="3" fill="#eebaff" class="cell_$abc$156$auto$blifparse.cc:381:parse_blif$179"/><g s:x="0" s:y="5" s:pid="A"/><g s:x="0" s:y="20" s:pid="B"/><g s:x="36" s:y="12.5" s:pid="Y"/></g><g s:type="or" transform="translate(510,106)" s:width="30" s:height="25" id="cell_$abc$156$auto$blifparse.cc:381:parse_blif$180"><s:alias val="$or"/><s:alias val="$logic_or"/><s:alias val="$_OR_"/><path d="M0,25 L0,25 L15,25 A15 12.5 0 0 0 15,0 L0,0 A30 25 0 0 1 0,25 Z" fill="#eebaff" class="cell_$abc$156$auto$blifparse.cc:381:parse_blif$180"/><g s:x="2" s:y="5" s:pid="A"/><g s:x="2" s:y="20" s:pid="B"/><g s:x="30" s:y="12.5" s:pid="Y"/></g><g s:type="nand" transform="translate(579,98.5)" s:width="30" s:height="25" id="cell_$abc$156$auto$blifparse.cc:381:parse_blif$181"><s:alias val="$nand"/><s:alias val="$logic_nand"/><s:alias val="$_NAND_"/><s:alias val="$_ANDNOT_"/><path d="M0,0 L0,25 L15,25 A15 12.5 0 0 0 15,0 Z" fill="#eebaff" class="cell_$abc$156$auto$blifparse.cc:381:parse_blif$181"/><circle cx="34" cy="12.5" r="3" fill="#eebaff" class="cell_$abc$156$auto$blifparse.cc:381:parse_blif$181"/><g s:x="0" s:y="5" s:pid="A"/><g s:x="0" s:y="20" s:pid="B"/><g s:x="36" s:y="12.5" s:pid="Y"/></g><g s:type="or" transform="translate(652,494.5)" s:width="30" s:height="25" id="cell_$abc$156$auto$blifparse.cc:381:parse_blif$182"><s:alias val="$or"/><s:alias val="$logic_or"/><s:alias val="$_OR_"/><path d="M0,25 L0,25 L15,25 A15 12.5 0 0 0 15,0 L0,0 A30 25 0 0 1 0,25 Z" fill="#eebaff" class="cell_$abc$156$auto$blifparse.cc:381:parse_blif$182"/><g s:x="2" s:y="5" s:pid="A"/><g s:x="2" s:y="20" s:pid="B"/><g s:x="30" s:y="12.5" s:pid="Y"/></g><g s:type="or" transform="translate(581,23)" s:width="30" s:height="25" id="cell_$abc$156$auto$blifparse.cc:381:parse_blif$183"><s:alias val="$or"/><s:alias val="$logic_or"/><s:alias val="$_OR_"/><path d="M0,25 L0,25 L15,25 A15 12.5 0 0 0 15,0 L0,0 A30 25 0 0 1 0,25 Z" fill="#eebaff" class="cell_$abc$156$auto$blifparse.cc:381:parse_blif$183"/><g s:x="2" s:y="5" s:pid="A"/><g s:x="2" s:y="20" s:pid="B"/><g s:x="30" s:y="12.5" s:pid="Y"/></g><g s:type="nand" transform="translate(650,15.5)" s:width="30" s:height="25" id="cell_$abc$156$auto$blifparse.cc:381:parse_blif$184"><s:alias val="$nand"/><s:alias val="$logic_nand"/><s:alias val="$_NAND_"/><s:alias val="$_ANDNOT_"/><path d="M0,0 L0,25 L15,25 A15 12.5 0 0 0 15,0 Z" fill="#eebaff" class="cell_$abc$156$auto$blifparse.cc:381:parse_blif$184"/><circle cx="34" cy="12.5" r="3" fill="#eebaff" class="cell_$abc$156$auto$blifparse.cc:381:parse_blif$184"/><g s:x="0" s:y="5" s:pid="A"/><g s:x="0" s:y="20" s:pid="B"/><g s:x="36" s:y="12.5" s:pid="Y"/></g><g s:type="or" transform="translate(721,487)" s:width="30" s:height="25" id="cell_$abc$156$auto$blifparse.cc:381:parse_blif$185"><s:alias val="$or"/><s:alias val="$logic_or"/><s:alias val="$_OR_"/><path d="M0,25 L0,25 L15,25 A15 12.5 0 0 0 15,0 L0,0 A30 25 0 0 1 0,25 Z" fill="#eebaff" class="cell_$abc$156$auto$blifparse.cc:381:parse_blif$185"/><g s:x="2" s:y="5" s:pid="A"/><g s:x="2" s:y="20" s:pid="B"/><g s:x="30" s:y="12.5" s:pid="Y"/></g><g s:type="inputExt" transform="translate(12,489.5)" s:width="30" s:height="20" id="cell_A"><text x="15" y="-4" class="nodelabel cell_A" s:attribute="ref">A</text><s:alias val="$_inputExt_"/><path d="M0,0 L0,20 L15,20 L30,10 L15,0 Z" fill="#8bcaff" class="cell_A"/><g s:x="30" s:y="10" s:pid="Y"/></g><g s:type="inputExt" transform="translate(12,414.5)" s:width="30" s:height="20" id="cell_B"><text x="15" y="-4" class="nodelabel cell_B" s:attribute="ref">B</text><s:alias val="$_inputExt_"/><path d="M0,0 L0,20 L15,20 L30,10 L15,0 Z" fill="#8bcaff" class="cell_B"/><g s:x="30" s:y="10" s:pid="Y"/></g><g s:type="inputExt" transform="translate(12,557)" s:width="30" s:height="20" id="cell_C"><text x="15" y="-4" class="nodelabel cell_C" s:attribute="ref">C</text><s:alias val="$_inputExt_"/><path d="M0,0 L0,20 L15,20 L30,10 L15,0 Z" fill="#8bcaff" class="cell_C"/><g s:x="30" s:y="10" s:pid="Y"/></g><g s:type="inputExt" transform="translate(151,349.5)" s:width="30" s:height="20" id="cell_D"><text x="15" y="-4" class="nodelabel cell_D" s:attribute="ref">D</text><s:alias val="$_inputExt_"/><path d="M0,0 L0,20 L15,20 L30,10 L15,0 Z" fill="#8bcaff" class="cell_D"/><g s:x="30" s:y="10" s:pid="Y"/></g><g s:type="outputExt" transform="translate(786,489.5)" s:width="30" s:height="20" id="cell_Y"><text x="15" y="-4" class="nodelabel cell_Y" s:attribute="ref">Y</text><s:alias val="$_outputExt_"/><path d="M30,0 L30,20 L15,20 L0,10 L15,0 Z" fill="#169300" class="cell_Y"/><g s:x="0" s:y="10" s:pid="A"/></g><line x1="42" x2="52" y1="424.5" y2="424.5" class="net_3 width_1" style="stroke-width: 1"/><line x1="52" x2="52" y1="424.5" y2="484.5" class="net_3 width_1" style="stroke-width: 1"/><circle cx="52" cy="424.5" r="2" style="fill:#000" class="net_3 width_1"/><line x1="52" x2="84.66666666666667" y1="484.5" y2="484.5" class="net_3 width_1" style="stroke-width: 1"/><line x1="42" x2="150" y1="424.5" y2="424.5" class="net_3 width_1" style="stroke-width: 1"/><line x1="42" x2="52" y1="424.5" y2="424.5" class="net_3 width_1" style="stroke-width: 1"/><line x1="52" x2="52" y1="424.5" y2="161.5" class="net_3 width_1" style="stroke-width: 1"/><line x1="52" x2="265" y1="161.5" y2="161.5" class="net_3 width_1" style="stroke-width: 1"/><line x1="265" x2="265" y1="161.5" y2="157.5" class="net_3 width_1" style="stroke-width: 1"/><circle cx="52" cy="161.5" r="2" style="fill:#000" class="net_3 width_1"/><line x1="265" x2="292" y1="157.5" y2="157.5" class="net_3 width_1" style="stroke-width: 1"/><line x1="42" x2="52" y1="424.5" y2="424.5" class="net_3 width_1" style="stroke-width: 1"/><line x1="52" x2="52" y1="424.5" y2="63" class="net_3 width_1" style="stroke-width: 1"/><line x1="52" x2="427" y1="63" y2="63" class="net_3 width_1" style="stroke-width: 1"/><line x1="427" x2="427" y1="63" y2="59" class="net_3 width_1" style="stroke-width: 1"/><line x1="427" x2="437" y1="59" y2="59" class="net_3 width_1" style="stroke-width: 1"/><line x1="42" x2="84.66666666666667" y1="499.5" y2="499.5" class="net_2 width_1" style="stroke-width: 1"/><line x1="42" x2="62" y1="499.5" y2="499.5" class="net_2 width_1" style="stroke-width: 1"/><line x1="62" x2="62" y1="499.5" y2="413.5" class="net_2 width_1" style="stroke-width: 1"/><line x1="62" x2="123" y1="413.5" y2="413.5" class="net_2 width_1" style="stroke-width: 1"/><line x1="123" x2="123" y1="413.5" y2="409.5" class="net_2 width_1" style="stroke-width: 1"/><circle cx="62" cy="499.5" r="2" style="fill:#000" class="net_2 width_1"/><circle cx="62" cy="413.5" r="2" style="fill:#000" class="net_2 width_1"/><line x1="123" x2="150" y1="409.5" y2="409.5" class="net_2 width_1" style="stroke-width: 1"/><line x1="42" x2="62" y1="499.5" y2="499.5" class="net_2 width_1" style="stroke-width: 1"/><line x1="62" x2="62" y1="499.5" y2="172.5" class="net_2 width_1" style="stroke-width: 1"/><circle cx="62" cy="172.5" r="2" style="fill:#000" class="net_2 width_1"/><line x1="62" x2="292" y1="172.5" y2="172.5" class="net_2 width_1" style="stroke-width: 1"/><line x1="42" x2="62" y1="499.5" y2="499.5" class="net_2 width_1" style="stroke-width: 1"/><line x1="62" x2="62" y1="499.5" y2="74" class="net_2 width_1" style="stroke-width: 1"/><line x1="62" x2="437" y1="74" y2="74" class="net_2 width_1" style="stroke-width: 1"/><line x1="112.66666666666667" x2="123" y1="492" y2="492" class="net_7 width_1" style="stroke-width: 1"/><line x1="123" x2="123" y1="492" y2="552" class="net_7 width_1" style="stroke-width: 1"/><circle cx="123" cy="492" r="2" style="fill:#000" class="net_7 width_1"/><line x1="123" x2="152" y1="552" y2="552" class="net_7 width_1" style="stroke-width: 1"/><line x1="112.66666666666667" x2="152" y1="492" y2="492" class="net_7 width_1" style="stroke-width: 1"/><line x1="42" x2="152" y1="567" y2="567" class="net_4 width_1" style="stroke-width: 1"/><line x1="42" x2="72" y1="567" y2="567" class="net_4 width_1" style="stroke-width: 1"/><line x1="72" x2="72" y1="567" y2="193.5" class="net_4 width_1" style="stroke-width: 1"/><circle cx="72" cy="567" r="2" style="fill:#000" class="net_4 width_1"/><circle cx="72" cy="193.5" r="2" style="fill:#000" class="net_4 width_1"/><line x1="72" x2="82" y1="193.5" y2="193.5" class="net_4 width_1" style="stroke-width: 1"/><line x1="42" x2="72" y1="567" y2="567" class="net_4 width_1" style="stroke-width: 1"/><line x1="72" x2="72" y1="567" y2="439.5" class="net_4 width_1" style="stroke-width: 1"/><circle cx="72" cy="439.5" r="2" style="fill:#000" class="net_4 width_1"/><line x1="72" x2="223" y1="439.5" y2="439.5" class="net_4 width_1" style="stroke-width: 1"/><line x1="42" x2="72" y1="567" y2="567" class="net_4 width_1" style="stroke-width: 1"/><line x1="72" x2="72" y1="567" y2="261" class="net_4 width_1" style="stroke-width: 1"/><circle cx="72" cy="261" r="2" style="fill:#000" class="net_4 width_1"/><line x1="72" x2="365.3333333333333" y1="261" y2="261" class="net_4 width_1" style="stroke-width: 1"/><line x1="42" x2="72" y1="567" y2="567" class="net_4 width_1" style="stroke-width: 1"/><line x1="72" x2="72" y1="567" y2="126" class="net_4 width_1" style="stroke-width: 1"/><line x1="72" x2="512" y1="126" y2="126" class="net_4 width_1" style="stroke-width: 1"/><line x1="181" x2="194" y1="359.5" y2="359.5" class="net_5 width_1" style="stroke-width: 1"/><line x1="194" x2="194" y1="359.5" y2="544.5" class="net_5 width_1" style="stroke-width: 1"/><circle cx="194" cy="359.5" r="2" style="fill:#000" class="net_5 width_1"/><line x1="194" x2="219" y1="544.5" y2="544.5" class="net_5 width_1" style="stroke-width: 1"/><line x1="181" x2="194" y1="359.5" y2="359.5" class="net_5 width_1" style="stroke-width: 1"/><line x1="194" x2="194" y1="359.5" y2="484.5" class="net_5 width_1" style="stroke-width: 1"/><circle cx="194" cy="484.5" r="2" style="fill:#000" class="net_5 width_1"/><line x1="194" x2="219" y1="484.5" y2="484.5" class="net_5 width_1" style="stroke-width: 1"/><line x1="181" x2="265" y1="359.5" y2="359.5" class="net_5 width_1" style="stroke-width: 1"/><line x1="265" x2="265" y1="359.5" y2="417" class="net_5 width_1" style="stroke-width: 1"/><line x1="265" x2="290" y1="417" y2="417" class="net_5 width_1" style="stroke-width: 1"/><line x1="181" x2="194" y1="359.5" y2="359.5" class="net_5 width_1" style="stroke-width: 1"/><line x1="194" x2="194" y1="359.5" y2="297.5" class="net_5 width_1" style="stroke-width: 1"/><line x1="194" x2="336" y1="297.5" y2="297.5" class="net_5 width_1" style="stroke-width: 1"/><line x1="336" x2="336" y1="297.5" y2="306" class="net_5 width_1" style="stroke-width: 1"/><circle cx="194" cy="297.5" r="2" style="fill:#000" class="net_5 width_1"/><line x1="336" x2="361" y1="306" y2="306" class="net_5 width_1" style="stroke-width: 1"/><line x1="181" x2="194" y1="359.5" y2="359.5" class="net_5 width_1" style="stroke-width: 1"/><line x1="194" x2="194" y1="359.5" y2="95" class="net_5 width_1" style="stroke-width: 1"/><line x1="194" x2="363" y1="95" y2="95" class="net_5 width_1" style="stroke-width: 1"/><line x1="180" x2="219" y1="559.5" y2="559.5" class="net_8 width_1" style="stroke-width: 1"/><line x1="110" x2="133" y1="193.5" y2="193.5" class="net_10 width_1" style="stroke-width: 1"/><line x1="133" x2="133" y1="193.5" y2="507" class="net_10 width_1" style="stroke-width: 1"/><circle cx="133" cy="193.5" r="2" style="fill:#000" class="net_10 width_1"/><line x1="133" x2="152" y1="507" y2="507" class="net_10 width_1" style="stroke-width: 1"/><line x1="110" x2="133" y1="193.5" y2="193.5" class="net_10 width_1" style="stroke-width: 1"/><line x1="133" x2="133" y1="193.5" y2="328.5" class="net_10 width_1" style="stroke-width: 1"/><circle cx="133" cy="328.5" r="2" style="fill:#000" class="net_10 width_1"/><line x1="133" x2="294" y1="328.5" y2="328.5" class="net_10 width_1" style="stroke-width: 1"/><line x1="110" x2="441" y1="193.5" y2="193.5" class="net_10 width_1" style="stroke-width: 1"/><line x1="110" x2="133" y1="193.5" y2="193.5" class="net_10 width_1" style="stroke-width: 1"/><line x1="133" x2="133" y1="193.5" y2="43" class="net_10 width_1" style="stroke-width: 1"/><line x1="133" x2="583" y1="43" y2="43" class="net_10 width_1" style="stroke-width: 1"/><line x1="180" x2="219" y1="499.5" y2="499.5" class="net_11 width_1" style="stroke-width: 1"/><line x1="255" x2="265" y1="492" y2="492" class="net_12 width_1" style="stroke-width: 1"/><line x1="265" x2="265" y1="492" y2="537" class="net_12 width_1" style="stroke-width: 1"/><line x1="265" x2="294" y1="537" y2="537" class="net_12 width_1" style="stroke-width: 1"/><line x1="255" x2="294" y1="552" y2="552" class="net_9 width_1" style="stroke-width: 1"/><line x1="184" x2="204" y1="417" y2="417" class="net_14 width_1" style="stroke-width: 1"/><line x1="204" x2="204" y1="417" y2="424.5" class="net_14 width_1" style="stroke-width: 1"/><circle cx="204" cy="417" r="2" style="fill:#000" class="net_14 width_1"/><line x1="204" x2="223" y1="424.5" y2="424.5" class="net_14 width_1" style="stroke-width: 1"/><line x1="184" x2="204" y1="417" y2="417" class="net_14 width_1" style="stroke-width: 1"/><line x1="204" x2="204" y1="417" y2="317.5" class="net_14 width_1" style="stroke-width: 1"/><line x1="204" x2="265" y1="317.5" y2="317.5" class="net_14 width_1" style="stroke-width: 1"/><line x1="265" x2="265" y1="317.5" y2="313.5" class="net_14 width_1" style="stroke-width: 1"/><line x1="265" x2="294" y1="313.5" y2="313.5" class="net_14 width_1" style="stroke-width: 1"/><line x1="251" x2="290" y1="432" y2="432" class="net_15 width_1" style="stroke-width: 1"/><line x1="326" x2="336" y1="424.5" y2="424.5" class="net_16 width_1" style="stroke-width: 1"/><line x1="336" x2="336" y1="424.5" y2="529.5" class="net_16 width_1" style="stroke-width: 1"/><line x1="336" x2="365.3333333333333" y1="529.5" y2="529.5" class="net_16 width_1" style="stroke-width: 1"/><line x1="322" x2="365.3333333333333" y1="544.5" y2="544.5" class="net_13 width_1" style="stroke-width: 1"/><line x1="322" x2="361" y1="321" y2="321" class="net_18 width_1" style="stroke-width: 1"/><line x1="397" x2="407" y1="313.5" y2="313.5" class="net_19 width_1" style="stroke-width: 1"/><line x1="407" x2="407" y1="313.5" y2="522" class="net_19 width_1" style="stroke-width: 1"/><line x1="407" x2="441" y1="522" y2="522" class="net_19 width_1" style="stroke-width: 1"/><line x1="393.3333333333333" x2="441" y1="537" y2="537" class="net_17 width_1" style="stroke-width: 1"/><line x1="326" x2="336" y1="165" y2="165" class="net_22 width_1" style="stroke-width: 1"/><line x1="336" x2="336" y1="165" y2="246" class="net_22 width_1" style="stroke-width: 1"/><circle cx="336" cy="165" r="2" style="fill:#000" class="net_22 width_1"/><line x1="336" x2="365.3333333333333" y1="246" y2="246" class="net_22 width_1" style="stroke-width: 1"/><line x1="326" x2="407" y1="165" y2="165" class="net_22 width_1" style="stroke-width: 1"/><line x1="407" x2="407" y1="165" y2="178.5" class="net_22 width_1" style="stroke-width: 1"/><line x1="407" x2="441" y1="178.5" y2="178.5" class="net_22 width_1" style="stroke-width: 1"/><line x1="391" x2="417" y1="95" y2="95" class="net_21 width_1" style="stroke-width: 1"/><line x1="417" x2="417" y1="95" y2="238.5" class="net_21 width_1" style="stroke-width: 1"/><circle cx="417" cy="95" r="2" style="fill:#000" class="net_21 width_1"/><line x1="417" x2="437" y1="238.5" y2="238.5" class="net_21 width_1" style="stroke-width: 1"/><line x1="391" x2="417" y1="95" y2="95" class="net_21 width_1" style="stroke-width: 1"/><line x1="417" x2="417" y1="95" y2="162.5" class="net_21 width_1" style="stroke-width: 1"/><line x1="417" x2="483" y1="162.5" y2="162.5" class="net_21 width_1" style="stroke-width: 1"/><line x1="483" x2="483" y1="162.5" y2="171" class="net_21 width_1" style="stroke-width: 1"/><circle cx="417" cy="162.5" r="2" style="fill:#000" class="net_21 width_1"/><line x1="483" x2="508" y1="171" y2="171" class="net_21 width_1" style="stroke-width: 1"/><line x1="391" x2="554" y1="95" y2="95" class="net_21 width_1" style="stroke-width: 1"/><line x1="554" x2="554" y1="95" y2="103.5" class="net_21 width_1" style="stroke-width: 1"/><line x1="554" x2="579" y1="103.5" y2="103.5" class="net_21 width_1" style="stroke-width: 1"/><line x1="391" x2="417" y1="95" y2="95" class="net_21 width_1" style="stroke-width: 1"/><line x1="417" x2="417" y1="95" y2="12" class="net_21 width_1" style="stroke-width: 1"/><line x1="417" x2="625" y1="12" y2="12" class="net_21 width_1" style="stroke-width: 1"/><line x1="625" x2="625" y1="12" y2="20.5" class="net_21 width_1" style="stroke-width: 1"/><line x1="625" x2="650" y1="20.5" y2="20.5" class="net_21 width_1" style="stroke-width: 1"/><line x1="393.3333333333333" x2="437" y1="253.5" y2="253.5" class="net_23 width_1" style="stroke-width: 1"/><line x1="473" x2="483" y1="246" y2="246" class="net_24 width_1" style="stroke-width: 1"/><line x1="483" x2="483" y1="246" y2="514.5" class="net_24 width_1" style="stroke-width: 1"/><line x1="483" x2="512" y1="514.5" y2="514.5" class="net_24 width_1" style="stroke-width: 1"/><line x1="469" x2="512" y1="529.5" y2="529.5" class="net_20 width_1" style="stroke-width: 1"/><line x1="469" x2="508" y1="186" y2="186" class="net_26 width_1" style="stroke-width: 1"/><line x1="544" x2="554" y1="178.5" y2="178.5" class="net_27 width_1" style="stroke-width: 1"/><line x1="554" x2="554" y1="178.5" y2="507" class="net_27 width_1" style="stroke-width: 1"/><line x1="554" x2="583" y1="507" y2="507" class="net_27 width_1" style="stroke-width: 1"/><line x1="540" x2="583" y1="522" y2="522" class="net_25 width_1" style="stroke-width: 1"/><line x1="473" x2="483" y1="66.5" y2="66.5" class="net_29 width_1" style="stroke-width: 1"/><line x1="483" x2="483" y1="66.5" y2="111" class="net_29 width_1" style="stroke-width: 1"/><circle cx="483" cy="66.5" r="2" style="fill:#000" class="net_29 width_1"/><line x1="483" x2="512" y1="111" y2="111" class="net_29 width_1" style="stroke-width: 1"/><line x1="473" x2="483" y1="66.5" y2="66.5" class="net_29 width_1" style="stroke-width: 1"/><line x1="483" x2="483" y1="66.5" y2="32" class="net_29 width_1" style="stroke-width: 1"/><line x1="483" x2="554" y1="32" y2="32" class="net_29 width_1" style="stroke-width: 1"/><line x1="554" x2="554" y1="32" y2="28" class="net_29 width_1" style="stroke-width: 1"/><line x1="554" x2="583" y1="28" y2="28" class="net_29 width_1" style="stroke-width: 1"/><line x1="540" x2="579" y1="118.5" y2="118.5" class="net_30 width_1" style="stroke-width: 1"/><line x1="615" x2="625" y1="111" y2="111" class="net_31 width_1" style="stroke-width: 1"/><line x1="625" x2="625" y1="111" y2="499.5" class="net_31 width_1" style="stroke-width: 1"/><line x1="625" x2="654" y1="499.5" y2="499.5" class="net_31 width_1" style="stroke-width: 1"/><line x1="611" x2="654" y1="514.5" y2="514.5" class="net_28 width_1" style="stroke-width: 1"/><line x1="611" x2="650" y1="35.5" y2="35.5" class="net_33 width_1" style="stroke-width: 1"/><line x1="686" x2="696" y1="28" y2="28" class="net_34 width_1" style="stroke-width: 1"/><line x1="696" x2="696" y1="28" y2="492" class="net_34 width_1" style="stroke-width: 1"/><line x1="696" x2="723" y1="492" y2="492" class="net_34 width_1" style="stroke-width: 1"/><line x1="682" x2="723" y1="507" y2="507" class="net_32 width_1" style="stroke-width: 1"/><line x1="751" x2="786" y1="499.5" y2="499.5" class="net_6 width_1" style="stroke-width: 1"/></svg>