<svg xmlns="http://www.w3.org/2000/svg" xmlns:xlink="http://www.w3.org/1999/xlink" xmlns:s="https://github.com/nturley/netlistsvg" width="331" height="376"><style>svg {
  stroke:#000;
  fill:none;
}
text {
  fill:#000;
  stroke:none;
  font-size:10px;
  font-weight: bold;
  font-family: "Courier New", monospace;
}
line {
    stroke-linecap: round;
}
.nodelabel {
  text-anchor: middle;
}
.inputPortLabel {
  text-anchor: end;
}
.splitjoinBody {
  fill:#000;
}</style><g s:type="and" transform="translate(208.33333333333334,239)" s:width="30" s:height="25" id="cell_$and$FSM_E.v:14$1"><s:alias val="$and"/><s:alias val="$logic_and"/><s:alias val="$_AND_"/><path d="M0,0 L0,25 L15,25 A15 12.5 0 0 0 15,0 Z" fill="#eebaff" class="cell_$and$FSM_E.v:14$1"/><g s:x="0" s:y="5" s:pid="A"/><g s:x="0" s:y="20" s:pid="B"/><g s:x="30" s:y="12.5" s:pid="Y"/></g><g s:type="and" transform="translate(77,12)" s:width="30" s:height="25" id="cell_$and$FSM_E.v:26$5"><s:alias val="$and"/><s:alias val="$logic_and"/><s:alias val="$_AND_"/><path d="M0,0 L0,25 L15,25 A15 12.5 0 0 0 15,0 Z" fill="#eebaff" class="cell_$and$FSM_E.v:26$5"/><g s:x="0" s:y="5" s:pid="A"/><g s:x="0" s:y="20" s:pid="B"/><g s:x="30" s:y="12.5" s:pid="Y"/></g><g s:type="and" transform="translate(142,19.5)" s:width="30" s:height="25" id="cell_$and$FSM_E.v:26$6"><s:alias val="$and"/><s:alias val="$logic_and"/><s:alias val="$_AND_"/><path d="M0,0 L0,25 L15,25 A15 12.5 0 0 0 15,0 Z" fill="#eebaff" class="cell_$and$FSM_E.v:26$6"/><g s:x="0" s:y="5" s:pid="A"/><g s:x="0" s:y="20" s:pid="B"/><g s:x="30" s:y="12.5" s:pid="Y"/></g><g s:type="or" transform="translate(208.33333333333334,299)" s:width="30" s:height="25" id="cell_$or$FSM_E.v:15$2"><s:alias val="$or"/><s:alias val="$logic_or"/><s:alias val="$_OR_"/><path d="M0,25 L0,25 L15,25 A15 12.5 0 0 0 15,0 L0,0 A30 25 0 0 1 0,25 Z" fill="#eebaff" class="cell_$or$FSM_E.v:15$2"/><g s:x="2" s:y="5" s:pid="A"/><g s:x="2" s:y="20" s:pid="B"/><g s:x="30" s:y="12.5" s:pid="Y"/></g><g s:type="dff" transform="translate(208.33333333333334,22)" s:width="30" s:height="40" id="cell_$procdff$7"><s:alias val="$dff"/><s:alias val="$_DFF_"/><s:alias val="$_DFF_P_"/><s:alias val="dff-bus"/><s:alias val="$dff-bus"/><s:alias val="$_DFF_-bus"/><s:alias val="$_DFF_P_-bus"/><rect width="30" height="40" x="0" y="0" fill="#ffef8b" class="cell_$procdff$7"/><path d="M0,35 L5,30 L0,25" class="cell_$procdff$7"/><g s:x="31" s:y="10" s:pid="Q"/><g s:x="-1" s:y="30" s:pid="CLK"/><g s:x="-1" s:y="30" s:pid="C"/><g s:x="-1" s:y="10" s:pid="D"/></g><g s:type="reduce_xor" transform="translate(207,97)" s:width="33" s:height="25" id="cell_$xor$FSM_E.v:17$3"><s:alias val="$xor"/><s:alias val="$reduce_xor"/><s:alias val="$_XOR_"/><path d="M3,0 A30 25 0 0 1 3,25 A30 25 0 0 0 33,12.5 A30 25 0 0 0 3,0" fill="#eebaff" class="cell_$xor$FSM_E.v:17$3"/><path d="M0,0 A30 25 0 0 1 0,25" class="cell_$xor$FSM_E.v:17$3"/><g s:x="2" s:y="5" s:pid="A"/><g s:x="2" s:y="20" s:pid="B"/><g s:x="33" s:y="12.5" s:pid="Y"/></g><g s:type="generic" transform="translate(289,146.5)" s:width="30" s:height="40" id="cell_ff0"><text x="15" y="-4" class="nodelabel cell_ff0" s:attribute="ref">FFJK</text><rect width="30" height="80" s:generic="body" fill="#ffae46" rx="0" class="cell_ff0"/><g transform="translate(0,10)" s:x="0" s:y="10" s:pid="in0" id="port_ff0~$1"><text x="-3" y="-4" class="inputPortLabel cell_ff0">$1</text></g><g transform="translate(0,30)" s:x="0" s:y="10" s:pid="in0" id="port_ff0~$2"><text x="-3" y="-4" class="inputPortLabel cell_ff0">$2</text></g><g transform="translate(0,50)" s:x="0" s:y="10" s:pid="in0" id="port_ff0~$3"><text x="-3" y="-4" class="inputPortLabel cell_ff0">$3</text></g><g transform="translate(0,70)" s:x="0" s:y="10" s:pid="in0" id="port_ff0~$4"><text x="-3" y="-4" class="inputPortLabel cell_ff0">$4</text></g></g><g s:type="generic" transform="translate(289,281)" s:width="30" s:height="40" id="cell_ff1"><text x="15" y="-4" class="nodelabel cell_ff1" s:attribute="ref">FFJK</text><rect width="30" height="80" s:generic="body" fill="#ffae46" rx="0" class="cell_ff1"/><g transform="translate(0,10)" s:x="0" s:y="10" s:pid="in0" id="port_ff1~$1"><text x="-3" y="-4" class="inputPortLabel cell_ff1">$1</text></g><g transform="translate(0,30)" s:x="0" s:y="10" s:pid="in0" id="port_ff1~$2"><text x="-3" y="-4" class="inputPortLabel cell_ff1">$2</text></g><g transform="translate(0,50)" s:x="0" s:y="10" s:pid="in0" id="port_ff1~$3"><text x="-3" y="-4" class="inputPortLabel cell_ff1">$3</text></g><g transform="translate(0,70)" s:x="0" s:y="10" s:pid="in0" id="port_ff1~$4"><text x="-3" y="-4" class="inputPortLabel cell_ff1">$4</text></g></g><g s:type="inputExt" transform="translate(142,187)" s:width="30" s:height="20" id="cell_clk"><text x="15" y="-4" class="nodelabel cell_clk" s:attribute="ref">clk</text><s:alias val="$_inputExt_"/><path d="M0,0 L0,20 L15,20 L30,10 L15,0 Z" fill="#8bcaff" class="cell_clk"/><g s:x="30" s:y="10" s:pid="Y"/></g><g s:type="inputExt" transform="translate(12,279)" s:width="30" s:height="20" id="cell_X"><text x="15" y="-4" class="nodelabel cell_X" s:attribute="ref">X</text><s:alias val="$_inputExt_"/><path d="M0,0 L0,20 L15,20 L30,10 L15,0 Z" fill="#8bcaff" class="cell_X"/><g s:x="30" s:y="10" s:pid="Y"/></g><g s:type="outputExt" transform="translate(289,22)" s:width="30" s:height="20" id="cell_Y"><text x="15" y="-4" class="nodelabel cell_Y" s:attribute="ref">Y</text><s:alias val="$_outputExt_"/><path d="M30,0 L30,20 L15,20 L0,10 L15,0 Z" fill="#169300" class="cell_Y"/><g s:x="0" s:y="10" s:pid="A"/></g><g s:type="constant" transform="translate(209,167)" s:width="30" s:height="20" id="cell_1"><text x="15" y="-4" class="nodelabel cell_1" s:attribute="ref">1</text><s:alias val="$_constant_"/><rect width="30" height="20" fill="#745bff" class="cell_1"/><g s:x="31" s:y="10" s:pid="Y"/></g><line x1="42" x2="117" y1="289" y2="289" class="net_3 width_1" style="stroke-width: 1"/><line x1="117" x2="117" y1="289" y2="248" class="net_3 width_1" style="stroke-width: 1"/><line x1="117" x2="182" y1="248" y2="248" class="net_3 width_1" style="stroke-width: 1"/><line x1="182" x2="182" y1="248" y2="244" class="net_3 width_1" style="stroke-width: 1"/><circle cx="117" cy="289" r="2" style="fill:#000" class="net_3 width_1"/><line x1="182" x2="208.33333333333334" y1="244" y2="244" class="net_3 width_1" style="stroke-width: 1"/><line x1="42" x2="52" y1="289" y2="289" class="net_3 width_1" style="stroke-width: 1"/><line x1="52" x2="52" y1="289" y2="17" class="net_3 width_1" style="stroke-width: 1"/><circle cx="52" cy="289" r="2" style="fill:#000" class="net_3 width_1"/><line x1="52" x2="77" y1="17" y2="17" class="net_3 width_1" style="stroke-width: 1"/><line x1="42" x2="182" y1="289" y2="289" class="net_3 width_1" style="stroke-width: 1"/><line x1="182" x2="182" y1="289" y2="304" class="net_3 width_1" style="stroke-width: 1"/><line x1="182" x2="210.33333333333334" y1="304" y2="304" class="net_3 width_1" style="stroke-width: 1"/><line x1="42" x2="52" y1="289" y2="289" class="net_3 width_1" style="stroke-width: 1"/><line x1="52" x2="52" y1="289" y2="106" class="net_3 width_1" style="stroke-width: 1"/><line x1="52" x2="192" y1="106" y2="106" class="net_3 width_1" style="stroke-width: 1"/><line x1="192" x2="192" y1="106" y2="102" class="net_3 width_1" style="stroke-width: 1"/><circle cx="52" cy="106" r="2" style="fill:#000" class="net_3 width_1"/><line x1="192" x2="209" y1="102" y2="102" class="net_3 width_1" style="stroke-width: 1"/><line x1="107" x2="127" y1="217" y2="217" class="net_5 width_1" style="stroke-width: 1"/><line x1="127" x2="127" y1="217" y2="259" class="net_5 width_1" style="stroke-width: 1"/><circle cx="127" cy="217" r="2" style="fill:#000" class="net_5 width_1"/><circle cx="127" cy="259" r="2" style="fill:#000" class="net_5 width_1"/><line x1="127" x2="208.33333333333334" y1="259" y2="259" class="net_5 width_1" style="stroke-width: 1"/><line x1="107" x2="127" y1="217" y2="217" class="net_5 width_1" style="stroke-width: 1"/><line x1="127" x2="127" y1="217" y2="39.5" class="net_5 width_1" style="stroke-width: 1"/><line x1="127" x2="142" y1="39.5" y2="39.5" class="net_5 width_1" style="stroke-width: 1"/><line x1="107" x2="127" y1="217" y2="217" class="net_5 width_1" style="stroke-width: 1"/><line x1="127" x2="127" y1="217" y2="319" class="net_5 width_1" style="stroke-width: 1"/><line x1="127" x2="210.33333333333334" y1="319" y2="319" class="net_5 width_1" style="stroke-width: 1"/><line x1="107" x2="288" y1="217" y2="217" class="net_5 width_1" style="stroke-width: 1"/><line x1="42" x2="62" y1="334" y2="334" class="net_7 width_1" style="stroke-width: 1"/><line x1="62" x2="62" y1="334" y2="32" class="net_7 width_1" style="stroke-width: 1"/><circle cx="62" cy="334" r="2" style="fill:#000" class="net_7 width_1"/><line x1="62" x2="77" y1="32" y2="32" class="net_7 width_1" style="stroke-width: 1"/><line x1="42" x2="62" y1="334" y2="334" class="net_7 width_1" style="stroke-width: 1"/><line x1="62" x2="62" y1="334" y2="117" class="net_7 width_1" style="stroke-width: 1"/><circle cx="62" cy="117" r="2" style="fill:#000" class="net_7 width_1"/><line x1="62" x2="209" y1="117" y2="117" class="net_7 width_1" style="stroke-width: 1"/><line x1="42" x2="250" y1="334" y2="334" class="net_7 width_1" style="stroke-width: 1"/><line x1="250" x2="250" y1="334" y2="351.5" class="net_7 width_1" style="stroke-width: 1"/><line x1="250" x2="288" y1="351.5" y2="351.5" class="net_7 width_1" style="stroke-width: 1"/><line x1="107" x2="142" y1="24.5" y2="24.5" class="net_8 width_1" style="stroke-width: 1"/><line x1="172" x2="182" y1="197" y2="197" class="net_2 width_1" style="stroke-width: 1"/><line x1="182" x2="182" y1="197" y2="52" class="net_2 width_1" style="stroke-width: 1"/><circle cx="182" cy="197" r="2" style="fill:#000" class="net_2 width_1"/><line x1="182" x2="207.33333333333334" y1="52" y2="52" class="net_2 width_1" style="stroke-width: 1"/><line x1="172" x2="288" y1="197" y2="197" class="net_2 width_1" style="stroke-width: 1"/><line x1="172" x2="182" y1="197" y2="197" class="net_2 width_1" style="stroke-width: 1"/><line x1="182" x2="182" y1="197" y2="228" class="net_2 width_1" style="stroke-width: 1"/><line x1="182" x2="260" y1="228" y2="228" class="net_2 width_1" style="stroke-width: 1"/><line x1="260" x2="260" y1="228" y2="331.5" class="net_2 width_1" style="stroke-width: 1"/><line x1="260" x2="288" y1="331.5" y2="331.5" class="net_2 width_1" style="stroke-width: 1"/><line x1="172" x2="207.33333333333334" y1="32" y2="32" class="net_9 width_1" style="stroke-width: 1"/><line x1="240" x2="250" y1="109.5" y2="109.5" class="net_11 width_1" style="stroke-width: 1"/><line x1="250" x2="250" y1="109.5" y2="157" class="net_11 width_1" style="stroke-width: 1"/><line x1="250" x2="289" y1="157" y2="157" class="net_11 width_1" style="stroke-width: 1"/><line x1="240" x2="288" y1="177" y2="177" class="net_12 width_1" style="stroke-width: 1"/><line x1="238.33333333333334" x2="250" y1="251.5" y2="251.5" class="net_6 width_1" style="stroke-width: 1"/><line x1="250" x2="250" y1="251.5" y2="291.5" class="net_6 width_1" style="stroke-width: 1"/><line x1="250" x2="289" y1="291.5" y2="291.5" class="net_6 width_1" style="stroke-width: 1"/><line x1="238.33333333333334" x2="288" y1="311.5" y2="311.5" class="net_10 width_1" style="stroke-width: 1"/><line x1="239.33333333333334" x2="289" y1="32" y2="32" class="net_4 width_1" style="stroke-width: 1"/></svg>