<svg xmlns="http://www.w3.org/2000/svg" xmlns:xlink="http://www.w3.org/1999/xlink" xmlns:s="https://github.com/nturley/netlistsvg" width="254" height="1469"><style>svg {
  stroke:#000;
  fill:none;
}
text {
  fill:#000;
  stroke:none;
  font-size:10px;
  font-weight: bold;
  font-family: "Courier New", monospace;
}
line {
    stroke-linecap: round;
}
.nodelabel {
  text-anchor: middle;
}
.inputPortLabel {
  text-anchor: end;
}
.splitjoinBody {
  fill:#000;
}</style><g s:type="generic" transform="translate(212,238)" s:width="30" s:height="40" id="cell__09_"><text x="15" y="-4" class="nodelabel cell__09_" s:attribute="ref">INV_X1</text><rect width="30" height="40" s:generic="body" fill="#ffae46" rx="0" class="cell__09_"/><g transform="translate(0,10)" s:x="0" s:y="10" s:pid="in0" id="port__09_~I"><text x="-3" y="-4" class="inputPortLabel cell__09_">I</text></g><g transform="translate(0,30)" s:x="0" s:y="10" s:pid="in0" id="port__09_~ZN"><text x="-3" y="-4" class="inputPortLabel cell__09_">ZN</text></g></g><g s:type="generic" transform="translate(212,1349)" s:width="30" s:height="40" id="cell__10_"><text x="15" y="-4" class="nodelabel cell__10_" s:attribute="ref">INV_X1</text><rect width="30" height="40" s:generic="body" fill="#ffae46" rx="0" class="cell__10_"/><g transform="translate(0,10)" s:x="0" s:y="10" s:pid="in0" id="port__10_~I"><text x="-3" y="-4" class="inputPortLabel cell__10_">I</text></g><g transform="translate(0,30)" s:x="0" s:y="10" s:pid="in0" id="port__10_~ZN"><text x="-3" y="-4" class="inputPortLabel cell__10_">ZN</text></g></g><g s:type="generic" transform="translate(212,749)" s:width="30" s:height="40" id="cell__11_"><text x="15" y="-4" class="nodelabel cell__11_" s:attribute="ref">INV_X1</text><rect width="30" height="40" s:generic="body" fill="#ffae46" rx="0" class="cell__11_"/><g transform="translate(0,10)" s:x="0" s:y="10" s:pid="in0" id="port__11_~I"><text x="-3" y="-4" class="inputPortLabel cell__11_">I</text></g><g transform="translate(0,30)" s:x="0" s:y="10" s:pid="in0" id="port__11_~ZN"><text x="-3" y="-4" class="inputPortLabel cell__11_">ZN</text></g></g><g s:type="generic" transform="translate(212,837)" s:width="30" s:height="40" id="cell__12_"><text x="15" y="-4" class="nodelabel cell__12_" s:attribute="ref">NOR3_X1</text><rect width="30" height="80" s:generic="body" fill="#ffae46" rx="0" class="cell__12_"/><g transform="translate(0,10)" s:x="0" s:y="10" s:pid="in0" id="port__12_~A1"><text x="-3" y="-4" class="inputPortLabel cell__12_">A1</text></g><g transform="translate(0,30)" s:x="0" s:y="10" s:pid="in0" id="port__12_~A2"><text x="-3" y="-4" class="inputPortLabel cell__12_">A2</text></g><g transform="translate(0,50)" s:x="0" s:y="10" s:pid="in0" id="port__12_~A3"><text x="-3" y="-4" class="inputPortLabel cell__12_">A3</text></g><g transform="translate(0,70)" s:x="0" s:y="10" s:pid="in0" id="port__12_~ZN"><text x="-3" y="-4" class="inputPortLabel cell__12_">ZN</text></g></g><g s:type="generic" transform="translate(212,621)" s:width="30" s:height="40" id="cell__13_"><text x="15" y="-4" class="nodelabel cell__13_" s:attribute="ref">AOI21_X1</text><rect width="30" height="80" s:generic="body" fill="#ffae46" rx="0" class="cell__13_"/><g transform="translate(0,10)" s:x="0" s:y="10" s:pid="in0" id="port__13_~A1"><text x="-3" y="-4" class="inputPortLabel cell__13_">A1</text></g><g transform="translate(0,30)" s:x="0" s:y="10" s:pid="in0" id="port__13_~A2"><text x="-3" y="-4" class="inputPortLabel cell__13_">A2</text></g><g transform="translate(0,50)" s:x="0" s:y="10" s:pid="in0" id="port__13_~B"><text x="-3" y="-4" class="inputPortLabel cell__13_">B</text></g><g transform="translate(0,70)" s:x="0" s:y="10" s:pid="in0" id="port__13_~ZN"><text x="-3" y="-4" class="inputPortLabel cell__13_">ZN</text></g></g><g s:type="generic" transform="translate(212,353)" s:width="30" s:height="40" id="cell__14_"><text x="15" y="-4" class="nodelabel cell__14_" s:attribute="ref">OAI21_X1</text><rect width="30" height="80" s:generic="body" fill="#ffae46" rx="0" class="cell__14_"/><g transform="translate(0,10)" s:x="0" s:y="10" s:pid="in0" id="port__14_~A1"><text x="-3" y="-4" class="inputPortLabel cell__14_">A1</text></g><g transform="translate(0,30)" s:x="0" s:y="10" s:pid="in0" id="port__14_~A2"><text x="-3" y="-4" class="inputPortLabel cell__14_">A2</text></g><g transform="translate(0,50)" s:x="0" s:y="10" s:pid="in0" id="port__14_~B"><text x="-3" y="-4" class="inputPortLabel cell__14_">B</text></g><g transform="translate(0,70)" s:x="0" s:y="10" s:pid="in0" id="port__14_~ZN"><text x="-3" y="-4" class="inputPortLabel cell__14_">ZN</text></g></g><g s:type="generic" transform="translate(212,22)" s:width="30" s:height="40" id="cell__15_"><text x="15" y="-4" class="nodelabel cell__15_" s:attribute="ref">INV_X1</text><rect width="30" height="40" s:generic="body" fill="#ffae46" rx="0" class="cell__15_"/><g transform="translate(0,10)" s:x="0" s:y="10" s:pid="in0" id="port__15_~I"><text x="-3" y="-4" class="inputPortLabel cell__15_">I</text></g><g transform="translate(0,30)" s:x="0" s:y="10" s:pid="in0" id="port__15_~ZN"><text x="-3" y="-4" class="inputPortLabel cell__15_">ZN</text></g></g><g s:type="generic" transform="translate(212,110)" s:width="30" s:height="40" id="cell__16_"><text x="15" y="-4" class="nodelabel cell__16_" s:attribute="ref">NOR3_X1</text><rect width="30" height="80" s:generic="body" fill="#ffae46" rx="0" class="cell__16_"/><g transform="translate(0,10)" s:x="0" s:y="10" s:pid="in0" id="port__16_~A1"><text x="-3" y="-4" class="inputPortLabel cell__16_">A1</text></g><g transform="translate(0,30)" s:x="0" s:y="10" s:pid="in0" id="port__16_~A2"><text x="-3" y="-4" class="inputPortLabel cell__16_">A2</text></g><g transform="translate(0,50)" s:x="0" s:y="10" s:pid="in0" id="port__16_~A3"><text x="-3" y="-4" class="inputPortLabel cell__16_">A3</text></g><g transform="translate(0,70)" s:x="0" s:y="10" s:pid="in0" id="port__16_~ZN"><text x="-3" y="-4" class="inputPortLabel cell__16_">ZN</text></g></g><g s:type="generic" transform="translate(212,965)" s:width="30" s:height="40" id="cell__17_"><text x="15" y="-4" class="nodelabel cell__17_" s:attribute="ref">AOI21_X1</text><rect width="30" height="80" s:generic="body" fill="#ffae46" rx="0" class="cell__17_"/><g transform="translate(0,10)" s:x="0" s:y="10" s:pid="in0" id="port__17_~A1"><text x="-3" y="-4" class="inputPortLabel cell__17_">A1</text></g><g transform="translate(0,30)" s:x="0" s:y="10" s:pid="in0" id="port__17_~A2"><text x="-3" y="-4" class="inputPortLabel cell__17_">A2</text></g><g transform="translate(0,50)" s:x="0" s:y="10" s:pid="in0" id="port__17_~B"><text x="-3" y="-4" class="inputPortLabel cell__17_">B</text></g><g transform="translate(0,70)" s:x="0" s:y="10" s:pid="in0" id="port__17_~ZN"><text x="-3" y="-4" class="inputPortLabel cell__17_">ZN</text></g></g><g s:type="generic" transform="translate(212,1093)" s:width="30" s:height="40" id="cell__18_"><text x="15" y="-4" class="nodelabel cell__18_" s:attribute="ref">NOR3_X1</text><rect width="30" height="80" s:generic="body" fill="#ffae46" rx="0" class="cell__18_"/><g transform="translate(0,10)" s:x="0" s:y="10" s:pid="in0" id="port__18_~A1"><text x="-3" y="-4" class="inputPortLabel cell__18_">A1</text></g><g transform="translate(0,30)" s:x="0" s:y="10" s:pid="in0" id="port__18_~A2"><text x="-3" y="-4" class="inputPortLabel cell__18_">A2</text></g><g transform="translate(0,50)" s:x="0" s:y="10" s:pid="in0" id="port__18_~A3"><text x="-3" y="-4" class="inputPortLabel cell__18_">A3</text></g><g transform="translate(0,70)" s:x="0" s:y="10" s:pid="in0" id="port__18_~ZN"><text x="-3" y="-4" class="inputPortLabel cell__18_">ZN</text></g></g><g s:type="generic" transform="translate(212,493)" s:width="30" s:height="40" id="cell__19_"><text x="15" y="-4" class="nodelabel cell__19_" s:attribute="ref">DFFRNQ_X1</text><rect width="30" height="80" s:generic="body" fill="#ffae46" rx="0" class="cell__19_"/><g transform="translate(0,10)" s:x="0" s:y="10" s:pid="in0" id="port__19_~CLK"><text x="-3" y="-4" class="inputPortLabel cell__19_">CLK</text></g><g transform="translate(0,30)" s:x="0" s:y="10" s:pid="in0" id="port__19_~D"><text x="-3" y="-4" class="inputPortLabel cell__19_">D</text></g><g transform="translate(0,50)" s:x="0" s:y="10" s:pid="in0" id="port__19_~Q"><text x="-3" y="-4" class="inputPortLabel cell__19_">Q</text></g><g transform="translate(0,70)" s:x="0" s:y="10" s:pid="in0" id="port__19_~RN"><text x="-3" y="-4" class="inputPortLabel cell__19_">RN</text></g></g><g s:type="generic" transform="translate(212,1221)" s:width="30" s:height="40" id="cell__20_"><text x="15" y="-4" class="nodelabel cell__20_" s:attribute="ref">DFFRNQ_X1</text><rect width="30" height="80" s:generic="body" fill="#ffae46" rx="0" class="cell__20_"/><g transform="translate(0,10)" s:x="0" s:y="10" s:pid="in0" id="port__20_~CLK"><text x="-3" y="-4" class="inputPortLabel cell__20_">CLK</text></g><g transform="translate(0,30)" s:x="0" s:y="10" s:pid="in0" id="port__20_~D"><text x="-3" y="-4" class="inputPortLabel cell__20_">D</text></g><g transform="translate(0,50)" s:x="0" s:y="10" s:pid="in0" id="port__20_~Q"><text x="-3" y="-4" class="inputPortLabel cell__20_">Q</text></g><g transform="translate(0,70)" s:x="0" s:y="10" s:pid="in0" id="port__20_~RN"><text x="-3" y="-4" class="inputPortLabel cell__20_">RN</text></g></g><g s:type="inputExt" transform="translate(12,493.5)" s:width="30" s:height="20" id="cell_CLK"><text x="15" y="-4" class="nodelabel cell_CLK" s:attribute="ref">CLK</text><s:alias val="$_inputExt_"/><path d="M0,0 L0,20 L15,20 L30,10 L15,0 Z" fill="#8bcaff" class="cell_CLK"/><g s:x="30" s:y="10" s:pid="Y"/></g><g s:type="inputExt" transform="translate(12,393.5)" s:width="30" s:height="20" id="cell_E"><text x="15" y="-4" class="nodelabel cell_E" s:attribute="ref">E</text><s:alias val="$_inputExt_"/><path d="M0,0 L0,20 L15,20 L30,10 L15,0 Z" fill="#8bcaff" class="cell_E"/><g s:x="30" s:y="10" s:pid="Y"/></g><g s:type="inputExt" transform="translate(12,328.5)" s:width="30" s:height="20" id="cell_RST"><text x="15" y="-4" class="nodelabel cell_RST" s:attribute="ref">RST</text><s:alias val="$_inputExt_"/><path d="M0,0 L0,20 L15,20 L30,10 L15,0 Z" fill="#8bcaff" class="cell_RST"/><g s:x="30" s:y="10" s:pid="Y"/></g><g s:type="outputExt" transform="translate(212,1437)" s:width="30" s:height="20" id="cell_Y"><text x="15" y="-4" class="nodelabel cell_Y" s:attribute="ref">Y</text><s:alias val="$_outputExt_"/><path d="M30,0 L30,20 L15,20 L0,10 L15,0 Z" fill="#169300" class="cell_Y"/><g s:x="0" s:y="10" s:pid="A"/></g><g s:type="constant" transform="translate(12,897.5)" s:width="30" s:height="20" id="cell_1"><text x="15" y="-4" class="nodelabel cell_1" s:attribute="ref">1</text><s:alias val="$_constant_"/><rect width="30" height="20" fill="#745bff" class="cell_1"/><g s:x="31" s:y="10" s:pid="Y"/></g><line x1="42" x2="212" y1="248.5" y2="248.5" class="net_6 width_1" style="stroke-width: 1"/><line x1="42" x2="143" y1="248.5" y2="248.5" class="net_6 width_1" style="stroke-width: 1"/><line x1="143" x2="143" y1="248.5" y2="363.5" class="net_6 width_1" style="stroke-width: 1"/><circle cx="143" cy="248.5" r="2" style="fill:#000" class="net_6 width_1"/><circle cx="143" cy="363.5" r="2" style="fill:#000" class="net_6 width_1"/><line x1="143" x2="212" y1="363.5" y2="363.5" class="net_6 width_1" style="stroke-width: 1"/><line x1="42" x2="143" y1="248.5" y2="248.5" class="net_6 width_1" style="stroke-width: 1"/><line x1="143" x2="143" y1="248.5" y2="975.5" class="net_6 width_1" style="stroke-width: 1"/><line x1="143" x2="212" y1="975.5" y2="975.5" class="net_6 width_1" style="stroke-width: 1"/><line x1="42" x2="143" y1="248.5" y2="248.5" class="net_6 width_1" style="stroke-width: 1"/><line x1="143" x2="143" y1="248.5" y2="543.5" class="net_6 width_1" style="stroke-width: 1"/><circle cx="143" cy="543.5" r="2" style="fill:#000" class="net_6 width_1"/><line x1="143" x2="211" y1="543.5" y2="543.5" class="net_6 width_1" style="stroke-width: 1"/><line x1="42" x2="133" y1="283.5" y2="283.5" class="net_7 width_1" style="stroke-width: 1"/><line x1="133" x2="133" y1="283.5" y2="268.5" class="net_7 width_1" style="stroke-width: 1"/><circle cx="133" cy="283.5" r="2" style="fill:#000" class="net_7 width_1"/><line x1="133" x2="211" y1="268.5" y2="268.5" class="net_7 width_1" style="stroke-width: 1"/><line x1="42" x2="133" y1="283.5" y2="283.5" class="net_7 width_1" style="stroke-width: 1"/><line x1="133" x2="133" y1="283.5" y2="847.5" class="net_7 width_1" style="stroke-width: 1"/><line x1="133" x2="212" y1="847.5" y2="847.5" class="net_7 width_1" style="stroke-width: 1"/><line x1="42" x2="133" y1="283.5" y2="283.5" class="net_7 width_1" style="stroke-width: 1"/><line x1="133" x2="133" y1="283.5" y2="631.5" class="net_7 width_1" style="stroke-width: 1"/><circle cx="133" cy="631.5" r="2" style="fill:#000" class="net_7 width_1"/><line x1="133" x2="212" y1="631.5" y2="631.5" class="net_7 width_1" style="stroke-width: 1"/><line x1="42" x2="73" y1="814.5" y2="814.5" class="net_8 width_1" style="stroke-width: 1"/><line x1="73" x2="73" y1="814.5" y2="1359.5" class="net_8 width_1" style="stroke-width: 1"/><circle cx="73" cy="814.5" r="2" style="fill:#000" class="net_8 width_1"/><line x1="73" x2="212" y1="1359.5" y2="1359.5" class="net_8 width_1" style="stroke-width: 1"/><line x1="42" x2="73" y1="814.5" y2="814.5" class="net_8 width_1" style="stroke-width: 1"/><line x1="73" x2="73" y1="814.5" y2="651.5" class="net_8 width_1" style="stroke-width: 1"/><circle cx="73" cy="651.5" r="2" style="fill:#000" class="net_8 width_1"/><line x1="73" x2="211" y1="651.5" y2="651.5" class="net_8 width_1" style="stroke-width: 1"/><line x1="42" x2="73" y1="814.5" y2="814.5" class="net_8 width_1" style="stroke-width: 1"/><line x1="73" x2="73" y1="814.5" y2="383.5" class="net_8 width_1" style="stroke-width: 1"/><line x1="73" x2="211" y1="383.5" y2="383.5" class="net_8 width_1" style="stroke-width: 1"/><line x1="42" x2="73" y1="814.5" y2="814.5" class="net_8 width_1" style="stroke-width: 1"/><line x1="73" x2="73" y1="814.5" y2="1271.5" class="net_8 width_1" style="stroke-width: 1"/><circle cx="73" cy="1271.5" r="2" style="fill:#000" class="net_8 width_1"/><line x1="73" x2="211" y1="1271.5" y2="1271.5" class="net_8 width_1" style="stroke-width: 1"/><line x1="42" x2="63" y1="995.5" y2="995.5" class="net_9 width_1" style="stroke-width: 1"/><line x1="63" x2="63" y1="995.5" y2="1379.5" class="net_9 width_1" style="stroke-width: 1"/><circle cx="63" cy="995.5" r="2" style="fill:#000" class="net_9 width_1"/><line x1="63" x2="211" y1="1379.5" y2="1379.5" class="net_9 width_1" style="stroke-width: 1"/><line x1="42" x2="63" y1="995.5" y2="995.5" class="net_9 width_1" style="stroke-width: 1"/><line x1="63" x2="63" y1="995.5" y2="867.5" class="net_9 width_1" style="stroke-width: 1"/><line x1="63" x2="211" y1="867.5" y2="867.5" class="net_9 width_1" style="stroke-width: 1"/><line x1="42" x2="211" y1="995.5" y2="995.5" class="net_9 width_1" style="stroke-width: 1"/><line x1="42" x2="153" y1="403.5" y2="403.5" class="net_3 width_1" style="stroke-width: 1"/><line x1="153" x2="153" y1="403.5" y2="759.5" class="net_3 width_1" style="stroke-width: 1"/><circle cx="153" cy="403.5" r="2" style="fill:#000" class="net_3 width_1"/><line x1="153" x2="212" y1="759.5" y2="759.5" class="net_3 width_1" style="stroke-width: 1"/><line x1="42" x2="153" y1="403.5" y2="403.5" class="net_3 width_1" style="stroke-width: 1"/><line x1="153" x2="153" y1="403.5" y2="671.5" class="net_3 width_1" style="stroke-width: 1"/><circle cx="153" cy="671.5" r="2" style="fill:#000" class="net_3 width_1"/><line x1="153" x2="211" y1="671.5" y2="671.5" class="net_3 width_1" style="stroke-width: 1"/><line x1="42" x2="211" y1="403.5" y2="403.5" class="net_3 width_1" style="stroke-width: 1"/><line x1="42" x2="211" y1="779.5" y2="779.5" class="net_10 width_1" style="stroke-width: 1"/><line x1="42" x2="123" y1="779.5" y2="779.5" class="net_10 width_1" style="stroke-width: 1"/><line x1="123" x2="123" y1="779.5" y2="887.5" class="net_10 width_1" style="stroke-width: 1"/><circle cx="123" cy="779.5" r="2" style="fill:#000" class="net_10 width_1"/><circle cx="123" cy="887.5" r="2" style="fill:#000" class="net_10 width_1"/><line x1="123" x2="211" y1="887.5" y2="887.5" class="net_10 width_1" style="stroke-width: 1"/><line x1="42" x2="123" y1="779.5" y2="779.5" class="net_10 width_1" style="stroke-width: 1"/><line x1="123" x2="123" y1="779.5" y2="1015.5" class="net_10 width_1" style="stroke-width: 1"/><line x1="123" x2="211" y1="1015.5" y2="1015.5" class="net_10 width_1" style="stroke-width: 1"/><line x1="43" x2="211" y1="907.5" y2="907.5" class="net_5 width_1" style="stroke-width: 1"/><line x1="43" x2="53" y1="907.5" y2="907.5" class="net_5 width_1" style="stroke-width: 1"/><line x1="53" x2="53" y1="907.5" y2="563.5" class="net_5 width_1" style="stroke-width: 1"/><circle cx="53" cy="907.5" r="2" style="fill:#000" class="net_5 width_1"/><line x1="53" x2="211" y1="563.5" y2="563.5" class="net_5 width_1" style="stroke-width: 1"/><line x1="43" x2="53" y1="907.5" y2="907.5" class="net_5 width_1" style="stroke-width: 1"/><line x1="53" x2="53" y1="907.5" y2="1291.5" class="net_5 width_1" style="stroke-width: 1"/><circle cx="53" cy="1291.5" r="2" style="fill:#000" class="net_5 width_1"/><line x1="53" x2="211" y1="1291.5" y2="1291.5" class="net_5 width_1" style="stroke-width: 1"/><line x1="43" x2="53" y1="907.5" y2="907.5" class="net_5 width_1" style="stroke-width: 1"/><line x1="53" x2="53" y1="907.5" y2="1447" class="net_5 width_1" style="stroke-width: 1"/><line x1="53" x2="212" y1="1447" y2="1447" class="net_5 width_1" style="stroke-width: 1"/><line x1="42" x2="113" y1="448.5" y2="448.5" class="net_11 width_1" style="stroke-width: 1"/><line x1="113" x2="113" y1="448.5" y2="691.5" class="net_11 width_1" style="stroke-width: 1"/><circle cx="113" cy="448.5" r="2" style="fill:#000" class="net_11 width_1"/><circle cx="113" cy="691.5" r="2" style="fill:#000" class="net_11 width_1"/><line x1="113" x2="211" y1="691.5" y2="691.5" class="net_11 width_1" style="stroke-width: 1"/><line x1="42" x2="113" y1="448.5" y2="448.5" class="net_11 width_1" style="stroke-width: 1"/><line x1="113" x2="113" y1="448.5" y2="140.5" class="net_11 width_1" style="stroke-width: 1"/><line x1="113" x2="211" y1="140.5" y2="140.5" class="net_11 width_1" style="stroke-width: 1"/><line x1="42" x2="113" y1="448.5" y2="448.5" class="net_11 width_1" style="stroke-width: 1"/><line x1="113" x2="113" y1="448.5" y2="1123.5" class="net_11 width_1" style="stroke-width: 1"/><line x1="113" x2="211" y1="1123.5" y2="1123.5" class="net_11 width_1" style="stroke-width: 1"/><line x1="42" x2="173" y1="87.5" y2="87.5" class="net_12 width_1" style="stroke-width: 1"/><line x1="173" x2="173" y1="87.5" y2="423.5" class="net_12 width_1" style="stroke-width: 1"/><circle cx="173" cy="87.5" r="2" style="fill:#000" class="net_12 width_1"/><line x1="173" x2="211" y1="423.5" y2="423.5" class="net_12 width_1" style="stroke-width: 1"/><line x1="42" x2="173" y1="87.5" y2="87.5" class="net_12 width_1" style="stroke-width: 1"/><line x1="173" x2="173" y1="87.5" y2="32.5" class="net_12 width_1" style="stroke-width: 1"/><line x1="173" x2="212" y1="32.5" y2="32.5" class="net_12 width_1" style="stroke-width: 1"/><line x1="42" x2="211" y1="52.5" y2="52.5" class="net_13 width_1" style="stroke-width: 1"/><line x1="42" x2="183" y1="52.5" y2="52.5" class="net_13 width_1" style="stroke-width: 1"/><line x1="183" x2="183" y1="52.5" y2="160.5" class="net_13 width_1" style="stroke-width: 1"/><circle cx="183" cy="52.5" r="2" style="fill:#000" class="net_13 width_1"/><line x1="183" x2="211" y1="160.5" y2="160.5" class="net_13 width_1" style="stroke-width: 1"/><line x1="42" x2="103" y1="338.5" y2="338.5" class="net_4 width_1" style="stroke-width: 1"/><line x1="103" x2="103" y1="338.5" y2="120.5" class="net_4 width_1" style="stroke-width: 1"/><circle cx="103" cy="338.5" r="2" style="fill:#000" class="net_4 width_1"/><line x1="103" x2="212" y1="120.5" y2="120.5" class="net_4 width_1" style="stroke-width: 1"/><line x1="42" x2="103" y1="338.5" y2="338.5" class="net_4 width_1" style="stroke-width: 1"/><line x1="103" x2="103" y1="338.5" y2="1103.5" class="net_4 width_1" style="stroke-width: 1"/><line x1="103" x2="212" y1="1103.5" y2="1103.5" class="net_4 width_1" style="stroke-width: 1"/><line x1="42" x2="211" y1="180.5" y2="180.5" class="net_14 width_1" style="stroke-width: 1"/><line x1="42" x2="163" y1="180.5" y2="180.5" class="net_14 width_1" style="stroke-width: 1"/><line x1="163" x2="163" y1="180.5" y2="523.5" class="net_14 width_1" style="stroke-width: 1"/><circle cx="163" cy="180.5" r="2" style="fill:#000" class="net_14 width_1"/><line x1="163" x2="211" y1="523.5" y2="523.5" class="net_14 width_1" style="stroke-width: 1"/><line x1="42" x2="123" y1="1143.5" y2="1143.5" class="net_15 width_1" style="stroke-width: 1"/><line x1="123" x2="123" y1="1143.5" y2="1035.5" class="net_15 width_1" style="stroke-width: 1"/><circle cx="123" cy="1143.5" r="2" style="fill:#000" class="net_15 width_1"/><line x1="123" x2="211" y1="1035.5" y2="1035.5" class="net_15 width_1" style="stroke-width: 1"/><line x1="42" x2="211" y1="1143.5" y2="1143.5" class="net_15 width_1" style="stroke-width: 1"/><line x1="42" x2="83" y1="1178.5" y2="1178.5" class="net_16 width_1" style="stroke-width: 1"/><line x1="83" x2="83" y1="1178.5" y2="1163.5" class="net_16 width_1" style="stroke-width: 1"/><circle cx="83" cy="1178.5" r="2" style="fill:#000" class="net_16 width_1"/><line x1="83" x2="211" y1="1163.5" y2="1163.5" class="net_16 width_1" style="stroke-width: 1"/><line x1="42" x2="83" y1="1178.5" y2="1178.5" class="net_16 width_1" style="stroke-width: 1"/><line x1="83" x2="83" y1="1178.5" y2="1251.5" class="net_16 width_1" style="stroke-width: 1"/><line x1="83" x2="211" y1="1251.5" y2="1251.5" class="net_16 width_1" style="stroke-width: 1"/><line x1="42" x2="212" y1="503.5" y2="503.5" class="net_2 width_1" style="stroke-width: 1"/><line x1="42" x2="93" y1="503.5" y2="503.5" class="net_2 width_1" style="stroke-width: 1"/><line x1="93" x2="93" y1="503.5" y2="1231.5" class="net_2 width_1" style="stroke-width: 1"/><circle cx="93" cy="503.5" r="2" style="fill:#000" class="net_2 width_1"/><line x1="93" x2="212" y1="1231.5" y2="1231.5" class="net_2 width_1" style="stroke-width: 1"/></svg>