<svg xmlns="http://www.w3.org/2000/svg" xmlns:xlink="http://www.w3.org/1999/xlink" xmlns:s="https://github.com/nturley/netlistsvg" width="1008" height="619"><style>svg {
  stroke:#000;
  fill:none;
}
text {
  fill:#000;
  stroke:none;
  font-size:10px;
  font-weight: bold;
  font-family: "Courier New", monospace;
}
line {
    stroke-linecap: round;
}
.nodelabel {
  text-anchor: middle;
}
.inputPortLabel {
  text-anchor: end;
}
.splitjoinBody {
  fill:#000;
}</style><g s:type="generic" transform="translate(103,499.5)" s:width="30" s:height="40" id="cell_$auto$ff.cc:262:slice$37"><text x="15" y="-4" class="nodelabel cell_$auto$ff.cc:262:slice$37" s:attribute="ref">$sdff-bus</text><rect width="30" height="60" s:generic="body" fill="#ffae46" rx="0" class="cell_$auto$ff.cc:262:slice$37"/><g transform="translate(0,10)" s:x="0" s:y="10" s:pid="in0" id="port_$auto$ff.cc:262:slice$37~CLK"><text x="-3" y="-4" class="inputPortLabel cell_$auto$ff.cc:262:slice$37">CLK</text></g><g transform="translate(0,30)" s:x="0" s:y="10" s:pid="in0" id="port_$auto$ff.cc:262:slice$37~D"><text x="-3" y="-4" class="inputPortLabel cell_$auto$ff.cc:262:slice$37">D</text></g><g transform="translate(0,50)" s:x="0" s:y="10" s:pid="in0" id="port_$auto$ff.cc:262:slice$37~SRST"><text x="-3" y="-4" class="inputPortLabel cell_$auto$ff.cc:262:slice$37">SRST</text></g><g transform="translate(30,10)" s:x="30" s:y="10" s:pid="out0" id="port_$auto$ff.cc:262:slice$37~Q"><text x="5" y="-4" style="fill:#000; stroke:none" class="cell_$auto$ff.cc:262:slice$37">Q</text></g></g><g s:type="generic" transform="translate(536,486)" s:width="30" s:height="40" id="cell_$auto$opt_reduce.cc:128:opt_pmux$35"><text x="15" y="-4" class="nodelabel cell_$auto$opt_reduce.cc:128:opt_pmux$35" s:attribute="ref">$reduce_or</text><rect width="30" height="20" s:generic="body" fill="#ffae46" rx="0" class="cell_$auto$opt_reduce.cc:128:opt_pmux$35"/><g transform="translate(0,10)" s:x="0" s:y="10" s:pid="in0" id="port_$auto$opt_reduce.cc:128:opt_pmux$35~A"><text x="-3" y="-4" class="inputPortLabel cell_$auto$opt_reduce.cc:128:opt_pmux$35">A</text></g><g transform="translate(30,10)" s:x="30" s:y="10" s:pid="out0" id="port_$auto$opt_reduce.cc:128:opt_pmux$35~Y"><text x="5" y="-4" style="fill:#000; stroke:none" class="cell_$auto$opt_reduce.cc:128:opt_pmux$35">Y</text></g></g><g s:type="mux" transform="translate(901,348)" s:width="20" s:height="40" id="cell_$procmux$10"><s:alias val="$pmux"/><s:alias val="$mux"/><s:alias val="$_MUX_"/><path d="M0,0 L20,10 L20,30 L0,40 Z" fill="#ffffff" class="cell_$procmux$10"/><text x="5" y="32" class="nodelabel cell_$procmux$10" s:attribute="">1</text><text x="5" y="13" class="nodelabel cell_$procmux$10" s:attribute="">0</text><g s:x="0" s:y="10" s:pid="A"/><g s:x="0" s:y="30" s:pid="B"/><g s:x="10" s:y="35" s:pid="S"/><g s:x="20" s:y="20" s:pid="Y"/></g><g s:type="mux-bus" transform="translate(957,193)" s:width="24" s:height="40" id="cell_$procmux$17"><s:alias val="$pmux-bus"/><s:alias val="$mux-bus"/><s:alias val="$_MUX_-bus"/><path d="M8,2 L8,0 L24,8 L24,32 L8,40 L8,38" fill="#ffffff" class="cell_$procmux$17"/><path d="M4,2 L4,0 L22,9 L22,31 L4,40 L4,38" fill="#ffffff" class="cell_$procmux$17"/><path d="M0,0 L20,10 L20,30 L0,40 Z" fill="#ffffff" class="cell_$procmux$17"/><text x="5" y="32" class="nodelabel cell_$procmux$17" s:attribute="">1</text><text x="5" y="13" class="nodelabel cell_$procmux$17" s:attribute="">0</text><g s:x="-1" s:y="10" s:pid="A"/><g s:x="-1" s:y="30" s:pid="B"/><g s:x="12" s:y="38" s:pid="S"/><g s:x="24.5" s:y="20" s:pid="Y"/></g><g s:type="eq" transform="translate(595.3333333333334,416)" s:width="25" s:height="25" id="cell_$procmux$18_CMP0"><s:alias val="$eq"/><circle r="12.5" cx="12.5" cy="12.5" fill="#ffc9c3" class="cell_$procmux$18_CMP0"/><line x1="7.5" x2="17.5" y1="10" y2="10" class="cell_$procmux$18_CMP0"/><line x1="7.5" x2="17.5" y1="15" y2="15" class="cell_$procmux$18_CMP0"/><g s:x="2" s:y="5" s:pid="A"/><g s:x="2" s:y="20" s:pid="B"/><g s:x="25" s:y="12.5" s:pid="Y"/></g><g s:type="mux-bus" transform="translate(595.6666666666666,57)" s:width="24" s:height="40" id="cell_$procmux$20"><s:alias val="$pmux-bus"/><s:alias val="$mux-bus"/><s:alias val="$_MUX_-bus"/><path d="M8,2 L8,0 L24,8 L24,32 L8,40 L8,38" fill="#ffffff" class="cell_$procmux$20"/><path d="M4,2 L4,0 L22,9 L22,31 L4,40 L4,38" fill="#ffffff" class="cell_$procmux$20"/><path d="M0,0 L20,10 L20,30 L0,40 Z" fill="#ffffff" class="cell_$procmux$20"/><text x="5" y="32" class="nodelabel cell_$procmux$20" s:attribute="">1</text><text x="5" y="13" class="nodelabel cell_$procmux$20" s:attribute="">0</text><g s:x="-1" s:y="10" s:pid="A"/><g s:x="-1" s:y="30" s:pid="B"/><g s:x="12" s:y="38" s:pid="S"/><g s:x="24.5" s:y="20" s:pid="Y"/></g><g s:type="eq" transform="translate(328.3333333333333,450)" s:width="25" s:height="25" id="cell_$procmux$22_CMP0"><s:alias val="$eq"/><circle r="12.5" cx="12.5" cy="12.5" fill="#ffc9c3" class="cell_$procmux$22_CMP0"/><line x1="7.5" x2="17.5" y1="10" y2="10" class="cell_$procmux$22_CMP0"/><line x1="7.5" x2="17.5" y1="15" y2="15" class="cell_$procmux$22_CMP0"/><g s:x="2" s:y="5" s:pid="A"/><g s:x="2" s:y="20" s:pid="B"/><g s:x="25" s:y="12.5" s:pid="Y"/></g><g s:type="mux-bus" transform="translate(595.6666666666666,117)" s:width="24" s:height="40" id="cell_$procmux$24"><s:alias val="$pmux-bus"/><s:alias val="$mux-bus"/><s:alias val="$_MUX_-bus"/><path d="M8,2 L8,0 L24,8 L24,32 L8,40 L8,38" fill="#ffffff" class="cell_$procmux$24"/><path d="M4,2 L4,0 L22,9 L22,31 L4,40 L4,38" fill="#ffffff" class="cell_$procmux$24"/><path d="M0,0 L20,10 L20,30 L0,40 Z" fill="#ffffff" class="cell_$procmux$24"/><text x="5" y="32" class="nodelabel cell_$procmux$24" s:attribute="">1</text><text x="5" y="13" class="nodelabel cell_$procmux$24" s:attribute="">0</text><g s:x="-1" s:y="10" s:pid="A"/><g s:x="-1" s:y="30" s:pid="B"/><g s:x="12" s:y="38" s:pid="S"/><g s:x="24.5" s:y="20" s:pid="Y"/></g><g s:type="eq" transform="translate(328.3333333333333,510)" s:width="25" s:height="25" id="cell_$procmux$26_CMP0"><s:alias val="$eq"/><circle r="12.5" cx="12.5" cy="12.5" fill="#ffc9c3" class="cell_$procmux$26_CMP0"/><line x1="7.5" x2="17.5" y1="10" y2="10" class="cell_$procmux$26_CMP0"/><line x1="7.5" x2="17.5" y1="15" y2="15" class="cell_$procmux$26_CMP0"/><g s:x="2" s:y="5" s:pid="A"/><g s:x="2" s:y="20" s:pid="B"/><g s:x="25" s:y="12.5" s:pid="Y"/></g><g s:type="mux-bus" transform="translate(595.6666666666666,233)" s:width="24" s:height="40" id="cell_$procmux$28"><s:alias val="$pmux-bus"/><s:alias val="$mux-bus"/><s:alias val="$_MUX_-bus"/><path d="M8,2 L8,0 L24,8 L24,32 L8,40 L8,38" fill="#ffffff" class="cell_$procmux$28"/><path d="M4,2 L4,0 L22,9 L22,31 L4,40 L4,38" fill="#ffffff" class="cell_$procmux$28"/><path d="M0,0 L20,10 L20,30 L0,40 Z" fill="#ffffff" class="cell_$procmux$28"/><text x="5" y="32" class="nodelabel cell_$procmux$28" s:attribute="">1</text><text x="5" y="13" class="nodelabel cell_$procmux$28" s:attribute="">0</text><g s:x="-1" s:y="10" s:pid="A"/><g s:x="-1" s:y="30" s:pid="B"/><g s:x="12" s:y="38" s:pid="S"/><g s:x="24.5" s:y="20" s:pid="Y"/></g><g s:type="not" transform="translate(327,570)" s:width="30" s:height="20" id="cell_$procmux$30_CMP0"><s:alias val="$_NOT_"/><s:alias val="$not"/><s:alias val="$logic_not"/><path d="M0,0 L0,20 L20,10 Z" fill="#eebaff" class="cell_$procmux$30_CMP0"/><circle cx="24" cy="10" r="3" fill="#eebaff" class="cell_$procmux$30_CMP0"/><g s:x="-1" s:y="10" s:pid="A"/><g s:x="27" s:y="10" s:pid="Y"/></g><g s:type="mux" transform="translate(597,293)" s:width="20" s:height="40" id="cell_$procmux$8"><s:alias val="$pmux"/><s:alias val="$mux"/><s:alias val="$_MUX_"/><path d="M0,0 L20,10 L20,30 L0,40 Z" fill="#ffffff" class="cell_$procmux$8"/><text x="5" y="32" class="nodelabel cell_$procmux$8" s:attribute="">1</text><text x="5" y="13" class="nodelabel cell_$procmux$8" s:attribute="">0</text><g s:x="0" s:y="10" s:pid="A"/><g s:x="0" s:y="30" s:pid="B"/><g s:x="10" s:y="35" s:pid="S"/><g s:x="20" s:y="20" s:pid="Y"/></g><g s:type="inputExt" transform="translate(12,475)" s:width="30" s:height="20" id="cell_CLK"><text x="15" y="-4" class="nodelabel cell_CLK" s:attribute="ref">CLK</text><s:alias val="$_inputExt_"/><path d="M0,0 L0,20 L15,20 L30,10 L15,0 Z" fill="#8bcaff" class="cell_CLK"/><g s:x="30" s:y="10" s:pid="Y"/></g><g s:type="inputExt" transform="translate(458,213)" s:width="30" s:height="20" id="cell_E"><text x="15" y="-4" class="nodelabel cell_E" s:attribute="ref">E</text><s:alias val="$_inputExt_"/><path d="M0,0 L0,20 L15,20 L30,10 L15,0 Z" fill="#8bcaff" class="cell_E"/><g s:x="30" s:y="10" s:pid="Y"/></g><g s:type="inputExt" transform="translate(12,540)" s:width="30" s:height="20" id="cell_RST"><text x="15" y="-4" class="nodelabel cell_RST" s:attribute="ref">RST</text><s:alias val="$_inputExt_"/><path d="M0,0 L0,20 L15,20 L30,10 L15,0 Z" fill="#8bcaff" class="cell_RST"/><g s:x="30" s:y="10" s:pid="Y"/></g><g s:type="outputExt" transform="translate(956,571)" s:width="30" s:height="20" id="cell_Y"><text x="15" y="-4" class="nodelabel cell_Y" s:attribute="ref">Y</text><s:alias val="$_outputExt_"/><path d="M30,0 L30,20 L15,20 L0,10 L15,0 Z" fill="#169300" class="cell_Y"/><g s:x="0" s:y="10" s:pid="A"/></g><g s:type="constant" transform="translate(835,319)" s:width="30" s:height="20" id="cell_x"><text x="15" y="-4" class="nodelabel cell_x" s:attribute="ref">x</text><s:alias val="$_constant_"/><rect width="30" height="20" fill="#745bff" class="cell_x"/><g s:x="31" s:y="10" s:pid="Y"/></g><g s:type="constant" transform="translate(458,378)" s:width="30" s:height="20" id="cell_0"><text x="15" y="-4" class="nodelabel cell_0" s:attribute="ref">0</text><s:alias val="$_constant_"/><rect width="30" height="20" fill="#745bff" class="cell_0"/><g s:x="31" s:y="10" s:pid="Y"/></g><g s:type="constant" transform="translate(835,127.5)" s:width="30" s:height="20" id="cell_xx"><text x="15" y="-4" class="nodelabel cell_xx" s:attribute="ref">xx</text><s:alias val="$_constant_"/><rect width="30" height="20" fill="#745bff" class="cell_xx"/><g s:x="31" s:y="10" s:pid="Y"/></g><g s:type="constant" transform="translate(392,116)" s:width="30" s:height="20" id="cell_00"><text x="15" y="-4" class="nodelabel cell_00" s:attribute="ref">00</text><s:alias val="$_constant_"/><rect width="30" height="20" fill="#745bff" class="cell_00"/><g s:x="31" s:y="10" s:pid="Y"/></g><g s:type="constant" transform="translate(392,232)" s:width="30" s:height="20" id="cell_11"><text x="15" y="-4" class="nodelabel cell_11" s:attribute="ref">11</text><s:alias val="$_constant_"/><rect width="30" height="20" fill="#745bff" class="cell_11"/><g s:x="31" s:y="10" s:pid="Y"/></g><g s:type="constant" transform="translate(103,137)" s:width="30" s:height="20" id="cell_10"><text x="15" y="-4" class="nodelabel cell_10" s:attribute="ref">10</text><s:alias val="$_constant_"/><rect width="30" height="20" fill="#745bff" class="cell_10"/><g s:x="31" s:y="10" s:pid="Y"/></g><g s:type="constant" transform="translate(103,253)" s:width="30" s:height="20" id="cell_01"><text x="15" y="-4" class="nodelabel cell_01" s:attribute="ref">01</text><s:alias val="$_constant_"/><rect width="30" height="20" fill="#745bff" class="cell_01"/><g s:x="31" s:y="10" s:pid="Y"/></g><g s:type="constant" transform="translate(458,313)" s:width="30" s:height="20" id="cell_1"><text x="15" y="-4" class="nodelabel cell_1" s:attribute="ref">1</text><s:alias val="$_constant_"/><rect width="30" height="20" fill="#745bff" class="cell_1"/><g s:x="31" s:y="10" s:pid="Y"/></g><g s:type="join" transform="translate(402.5,529.5)" s:width="5" s:height="40" id="cell_$join$,10,11,12,"><rect width="5" height="60" class="splitjoinBody" s:generic="body"/><s:alias val="$_join_"/><g s:x="5" s:y="20" s:pid="out"/><g transform="translate(-1,10)" s:x="-1" s:y="10" s:pid="in0"><text x="-3" y="-4" class="inputPortLabel">0</text></g><g transform="translate(-1,30)" s:x="-1" s:y="10" s:pid="in0"><text x="-3" y="-4" class="inputPortLabel">1</text></g><g transform="translate(-1,50)" s:x="-1" s:y="10" s:pid="in0"><text x="-3" y="-4" class="inputPortLabel">2</text></g></g><g s:type="join" transform="translate(789,357.5)" s:width="5" s:height="40" id="cell_$join$,14,23,"><rect width="5" height="40" class="splitjoinBody" s:generic="body"/><s:alias val="$_join_"/><g s:x="5" s:y="20" s:pid="out"/><g transform="translate(-1,10)" s:x="-1" s:y="10" s:pid="in0"><text x="-3" y="-4" class="inputPortLabel">0</text></g><g transform="translate(-1,30)" s:x="-1" s:y="10" s:pid="in0"><text x="-3" y="-4" class="inputPortLabel">1</text></g></g><g s:type="join" transform="translate(789,466)" s:width="5" s:height="40" id="cell_$join$,15,13,"><rect width="5" height="40" class="splitjoinBody" s:generic="body"/><s:alias val="$_join_"/><g s:x="5" s:y="20" s:pid="out"/><g transform="translate(-1,10)" s:x="-1" s:y="10" s:pid="in0"><text x="-3" y="-4" class="inputPortLabel">0</text></g><g transform="translate(-1,30)" s:x="-1" s:y="10" s:pid="in0"><text x="-3" y="-4" class="inputPortLabel">1</text></g></g><g s:type="join" transform="translate(855,182.5)" s:width="5" s:height="40" id="cell_$join$,26,27,16,17,18,19,20,21,"><rect width="5" height="80" class="splitjoinBody" s:generic="body"/><s:alias val="$_join_"/><g s:x="5" s:y="20" s:pid="out"/><g transform="translate(-1,10)" s:x="-1" s:y="10" s:pid="in0"><text x="-3" y="-4" class="inputPortLabel">0:1</text></g><g transform="translate(-1,30)" s:x="-1" s:y="10" s:pid="in0"><text x="-3" y="-4" class="inputPortLabel">2:3</text></g><g transform="translate(-1,50)" s:x="-1" s:y="10" s:pid="in0"><text x="-3" y="-4" class="inputPortLabel">4:5</text></g><g transform="translate(-1,70)" s:x="-1" s:y="10" s:pid="in0"><text x="-3" y="-4" class="inputPortLabel">6:7</text></g></g><g s:type="join" transform="translate(850.3333333333334,529.5)" s:width="5" s:height="40" id="cell_$join$,15,10,11,12,"><rect width="5" height="40" class="splitjoinBody" s:generic="body"/><s:alias val="$_join_"/><g s:x="5" s:y="20" s:pid="out"/><g transform="translate(-1,10)" s:x="-1" s:y="10" s:pid="in0"><text x="-3" y="-4" class="inputPortLabel">0</text></g><g transform="translate(-1,30)" s:x="-1" s:y="10" s:pid="in0"><text x="-3" y="-4" class="inputPortLabel">1:3</text></g></g><line x1="42" x2="52" y1="485" y2="485" class="net_2 width_1" style="stroke-width: 1"/><line x1="52" x2="52" y1="485" y2="510" class="net_2 width_1" style="stroke-width: 1"/><line x1="52" x2="103" y1="510" y2="510" class="net_2 width_1" style="stroke-width: 1"/><line x1="981.5" x2="996" y1="213" y2="213" class="net_6,7 width_2" style="stroke-width: 2"/><line x1="996" x2="996" y1="213" y2="601" class="net_6,7 width_2" style="stroke-width: 2"/><line x1="996" x2="52" y1="601" y2="601" class="net_6,7 width_2" style="stroke-width: 2"/><line x1="52" x2="52" y1="601" y2="530" class="net_6,7 width_2" style="stroke-width: 2"/><line x1="52" x2="102" y1="530" y2="530" class="net_6,7 width_2" style="stroke-width: 2"/><line x1="42" x2="102" y1="550" y2="550" class="net_4 width_1" style="stroke-width: 1"/><line x1="408.5" x2="433" y1="560" y2="560" class="net_10,11,12 width_3" style="stroke-width: 2"/><line x1="433" x2="433" y1="560" y2="496.5" class="net_10,11,12 width_3" style="stroke-width: 2"/><circle cx="433" cy="560" r="3" style="fill:#000" class="net_10,11,12 width_3"/><line x1="433" x2="536" y1="496.5" y2="496.5" class="net_10,11,12 width_3" style="stroke-width: 2"/><line x1="408.5" x2="849.3333333333334" y1="560" y2="560" class="net_10,11,12 width_3" style="stroke-width: 2"/><line x1="866" x2="876" y1="329" y2="329" class="net_22 width_1" style="stroke-width: 1"/><line x1="876" x2="876" y1="329" y2="358" class="net_22 width_1" style="stroke-width: 1"/><line x1="876" x2="901" y1="358" y2="358" class="net_22 width_1" style="stroke-width: 1"/><line x1="795" x2="901" y1="378" y2="378" class="net_14,23 width_2" style="stroke-width: 2"/><line x1="795" x2="911" y1="486.5" y2="486.5" class="net_15,13 width_2" style="stroke-width: 2"/><line x1="911" x2="911" y1="486.5" y2="383" class="net_15,13 width_2" style="stroke-width: 2"/><line x1="866" x2="931" y1="137.5" y2="137.5" class="net_24,25 width_2" style="stroke-width: 2"/><line x1="931" x2="931" y1="137.5" y2="203" class="net_24,25 width_2" style="stroke-width: 2"/><line x1="931" x2="956" y1="203" y2="203" class="net_24,25 width_2" style="stroke-width: 2"/><line x1="861" x2="956" y1="223" y2="223" class="net_26,27,16,17,18,19,20,21 width_8" style="stroke-width: 2"/><line x1="856.3333333333334" x2="969" y1="550" y2="550" class="net_15,10,11,12 width_4" style="stroke-width: 2"/><line x1="969" x2="969" y1="550" y2="231" class="net_15,10,11,12 width_4" style="stroke-width: 2"/><line x1="134" x2="277" y1="510" y2="510" class="net_8,9 width_2" style="stroke-width: 2"/><line x1="277" x2="277" y1="510" y2="409" class="net_8,9 width_2" style="stroke-width: 2"/><line x1="277" x2="499" y1="409" y2="409" class="net_8,9 width_2" style="stroke-width: 2"/><line x1="499" x2="499" y1="409" y2="421" class="net_8,9 width_2" style="stroke-width: 2"/><circle cx="277" cy="510" r="3" style="fill:#000" class="net_8,9 width_2"/><line x1="499" x2="597.3333333333334" y1="421" y2="421" class="net_8,9 width_2" style="stroke-width: 2"/><line x1="134" x2="277" y1="510" y2="510" class="net_8,9 width_2" style="stroke-width: 2"/><line x1="277" x2="277" y1="510" y2="450" class="net_8,9 width_2" style="stroke-width: 2"/><line x1="277" x2="301" y1="450" y2="450" class="net_8,9 width_2" style="stroke-width: 2"/><line x1="301" x2="301" y1="450" y2="455" class="net_8,9 width_2" style="stroke-width: 2"/><circle cx="277" cy="450" r="3" style="fill:#000" class="net_8,9 width_2"/><line x1="301" x2="330.3333333333333" y1="455" y2="455" class="net_8,9 width_2" style="stroke-width: 2"/><line x1="134" x2="301" y1="510" y2="510" class="net_8,9 width_2" style="stroke-width: 2"/><line x1="301" x2="301" y1="510" y2="515" class="net_8,9 width_2" style="stroke-width: 2"/><line x1="301" x2="330.3333333333333" y1="515" y2="515" class="net_8,9 width_2" style="stroke-width: 2"/><line x1="134" x2="277" y1="510" y2="510" class="net_8,9 width_2" style="stroke-width: 2"/><line x1="277" x2="277" y1="510" y2="580" class="net_8,9 width_2" style="stroke-width: 2"/><line x1="277" x2="326" y1="580" y2="580" class="net_8,9 width_2" style="stroke-width: 2"/><line x1="423" x2="433" y1="242" y2="242" class="net_28,29 width_2" style="stroke-width: 2"/><line x1="433" x2="433" y1="242" y2="436" class="net_28,29 width_2" style="stroke-width: 2"/><circle cx="433" cy="242" r="3" style="fill:#000" class="net_28,29 width_2"/><line x1="433" x2="597.3333333333334" y1="436" y2="436" class="net_28,29 width_2" style="stroke-width: 2"/><line x1="423" x2="433" y1="242" y2="242" class="net_28,29 width_2" style="stroke-width: 2"/><line x1="433" x2="433" y1="242" y2="67" class="net_28,29 width_2" style="stroke-width: 2"/><line x1="433" x2="594.6666666666666" y1="67" y2="67" class="net_28,29 width_2" style="stroke-width: 2"/><line x1="423" x2="443" y1="126" y2="126" class="net_26,27 width_2" style="stroke-width: 2"/><line x1="443" x2="443" y1="126" y2="87" class="net_26,27 width_2" style="stroke-width: 2"/><circle cx="443" cy="126" r="3" style="fill:#000" class="net_26,27 width_2"/><circle cx="443" cy="87" r="3" style="fill:#000" class="net_26,27 width_2"/><line x1="443" x2="594.6666666666666" y1="87" y2="87" class="net_26,27 width_2" style="stroke-width: 2"/><line x1="423" x2="519" y1="126" y2="126" class="net_26,27 width_2" style="stroke-width: 2"/><line x1="519" x2="519" y1="126" y2="127" class="net_26,27 width_2" style="stroke-width: 2"/><line x1="519" x2="594.6666666666666" y1="127" y2="127" class="net_26,27 width_2" style="stroke-width: 2"/><line x1="423" x2="443" y1="126" y2="126" class="net_26,27 width_2" style="stroke-width: 2"/><line x1="443" x2="443" y1="126" y2="162" class="net_26,27 width_2" style="stroke-width: 2"/><line x1="443" x2="519" y1="162" y2="162" class="net_26,27 width_2" style="stroke-width: 2"/><line x1="519" x2="519" y1="162" y2="243" class="net_26,27 width_2" style="stroke-width: 2"/><line x1="519" x2="594.6666666666666" y1="243" y2="243" class="net_26,27 width_2" style="stroke-width: 2"/><line x1="423" x2="443" y1="126" y2="126" class="net_26,27 width_2" style="stroke-width: 2"/><line x1="443" x2="443" y1="126" y2="16" class="net_26,27 width_2" style="stroke-width: 2"/><line x1="443" x2="825" y1="16" y2="16" class="net_26,27 width_2" style="stroke-width: 2"/><line x1="825" x2="825" y1="16" y2="193" class="net_26,27 width_2" style="stroke-width: 2"/><line x1="825" x2="854" y1="193" y2="193" class="net_26,27 width_2" style="stroke-width: 2"/><line x1="488" x2="509" y1="223" y2="223" class="net_3 width_1" style="stroke-width: 1"/><line x1="509" x2="509" y1="223" y2="107" class="net_3 width_1" style="stroke-width: 1"/><line x1="509" x2="607.6666666666666" y1="107" y2="107" class="net_3 width_1" style="stroke-width: 1"/><circle cx="509" cy="223" r="2" style="fill:#000" class="net_3 width_1"/><line x1="607.6666666666666" x2="607.6666666666666" y1="107" y2="95" class="net_3 width_1" style="stroke-width: 1"/><line x1="488" x2="607.6666666666666" y1="223" y2="223" class="net_3 width_1" style="stroke-width: 1"/><line x1="607.6666666666666" x2="607.6666666666666" y1="223" y2="155" class="net_3 width_1" style="stroke-width: 1"/><line x1="488" x2="509" y1="223" y2="223" class="net_3 width_1" style="stroke-width: 1"/><line x1="509" x2="509" y1="223" y2="283" class="net_3 width_1" style="stroke-width: 1"/><line x1="509" x2="607.6666666666666" y1="283" y2="283" class="net_3 width_1" style="stroke-width: 1"/><circle cx="509" cy="283" r="2" style="fill:#000" class="net_3 width_1"/><line x1="607.6666666666666" x2="607.6666666666666" y1="283" y2="271" class="net_3 width_1" style="stroke-width: 1"/><line x1="488" x2="509" y1="223" y2="223" class="net_3 width_1" style="stroke-width: 1"/><line x1="509" x2="509" y1="223" y2="343" class="net_3 width_1" style="stroke-width: 1"/><line x1="509" x2="607" y1="343" y2="343" class="net_3 width_1" style="stroke-width: 1"/><line x1="607" x2="607" y1="343" y2="328" class="net_3 width_1" style="stroke-width: 1"/><line x1="134" x2="267" y1="147" y2="147" class="net_34,35 width_2" style="stroke-width: 2"/><line x1="267" x2="267" y1="147" y2="470" class="net_34,35 width_2" style="stroke-width: 2"/><circle cx="267" cy="147" r="3" style="fill:#000" class="net_34,35 width_2"/><line x1="267" x2="330.3333333333333" y1="470" y2="470" class="net_34,35 width_2" style="stroke-width: 2"/><line x1="134" x2="594.6666666666666" y1="147" y2="147" class="net_34,35 width_2" style="stroke-width: 2"/><line x1="134" x2="257" y1="263" y2="263" class="net_40,41 width_2" style="stroke-width: 2"/><line x1="257" x2="257" y1="263" y2="530" class="net_40,41 width_2" style="stroke-width: 2"/><circle cx="257" cy="263" r="3" style="fill:#000" class="net_40,41 width_2"/><line x1="257" x2="330.3333333333333" y1="530" y2="530" class="net_40,41 width_2" style="stroke-width: 2"/><line x1="134" x2="594.6666666666666" y1="263" y2="263" class="net_40,41 width_2" style="stroke-width: 2"/><line x1="489" x2="499" y1="388" y2="388" class="net_23 width_1" style="stroke-width: 1"/><line x1="499" x2="499" y1="388" y2="303" class="net_23 width_1" style="stroke-width: 1"/><circle cx="499" cy="388" r="2" style="fill:#000" class="net_23 width_1"/><line x1="499" x2="597" y1="303" y2="303" class="net_23 width_1" style="stroke-width: 1"/><line x1="489" x2="788" y1="388" y2="388" class="net_23 width_1" style="stroke-width: 1"/><line x1="489" x2="597" y1="323" y2="323" class="net_47 width_1" style="stroke-width: 1"/><line x1="921" x2="931" y1="368" y2="368" class="net_5 width_1" style="stroke-width: 1"/><line x1="931" x2="931" y1="368" y2="581" class="net_5 width_1" style="stroke-width: 1"/><line x1="931" x2="956" y1="581" y2="581" class="net_5 width_1" style="stroke-width: 1"/><line x1="353.3333333333333" x2="377" y1="462.5" y2="462.5" class="net_10 width_1" style="stroke-width: 1"/><line x1="377" x2="377" y1="462.5" y2="540" class="net_10 width_1" style="stroke-width: 1"/><line x1="377" x2="401.5" y1="540" y2="540" class="net_10 width_1" style="stroke-width: 1"/><line x1="353.3333333333333" x2="367" y1="522.5" y2="522.5" class="net_11 width_1" style="stroke-width: 1"/><line x1="367" x2="367" y1="522.5" y2="560" class="net_11 width_1" style="stroke-width: 1"/><line x1="367" x2="401.5" y1="560" y2="560" class="net_11 width_1" style="stroke-width: 1"/><line x1="354" x2="401.5" y1="580" y2="580" class="net_12 width_1" style="stroke-width: 1"/><line x1="617" x2="756" y1="313" y2="313" class="net_14 width_1" style="stroke-width: 1"/><line x1="756" x2="756" y1="313" y2="368" class="net_14 width_1" style="stroke-width: 1"/><line x1="756" x2="788" y1="368" y2="368" class="net_14 width_1" style="stroke-width: 1"/><line x1="620.3333333333334" x2="756" y1="428.5" y2="428.5" class="net_15 width_1" style="stroke-width: 1"/><line x1="756" x2="756" y1="428.5" y2="476.5" class="net_15 width_1" style="stroke-width: 1"/><circle cx="756" cy="476.5" r="2" style="fill:#000" class="net_15 width_1"/><line x1="756" x2="788" y1="476.5" y2="476.5" class="net_15 width_1" style="stroke-width: 1"/><line x1="620.3333333333334" x2="756" y1="428.5" y2="428.5" class="net_15 width_1" style="stroke-width: 1"/><line x1="756" x2="756" y1="428.5" y2="540" class="net_15 width_1" style="stroke-width: 1"/><line x1="756" x2="849.3333333333334" y1="540" y2="540" class="net_15 width_1" style="stroke-width: 1"/><line x1="567" x2="788" y1="496.5" y2="496.5" class="net_13 width_1" style="stroke-width: 1"/><line x1="620.1666666666666" x2="815" y1="77" y2="77" class="net_16,17 width_2" style="stroke-width: 2"/><line x1="815" x2="815" y1="77" y2="213" class="net_16,17 width_2" style="stroke-width: 2"/><line x1="815" x2="854" y1="213" y2="213" class="net_16,17 width_2" style="stroke-width: 2"/><line x1="620.1666666666666" x2="805" y1="137" y2="137" class="net_18,19 width_2" style="stroke-width: 2"/><line x1="805" x2="805" y1="137" y2="233" class="net_18,19 width_2" style="stroke-width: 2"/><line x1="805" x2="854" y1="233" y2="233" class="net_18,19 width_2" style="stroke-width: 2"/><line x1="620.1666666666666" x2="854" y1="253" y2="253" class="net_20,21 width_2" style="stroke-width: 2"/><rect x="472.5" y="596" width="16" height="9" class="net_6,7 width_2 busLabel_2" style="fill: white; stroke: none"/><text x="471.5" y="604" class="net_6,7 width_2 busLabel_2">/2/</text><rect x="636.5" y="555" width="16" height="9" class="net_10,11,12 width_3 busLabel_3" style="fill: white; stroke: none"/><text x="635.5" y="563" class="net_10,11,12 width_3 busLabel_3">/3/</text><rect x="636.5" y="555" width="16" height="9" class="net_10,11,12 width_3 busLabel_3" style="fill: white; stroke: none"/><text x="635.5" y="563" class="net_10,11,12 width_3 busLabel_3">/3/</text><rect x="849.5" y="373" width="16" height="9" class="net_14,23 width_2 busLabel_2" style="fill: white; stroke: none"/><text x="848.5" y="381" class="net_14,23 width_2 busLabel_2">/2/</text><rect x="849.5" y="481.5" width="16" height="9" class="net_15,13 width_2 busLabel_2" style="fill: white; stroke: none"/><text x="848.5" y="489.5" class="net_15,13 width_2 busLabel_2">/2/</text><rect x="910" y="132.5" width="16" height="9" class="net_24,25 width_2 busLabel_2" style="fill: white; stroke: none"/><text x="909" y="140.5" class="net_24,25 width_2 busLabel_2">/2/</text><rect x="910" y="218" width="16" height="9" class="net_26,27,16,17,18,19,20,21 width_8 busLabel_8" style="fill: white; stroke: none"/><text x="909" y="226" class="net_26,27,16,17,18,19,20,21 width_8 busLabel_8">/8/</text><rect x="910" y="545" width="16" height="9" class="net_15,10,11,12 width_4 busLabel_4" style="fill: white; stroke: none"/><text x="909" y="553" class="net_15,10,11,12 width_4 busLabel_4">/4/</text><rect x="288" y="575" width="16" height="9" class="net_8,9 width_2 busLabel_2" style="fill: white; stroke: none"/><text x="287" y="583" class="net_8,9 width_2 busLabel_2">/2/</text><rect x="288" y="575" width="16" height="9" class="net_8,9 width_2 busLabel_2" style="fill: white; stroke: none"/><text x="287" y="583" class="net_8,9 width_2 busLabel_2">/2/</text><rect x="288" y="575" width="16" height="9" class="net_8,9 width_2 busLabel_2" style="fill: white; stroke: none"/><text x="287" y="583" class="net_8,9 width_2 busLabel_2">/2/</text><rect x="288" y="575" width="16" height="9" class="net_8,9 width_2 busLabel_2" style="fill: white; stroke: none"/><text x="287" y="583" class="net_8,9 width_2 busLabel_2">/2/</text><rect x="472.5" y="62" width="16" height="9" class="net_28,29 width_2 busLabel_2" style="fill: white; stroke: none"/><text x="471.5" y="70" class="net_28,29 width_2 busLabel_2">/2/</text><rect x="472.5" y="62" width="16" height="9" class="net_28,29 width_2 busLabel_2" style="fill: white; stroke: none"/><text x="471.5" y="70" class="net_28,29 width_2 busLabel_2">/2/</text><rect x="636.5" y="11" width="16" height="9" class="net_26,27 width_2 busLabel_2" style="fill: white; stroke: none"/><text x="635.5" y="19" class="net_26,27 width_2 busLabel_2">/2/</text><rect x="636.5" y="11" width="16" height="9" class="net_26,27 width_2 busLabel_2" style="fill: white; stroke: none"/><text x="635.5" y="19" class="net_26,27 width_2 busLabel_2">/2/</text><rect x="636.5" y="11" width="16" height="9" class="net_26,27 width_2 busLabel_2" style="fill: white; stroke: none"/><text x="635.5" y="19" class="net_26,27 width_2 busLabel_2">/2/</text><rect x="636.5" y="11" width="16" height="9" class="net_26,27 width_2 busLabel_2" style="fill: white; stroke: none"/><text x="635.5" y="19" class="net_26,27 width_2 busLabel_2">/2/</text><rect x="340.5" y="142" width="16" height="9" class="net_34,35 width_2 busLabel_2" style="fill: white; stroke: none"/><text x="339.5" y="150" class="net_34,35 width_2 busLabel_2">/2/</text><rect x="340.5" y="142" width="16" height="9" class="net_34,35 width_2 busLabel_2" style="fill: white; stroke: none"/><text x="339.5" y="150" class="net_34,35 width_2 busLabel_2">/2/</text><rect x="340.5" y="258" width="16" height="9" class="net_40,41 width_2 busLabel_2" style="fill: white; stroke: none"/><text x="339.5" y="266" class="net_40,41 width_2 busLabel_2">/2/</text><rect x="340.5" y="258" width="16" height="9" class="net_40,41 width_2 busLabel_2" style="fill: white; stroke: none"/><text x="339.5" y="266" class="net_40,41 width_2 busLabel_2">/2/</text><rect x="787" y="72" width="16" height="9" class="net_16,17 width_2 busLabel_2" style="fill: white; stroke: none"/><text x="786" y="80" class="net_16,17 width_2 busLabel_2">/2/</text><rect x="787" y="132" width="16" height="9" class="net_18,19 width_2 busLabel_2" style="fill: white; stroke: none"/><text x="786" y="140" class="net_18,19 width_2 busLabel_2">/2/</text><rect x="787" y="248" width="16" height="9" class="net_20,21 width_2 busLabel_2" style="fill: white; stroke: none"/><text x="786" y="256" class="net_20,21 width_2 busLabel_2">/2/</text></svg>