<svg xmlns="http://www.w3.org/2000/svg" xmlns:xlink="http://www.w3.org/1999/xlink" xmlns:s="https://github.com/nturley/netlistsvg" width="406" height="1087"><style>svg {
  stroke:#000;
  fill:none;
}
text {
  fill:#000;
  stroke:none;
  font-size:10px;
  font-weight: bold;
  font-family: "Courier New", monospace;
}
line {
    stroke-linecap: round;
}
.nodelabel {
  text-anchor: middle;
}
.inputPortLabel {
  text-anchor: end;
}
.splitjoinBody {
  fill:#000;
}</style><g s:type="generic" transform="translate(364,942.5)" s:width="30" s:height="40" id="cell__1_"><text x="15" y="-4" class="nodelabel cell__1_" s:attribute="ref">AND2_X1</text><rect width="30" height="60" s:generic="body" fill="#ffae46" rx="0" class="cell__1_"/><g transform="translate(0,10)" s:x="0" s:y="10" s:pid="in0" id="port__1_~A1"><text x="-3" y="-4" class="inputPortLabel cell__1_">A1</text></g><g transform="translate(0,30)" s:x="0" s:y="10" s:pid="in0" id="port__1_~A2"><text x="-3" y="-4" class="inputPortLabel cell__1_">A2</text></g><g transform="translate(0,50)" s:x="0" s:y="10" s:pid="in0" id="port__1_~Z"><text x="-3" y="-4" class="inputPortLabel cell__1_">Z</text></g></g><g s:type="generic" transform="translate(364,598.5)" s:width="30" s:height="40" id="cell__2_"><text x="15" y="-4" class="nodelabel cell__2_" s:attribute="ref">AND3_X1</text><rect width="30" height="80" s:generic="body" fill="#ffae46" rx="0" class="cell__2_"/><g transform="translate(0,10)" s:x="0" s:y="10" s:pid="in0" id="port__2_~A1"><text x="-3" y="-4" class="inputPortLabel cell__2_">A1</text></g><g transform="translate(0,30)" s:x="0" s:y="10" s:pid="in0" id="port__2_~A2"><text x="-3" y="-4" class="inputPortLabel cell__2_">A2</text></g><g transform="translate(0,50)" s:x="0" s:y="10" s:pid="in0" id="port__2_~A3"><text x="-3" y="-4" class="inputPortLabel cell__2_">A3</text></g><g transform="translate(0,70)" s:x="0" s:y="10" s:pid="in0" id="port__2_~Z"><text x="-3" y="-4" class="inputPortLabel cell__2_">Z</text></g></g><g s:type="generic" transform="translate(364,726.5)" s:width="30" s:height="40" id="cell__3_"><text x="15" y="-4" class="nodelabel cell__3_" s:attribute="ref">OR2_X1</text><rect width="30" height="60" s:generic="body" fill="#ffae46" rx="0" class="cell__3_"/><g transform="translate(0,10)" s:x="0" s:y="10" s:pid="in0" id="port__3_~A1"><text x="-3" y="-4" class="inputPortLabel cell__3_">A1</text></g><g transform="translate(0,30)" s:x="0" s:y="10" s:pid="in0" id="port__3_~A2"><text x="-3" y="-4" class="inputPortLabel cell__3_">A2</text></g><g transform="translate(0,50)" s:x="0" s:y="10" s:pid="in0" id="port__3_~Z"><text x="-3" y="-4" class="inputPortLabel cell__3_">Z</text></g></g><g s:type="generic" transform="translate(364,834.5)" s:width="30" s:height="40" id="cell__4_"><text x="15" y="-4" class="nodelabel cell__4_" s:attribute="ref">XOR2_X1</text><rect width="30" height="60" s:generic="body" fill="#ffae46" rx="0" class="cell__4_"/><g transform="translate(0,10)" s:x="0" s:y="10" s:pid="in0" id="port__4_~A1"><text x="-3" y="-4" class="inputPortLabel cell__4_">A1</text></g><g transform="translate(0,30)" s:x="0" s:y="10" s:pid="in0" id="port__4_~A2"><text x="-3" y="-4" class="inputPortLabel cell__4_">A2</text></g><g transform="translate(0,50)" s:x="0" s:y="10" s:pid="in0" id="port__4_~Z"><text x="-3" y="-4" class="inputPortLabel cell__4_">Z</text></g></g><g s:type="generic" transform="translate(364,87)" s:width="30" s:height="40" id="cell__5_"><text x="15" y="-4" class="nodelabel cell__5_" s:attribute="ref">DFFRNQ_X1</text><rect width="30" height="80" s:generic="body" fill="#ffae46" rx="0" class="cell__5_"/><g transform="translate(0,10)" s:x="0" s:y="10" s:pid="in0" id="port__5_~CLK"><text x="-3" y="-4" class="inputPortLabel cell__5_">CLK</text></g><g transform="translate(0,30)" s:x="0" s:y="10" s:pid="in0" id="port__5_~D"><text x="-3" y="-4" class="inputPortLabel cell__5_">D</text></g><g transform="translate(0,50)" s:x="0" s:y="10" s:pid="in0" id="port__5_~Q"><text x="-3" y="-4" class="inputPortLabel cell__5_">Q</text></g><g transform="translate(0,70)" s:x="0" s:y="10" s:pid="in0" id="port__5_~RN"><text x="-3" y="-4" class="inputPortLabel cell__5_">RN</text></g></g><g s:type="sub_odd" transform="translate(113,150)" s:width="30" s:height="40" id="cell_ff0"><text x="72" y="-4" class="nodelabel cell_ff0" s:attribute="ref">FFJK</text><rect width="144" height="339" s:generic="body" fill="#e9e9e9" rx="4" class="cell_ff0"/><g s:type="generic" transform="translate(102,264)" s:width="30" s:height="40" id="cell__2_"><text x="15" y="-4" class="nodelabel cell__2_" s:attribute="ref">NOR2_X1</text><rect width="30" height="60" s:generic="body" fill="#ffae46" rx="0" class="cell__2_"/><g transform="translate(0,10)" s:x="0" s:y="10" s:pid="in0" id="port__2_~A1"><text x="-3" y="-4" class="inputPortLabel cell__2_">A1</text></g><g transform="translate(0,30)" s:x="0" s:y="10" s:pid="in0" id="port__2_~A2"><text x="-3" y="-4" class="inputPortLabel cell__2_">A2</text></g><g transform="translate(0,50)" s:x="0" s:y="10" s:pid="in0" id="port__2_~ZN"><text x="-3" y="-4" class="inputPortLabel cell__2_">ZN</text></g></g><g s:type="generic" transform="translate(102,136)" s:width="30" s:height="40" id="cell__3_"><text x="15" y="-4" class="nodelabel cell__3_" s:attribute="ref">AOI21_X1</text><rect width="30" height="80" s:generic="body" fill="#ffae46" rx="0" class="cell__3_"/><g transform="translate(0,10)" s:x="0" s:y="10" s:pid="in0" id="port__3_~A1"><text x="-3" y="-4" class="inputPortLabel cell__3_">A1</text></g><g transform="translate(0,30)" s:x="0" s:y="10" s:pid="in0" id="port__3_~A2"><text x="-3" y="-4" class="inputPortLabel cell__3_">A2</text></g><g transform="translate(0,50)" s:x="0" s:y="10" s:pid="in0" id="port__3_~B"><text x="-3" y="-4" class="inputPortLabel cell__3_">B</text></g><g transform="translate(0,70)" s:x="0" s:y="10" s:pid="in0" id="port__3_~ZN"><text x="-3" y="-4" class="inputPortLabel cell__3_">ZN</text></g></g><g s:type="generic" transform="translate(102,22)" s:width="30" s:height="40" id="cell__4_"><text x="15" y="-4" class="nodelabel cell__4_" s:attribute="ref">DFFRNQ_X1</text><rect width="30" height="80" s:generic="body" fill="#ffae46" rx="0" class="cell__4_"/><g transform="translate(0,10)" s:x="0" s:y="10" s:pid="in0" id="port__4_~CLK"><text x="-3" y="-4" class="inputPortLabel cell__4_">CLK</text></g><g transform="translate(0,30)" s:x="0" s:y="10" s:pid="in0" id="port__4_~D"><text x="-3" y="-4" class="inputPortLabel cell__4_">D</text></g><g transform="translate(0,50)" s:x="0" s:y="10" s:pid="in0" id="port__4_~Q"><text x="-3" y="-4" class="inputPortLabel cell__4_">Q</text></g><g transform="translate(0,70)" s:x="0" s:y="10" s:pid="in0" id="port__4_~RN"><text x="-3" y="-4" class="inputPortLabel cell__4_">RN</text></g></g><g s:type="constant" transform="translate(12,105)" s:width="30" s:height="20" id="cell_1"><text x="15" y="-4" class="nodelabel cell_1" s:attribute="ref">1</text><s:alias val="$_constant_"/><rect width="30" height="20" fill="#745bff" class="cell_1"/><g s:x="31" s:y="10" s:pid="Y"/></g><line x1="0" x2="102" y1="274.5" y2="274.5" class="net_2"/><line x1="43" x2="73" y1="115" y2="115" class="net_5"/><line x1="73" x2="73" y1="115" y2="294.5" class="net_5"/><circle cx="73" cy="115" r="2" style="fill:#000" class="net_5"/><line x1="73" x2="101" y1="294.5" y2="294.5" class="net_5"/><line x1="43" x2="73" y1="115" y2="115" class="net_5"/><line x1="73" x2="73" y1="115" y2="166.5" class="net_5"/><circle cx="73" cy="166.5" r="2" style="fill:#000" class="net_5"/><line x1="73" x2="101" y1="166.5" y2="166.5" class="net_5"/><line x1="43" x2="73" y1="115" y2="115" class="net_5"/><line x1="73" x2="73" y1="115" y2="72.5" class="net_5"/><line x1="73" x2="101" y1="72.5" y2="72.5" class="net_5"/><line x1="43" x2="73" y1="115" y2="115" class="net_5"/><line x1="73" x2="73" y1="115" y2="92.5" class="net_5"/><circle cx="73" cy="92.5" r="2" style="fill:#000" class="net_5"/><line x1="73" x2="101" y1="92.5" y2="92.5" class="net_5"/><line x1="43" x2="144" y1="115" y2="115" class="net_5"/><line x1="42" x2="53" y1="186.5" y2="186.5" class="net_6"/><line x1="53" x2="53" y1="186.5" y2="314.5" class="net_6"/><circle cx="53" cy="186.5" r="2" style="fill:#000" class="net_6"/><line x1="53" x2="101" y1="314.5" y2="314.5" class="net_6"/><line x1="42" x2="101" y1="186.5" y2="186.5" class="net_6"/><line x1="0" x2="102" y1="146.5" y2="146.5" class="net_3"/><line x1="42" x2="63" y1="52.5" y2="52.5" class="net_7"/><line x1="63" x2="63" y1="52.5" y2="206.5" class="net_7"/><circle cx="63" cy="52.5" r="2" style="fill:#000" class="net_7"/><line x1="63" x2="101" y1="206.5" y2="206.5" class="net_7"/><line x1="42" x2="101" y1="52.5" y2="52.5" class="net_7"/><line x1="0" x2="102" y1="32.5" y2="32.5" class="net_4"/><g transform="translate(-1,274)" s:x="0" s:y="10" s:pid="in0" id="port_ff0~J"><text x="-3" y="-4" class="inputPortLabel cell_ff0">J</text></g><g transform="translate(-1,146)" s:x="0" s:y="10" s:pid="in0" id="port_ff0~K"><text x="-3" y="-4" class="inputPortLabel cell_ff0">K</text></g><g transform="translate(-1,32)" s:x="0" s:y="10" s:pid="in0" id="port_ff0~clk"><text x="-3" y="-4" class="inputPortLabel cell_ff0">clk</text></g><g transform="translate(144,114.5)" s:x="30" s:y="10" s:pid="out0" id="port_ff0~Q"><text x="5" y="-4" style="fill:#000; stroke:none" class="cell_ff0">Q</text></g></g><g s:type="sub_odd" transform="translate(117.75,534)" s:width="30" s:height="40" id="cell_ff1"><text x="56.5" y="-4" class="nodelabel cell_ff1" s:attribute="ref">FFJK</text><rect width="113" height="339" s:generic="body" fill="#e9e9e9" rx="4" class="cell_ff1"/><g s:type="generic" transform="translate(71,264)" s:width="30" s:height="40" id="cell__2_"><text x="15" y="-4" class="nodelabel cell__2_" s:attribute="ref">NOR2_X1</text><rect width="30" height="60" s:generic="body" fill="#ffae46" rx="0" class="cell__2_"/><g transform="translate(0,10)" s:x="0" s:y="10" s:pid="in0" id="port__2_~A1"><text x="-3" y="-4" class="inputPortLabel cell__2_">A1</text></g><g transform="translate(0,30)" s:x="0" s:y="10" s:pid="in0" id="port__2_~A2"><text x="-3" y="-4" class="inputPortLabel cell__2_">A2</text></g><g transform="translate(0,50)" s:x="0" s:y="10" s:pid="in0" id="port__2_~ZN"><text x="-3" y="-4" class="inputPortLabel cell__2_">ZN</text></g></g><g s:type="generic" transform="translate(71,136)" s:width="30" s:height="40" id="cell__3_"><text x="15" y="-4" class="nodelabel cell__3_" s:attribute="ref">AOI21_X1</text><rect width="30" height="80" s:generic="body" fill="#ffae46" rx="0" class="cell__3_"/><g transform="translate(0,10)" s:x="0" s:y="10" s:pid="in0" id="port__3_~A1"><text x="-3" y="-4" class="inputPortLabel cell__3_">A1</text></g><g transform="translate(0,30)" s:x="0" s:y="10" s:pid="in0" id="port__3_~A2"><text x="-3" y="-4" class="inputPortLabel cell__3_">A2</text></g><g transform="translate(0,50)" s:x="0" s:y="10" s:pid="in0" id="port__3_~B"><text x="-3" y="-4" class="inputPortLabel cell__3_">B</text></g><g transform="translate(0,70)" s:x="0" s:y="10" s:pid="in0" id="port__3_~ZN"><text x="-3" y="-4" class="inputPortLabel cell__3_">ZN</text></g></g><g s:type="generic" transform="translate(71,22)" s:width="30" s:height="40" id="cell__4_"><text x="15" y="-4" class="nodelabel cell__4_" s:attribute="ref">DFFRNQ_X1</text><rect width="30" height="80" s:generic="body" fill="#ffae46" rx="0" class="cell__4_"/><g transform="translate(0,10)" s:x="0" s:y="10" s:pid="in0" id="port__4_~CLK"><text x="-3" y="-4" class="inputPortLabel cell__4_">CLK</text></g><g transform="translate(0,30)" s:x="0" s:y="10" s:pid="in0" id="port__4_~D"><text x="-3" y="-4" class="inputPortLabel cell__4_">D</text></g><g transform="translate(0,50)" s:x="0" s:y="10" s:pid="in0" id="port__4_~Q"><text x="-3" y="-4" class="inputPortLabel cell__4_">Q</text></g><g transform="translate(0,70)" s:x="0" s:y="10" s:pid="in0" id="port__4_~RN"><text x="-3" y="-4" class="inputPortLabel cell__4_">RN</text></g></g><line x1="0" x2="71" y1="274.5" y2="274.5" class="net_2"/><line x1="12" x2="42" y1="115" y2="115" class="net_5"/><line x1="42" x2="42" y1="115" y2="294.5" class="net_5"/><circle cx="42" cy="115" r="2" style="fill:#000" class="net_5"/><line x1="42" x2="70" y1="294.5" y2="294.5" class="net_5"/><line x1="12" x2="42" y1="115" y2="115" class="net_5"/><line x1="42" x2="42" y1="115" y2="166.5" class="net_5"/><circle cx="42" cy="166.5" r="2" style="fill:#000" class="net_5"/><line x1="42" x2="70" y1="166.5" y2="166.5" class="net_5"/><line x1="12" x2="42" y1="115" y2="115" class="net_5"/><line x1="42" x2="42" y1="115" y2="72.5" class="net_5"/><line x1="42" x2="70" y1="72.5" y2="72.5" class="net_5"/><line x1="12" x2="42" y1="115" y2="115" class="net_5"/><line x1="42" x2="42" y1="115" y2="92.5" class="net_5"/><circle cx="42" cy="92.5" r="2" style="fill:#000" class="net_5"/><line x1="42" x2="70" y1="92.5" y2="92.5" class="net_5"/><line x1="12" x2="113" y1="115" y2="115" class="net_5"/><line x1="12" x2="22" y1="186.5" y2="186.5" class="net_6"/><line x1="22" x2="22" y1="186.5" y2="314.5" class="net_6"/><circle cx="22" cy="186.5" r="2" style="fill:#000" class="net_6"/><line x1="22" x2="70" y1="314.5" y2="314.5" class="net_6"/><line x1="12" x2="70" y1="186.5" y2="186.5" class="net_6"/><line x1="0" x2="71" y1="146.5" y2="146.5" class="net_3"/><line x1="12" x2="32" y1="52.5" y2="52.5" class="net_7"/><line x1="32" x2="32" y1="52.5" y2="206.5" class="net_7"/><circle cx="32" cy="52.5" r="2" style="fill:#000" class="net_7"/><line x1="32" x2="70" y1="206.5" y2="206.5" class="net_7"/><line x1="12" x2="70" y1="52.5" y2="52.5" class="net_7"/><line x1="0" x2="71" y1="32.5" y2="32.5" class="net_4"/><g transform="translate(-1,274)" s:x="0" s:y="10" s:pid="in0" id="port_ff1~J"><text x="-3" y="-4" class="inputPortLabel cell_ff1">J</text></g><g transform="translate(-1,146)" s:x="0" s:y="10" s:pid="in0" id="port_ff1~K"><text x="-3" y="-4" class="inputPortLabel cell_ff1">K</text></g><g transform="translate(-1,32)" s:x="0" s:y="10" s:pid="in0" id="port_ff1~clk"><text x="-3" y="-4" class="inputPortLabel cell_ff1">clk</text></g><g transform="translate(113,114.5)" s:x="30" s:y="10" s:pid="out0" id="port_ff1~Q"><text x="5" y="-4" style="fill:#000; stroke:none" class="cell_ff1">Q</text></g></g><g s:type="inputExt" transform="translate(12,172.5)" s:width="30" s:height="20" id="cell_clk"><text x="15" y="-4" class="nodelabel cell_clk" s:attribute="ref">clk</text><s:alias val="$_inputExt_"/><path d="M0,0 L0,20 L15,20 L30,10 L15,0 Z" fill="#8bcaff" class="cell_clk"/><g s:x="30" s:y="10" s:pid="Y"/></g><g s:type="inputExt" transform="translate(227,963)" s:width="30" s:height="20" id="cell_X"><text x="15" y="-4" class="nodelabel cell_X" s:attribute="ref">X</text><s:alias val="$_inputExt_"/><path d="M0,0 L0,20 L15,20 L30,10 L15,0 Z" fill="#8bcaff" class="cell_X"/><g s:x="30" s:y="10" s:pid="Y"/></g><g s:type="outputExt" transform="translate(364,22)" s:width="30" s:height="20" id="cell_Y"><text x="15" y="-4" class="nodelabel cell_Y" s:attribute="ref">Y</text><s:alias val="$_outputExt_"/><path d="M30,0 L30,20 L15,20 L0,10 L15,0 Z" fill="#169300" class="cell_Y"/><g s:x="0" s:y="10" s:pid="A"/></g><g s:type="constant" transform="translate(12,107.5)" s:width="30" s:height="20" id="cell_1"><text x="15" y="-4" class="nodelabel cell_1" s:attribute="ref">1</text><s:alias val="$_constant_"/><rect width="30" height="20" fill="#745bff" class="cell_1"/><g s:x="31" s:y="10" s:pid="Y"/></g><line x1="258" x2="275" y1="265" y2="265" class="net_5 width_1" style="stroke-width: 1"/><line x1="275" x2="275" y1="265" y2="953" class="net_5 width_1" style="stroke-width: 1"/><line x1="275" x2="364" y1="953" y2="953" class="net_5 width_1" style="stroke-width: 1"/><line x1="258" x2="275" y1="265" y2="265" class="net_5 width_1" style="stroke-width: 1"/><line x1="275" x2="275" y1="265" y2="609" class="net_5 width_1" style="stroke-width: 1"/><circle cx="275" cy="609" r="2" style="fill:#000" class="net_5 width_1"/><line x1="275" x2="364" y1="609" y2="609" class="net_5 width_1" style="stroke-width: 1"/><line x1="258" x2="275" y1="265" y2="265" class="net_5 width_1" style="stroke-width: 1"/><line x1="275" x2="275" y1="265" y2="737" class="net_5 width_1" style="stroke-width: 1"/><circle cx="275" cy="737" r="2" style="fill:#000" class="net_5 width_1"/><line x1="275" x2="364" y1="737" y2="737" class="net_5 width_1" style="stroke-width: 1"/><line x1="257" x2="363" y1="973" y2="973" class="net_3 width_1" style="stroke-width: 1"/><line x1="257" x2="305" y1="973" y2="973" class="net_3 width_1" style="stroke-width: 1"/><line x1="305" x2="305" y1="973" y2="629" class="net_3 width_1" style="stroke-width: 1"/><circle cx="305" cy="973" r="2" style="fill:#000" class="net_3 width_1"/><line x1="305" x2="363" y1="629" y2="629" class="net_3 width_1" style="stroke-width: 1"/><line x1="257" x2="305" y1="973" y2="973" class="net_3 width_1" style="stroke-width: 1"/><line x1="305" x2="305" y1="973" y2="757" class="net_3 width_1" style="stroke-width: 1"/><circle cx="305" cy="757" r="2" style="fill:#000" class="net_3 width_1"/><line x1="305" x2="363" y1="757" y2="757" class="net_3 width_1" style="stroke-width: 1"/><line x1="257" x2="305" y1="973" y2="973" class="net_3 width_1" style="stroke-width: 1"/><line x1="305" x2="305" y1="973" y2="845" class="net_3 width_1" style="stroke-width: 1"/><circle cx="305" cy="845" r="2" style="fill:#000" class="net_3 width_1"/><line x1="305" x2="364" y1="845" y2="845" class="net_3 width_1" style="stroke-width: 1"/><line x1="42" x2="325" y1="1074" y2="1074" class="net_6 width_1" style="stroke-width: 1"/><line x1="325" x2="325" y1="1074" y2="993" class="net_6 width_1" style="stroke-width: 1"/><line x1="325" x2="363" y1="993" y2="993" class="net_6 width_1" style="stroke-width: 1"/><line x1="42" x2="83" y1="1074" y2="1074" class="net_6 width_1" style="stroke-width: 1"/><line x1="83" x2="83" y1="1074" y2="808.5" class="net_6 width_1" style="stroke-width: 1"/><circle cx="83" cy="1074" r="2" style="fill:#000" class="net_6 width_1"/><line x1="83" x2="116.75" y1="808.5" y2="808.5" class="net_6 width_1" style="stroke-width: 1"/><line x1="231.75" x2="363" y1="649" y2="649" class="net_7 width_1" style="stroke-width: 1"/><line x1="231.75" x2="285" y1="649" y2="649" class="net_7 width_1" style="stroke-width: 1"/><line x1="285" x2="285" y1="649" y2="865" class="net_7 width_1" style="stroke-width: 1"/><circle cx="285" cy="649" r="2" style="fill:#000" class="net_7 width_1"/><line x1="285" x2="363" y1="865" y2="865" class="net_7 width_1" style="stroke-width: 1"/><line x1="43" x2="315" y1="117.5" y2="117.5" class="net_8 width_1" style="stroke-width: 1"/><line x1="315" x2="315" y1="117.5" y2="669" class="net_8 width_1" style="stroke-width: 1"/><line x1="315" x2="363" y1="669" y2="669" class="net_8 width_1" style="stroke-width: 1"/><line x1="43" x2="363" y1="117.5" y2="117.5" class="net_8 width_1" style="stroke-width: 1"/><line x1="43" x2="315" y1="117.5" y2="117.5" class="net_8 width_1" style="stroke-width: 1"/><line x1="315" x2="315" y1="117.5" y2="157.5" class="net_8 width_1" style="stroke-width: 1"/><circle cx="315" cy="117.5" r="2" style="fill:#000" class="net_8 width_1"/><circle cx="315" cy="157.5" r="2" style="fill:#000" class="net_8 width_1"/><line x1="315" x2="363" y1="157.5" y2="157.5" class="net_8 width_1" style="stroke-width: 1"/><line x1="43" x2="63" y1="117.5" y2="117.5" class="net_8 width_1" style="stroke-width: 1"/><line x1="63" x2="63" y1="117.5" y2="296.5" class="net_8 width_1" style="stroke-width: 1"/><circle cx="63" cy="117.5" r="2" style="fill:#000" class="net_8 width_1"/><line x1="63" x2="112" y1="296.5" y2="296.5" class="net_8 width_1" style="stroke-width: 1"/><line x1="42" x2="73" y1="1039" y2="1039" class="net_9 width_1" style="stroke-width: 1"/><line x1="73" x2="73" y1="1039" y2="993" class="net_9 width_1" style="stroke-width: 1"/><line x1="73" x2="295" y1="993" y2="993" class="net_9 width_1" style="stroke-width: 1"/><line x1="295" x2="295" y1="993" y2="777" class="net_9 width_1" style="stroke-width: 1"/><circle cx="73" cy="993" r="2" style="fill:#000" class="net_9 width_1"/><line x1="295" x2="363" y1="777" y2="777" class="net_9 width_1" style="stroke-width: 1"/><line x1="42" x2="73" y1="1039" y2="1039" class="net_9 width_1" style="stroke-width: 1"/><line x1="73" x2="73" y1="1039" y2="680.5" class="net_9 width_1" style="stroke-width: 1"/><line x1="73" x2="116.75" y1="680.5" y2="680.5" class="net_9 width_1" style="stroke-width: 1"/><line x1="42" x2="315" y1="1004" y2="1004" class="net_10 width_1" style="stroke-width: 1"/><line x1="315" x2="315" y1="1004" y2="885" class="net_10 width_1" style="stroke-width: 1"/><line x1="315" x2="363" y1="885" y2="885" class="net_10 width_1" style="stroke-width: 1"/><line x1="42" x2="63" y1="1004" y2="1004" class="net_10 width_1" style="stroke-width: 1"/><line x1="63" x2="63" y1="1004" y2="424.5" class="net_10 width_1" style="stroke-width: 1"/><circle cx="63" cy="1004" r="2" style="fill:#000" class="net_10 width_1"/><line x1="63" x2="112" y1="424.5" y2="424.5" class="net_10 width_1" style="stroke-width: 1"/><line x1="42" x2="53" y1="182.5" y2="182.5" class="net_2 width_1" style="stroke-width: 1"/><line x1="53" x2="53" y1="182.5" y2="21" class="net_2 width_1" style="stroke-width: 1"/><line x1="53" x2="335" y1="21" y2="21" class="net_2 width_1" style="stroke-width: 1"/><line x1="335" x2="335" y1="21" y2="97.5" class="net_2 width_1" style="stroke-width: 1"/><circle cx="53" cy="182.5" r="2" style="fill:#000" class="net_2 width_1"/><line x1="335" x2="364" y1="97.5" y2="97.5" class="net_2 width_1" style="stroke-width: 1"/><line x1="42" x2="112" y1="182.5" y2="182.5" class="net_2 width_1" style="stroke-width: 1"/><line x1="42" x2="53" y1="182.5" y2="182.5" class="net_2 width_1" style="stroke-width: 1"/><line x1="53" x2="53" y1="182.5" y2="566.5" class="net_2 width_1" style="stroke-width: 1"/><line x1="53" x2="116.75" y1="566.5" y2="566.5" class="net_2 width_1" style="stroke-width: 1"/><line x1="257" x2="325" y1="32" y2="32" class="net_4 width_1" style="stroke-width: 1"/><line x1="325" x2="325" y1="32" y2="137.5" class="net_4 width_1" style="stroke-width: 1"/><circle cx="325" cy="32" r="2" style="fill:#000" class="net_4 width_1"/><line x1="325" x2="363" y1="137.5" y2="137.5" class="net_4 width_1" style="stroke-width: 1"/><line x1="257" x2="364" y1="32" y2="32" class="net_4 width_1" style="stroke-width: 1"/></svg>