<svg xmlns="http://www.w3.org/2000/svg" xmlns:xlink="http://www.w3.org/1999/xlink" xmlns:s="https://github.com/nturley/netlistsvg" width="381" height="235"><style>svg {
  stroke:#000;
  fill:none;
}
text {
  fill:#000;
  stroke:none;
  font-size:10px;
  font-weight: bold;
  font-family: "Courier New", monospace;
}
line {
    stroke-linecap: round;
}
.nodelabel {
  text-anchor: middle;
}
.inputPortLabel {
  text-anchor: end;
}
.splitjoinBody {
  fill:#000;
}</style><g s:type="add" transform="translate(210.33333333333334,124.5)" s:width="25" s:height="25" id="cell_$add$ejercicio_11.v:6$5"><s:alias val="$add"/><circle r="12.5" cx="12.5" cy="12.5" fill="#ffc9c3" class="cell_$add$ejercicio_11.v:6$5"/><line x1="7.5" x2="17.5" y1="12.5" y2="12.5" class="cell_$add$ejercicio_11.v:6$5"/><line x1="12.5" x2="12.5" y1="7.5" y2="17.5" class="cell_$add$ejercicio_11.v:6$5"/><g s:x="2" s:y="5" s:pid="A"/><g s:x="2" s:y="20" s:pid="B"/><g s:x="26" s:y="12.5" s:pid="Y"/></g><g s:type="and" transform="translate(77.66666666666667,12)" s:width="30" s:height="25" id="cell_$and$ejercicio_11.v:6$1"><s:alias val="$and"/><s:alias val="$logic_and"/><s:alias val="$_AND_"/><path d="M0,0 L0,25 L15,25 A15 12.5 0 0 0 15,0 Z" fill="#eebaff" class="cell_$and$ejercicio_11.v:6$1"/><g s:x="0" s:y="5" s:pid="A"/><g s:x="0" s:y="20" s:pid="B"/><g s:x="30" s:y="12.5" s:pid="Y"/></g><g s:type="and" transform="translate(274,185.5)" s:width="30" s:height="25" id="cell_$and$ejercicio_11.v:6$10"><s:alias val="$and"/><s:alias val="$logic_and"/><s:alias val="$_AND_"/><path d="M0,0 L0,25 L15,25 A15 12.5 0 0 0 15,0 Z" fill="#eebaff" class="cell_$and$ejercicio_11.v:6$10"/><g s:x="0" s:y="5" s:pid="A"/><g s:x="0" s:y="20" s:pid="B"/><g s:x="30" s:y="12.5" s:pid="Y"/></g><g s:type="and" transform="translate(143,72)" s:width="30" s:height="25" id="cell_$and$ejercicio_11.v:6$2"><s:alias val="$and"/><s:alias val="$logic_and"/><s:alias val="$_AND_"/><path d="M0,0 L0,25 L15,25 A15 12.5 0 0 0 15,0 Z" fill="#eebaff" class="cell_$and$ejercicio_11.v:6$2"/><g s:x="0" s:y="5" s:pid="A"/><g s:x="0" s:y="20" s:pid="B"/><g s:x="30" s:y="12.5" s:pid="Y"/></g><g s:type="and" transform="translate(143,132)" s:width="30" s:height="25" id="cell_$and$ejercicio_11.v:6$4"><s:alias val="$and"/><s:alias val="$logic_and"/><s:alias val="$_AND_"/><path d="M0,0 L0,25 L15,25 A15 12.5 0 0 0 15,0 Z" fill="#eebaff" class="cell_$and$ejercicio_11.v:6$4"/><g s:x="0" s:y="5" s:pid="A"/><g s:x="0" s:y="20" s:pid="B"/><g s:x="30" s:y="12.5" s:pid="Y"/></g><g s:type="and" transform="translate(143,193)" s:width="30" s:height="25" id="cell_$and$ejercicio_11.v:6$8"><s:alias val="$and"/><s:alias val="$logic_and"/><s:alias val="$_AND_"/><path d="M0,0 L0,25 L15,25 A15 12.5 0 0 0 15,0 Z" fill="#eebaff" class="cell_$and$ejercicio_11.v:6$8"/><g s:x="0" s:y="5" s:pid="A"/><g s:x="0" s:y="20" s:pid="B"/><g s:x="30" s:y="12.5" s:pid="Y"/></g><g s:type="not" transform="translate(78,148)" s:width="30" s:height="20" id="cell_$logic_not$ejercicio_11.v:6$6"><s:alias val="$_NOT_"/><s:alias val="$not"/><s:alias val="$logic_not"/><path d="M0,0 L0,20 L20,10 Z" fill="#eebaff" class="cell_$logic_not$ejercicio_11.v:6$6"/><circle cx="24" cy="10" r="3" fill="#eebaff" class="cell_$logic_not$ejercicio_11.v:6$6"/><g s:x="-1" s:y="10" s:pid="A"/><g s:x="27" s:y="10" s:pid="Y"/></g><g s:type="not" transform="translate(78,203)" s:width="30" s:height="20" id="cell_$logic_not$ejercicio_11.v:6$7"><s:alias val="$_NOT_"/><s:alias val="$not"/><s:alias val="$logic_not"/><path d="M0,0 L0,20 L20,10 Z" fill="#eebaff" class="cell_$logic_not$ejercicio_11.v:6$7"/><circle cx="24" cy="10" r="3" fill="#eebaff" class="cell_$logic_not$ejercicio_11.v:6$7"/><g s:x="-1" s:y="10" s:pid="A"/><g s:x="27" s:y="10" s:pid="Y"/></g><g s:type="not" transform="translate(209,195.5)" s:width="30" s:height="20" id="cell_$logic_not$ejercicio_11.v:6$9"><s:alias val="$_NOT_"/><s:alias val="$not"/><s:alias val="$logic_not"/><path d="M0,0 L0,20 L20,10 Z" fill="#eebaff" class="cell_$logic_not$ejercicio_11.v:6$9"/><circle cx="24" cy="10" r="3" fill="#eebaff" class="cell_$logic_not$ejercicio_11.v:6$9"/><g s:x="-1" s:y="10" s:pid="A"/><g s:x="27" s:y="10" s:pid="Y"/></g><g s:type="inputExt" transform="translate(12,127)" s:width="30" s:height="20" id="cell_A"><text x="15" y="-4" class="nodelabel cell_A" s:attribute="ref">A</text><s:alias val="$_inputExt_"/><path d="M0,0 L0,20 L15,20 L30,10 L15,0 Z" fill="#8bcaff" class="cell_A"/><g s:x="30" s:y="10" s:pid="Y"/></g><g s:type="inputExt" transform="translate(12,203)" s:width="30" s:height="20" id="cell_B"><text x="15" y="-4" class="nodelabel cell_B" s:attribute="ref">B</text><s:alias val="$_inputExt_"/><path d="M0,0 L0,20 L15,20 L30,10 L15,0 Z" fill="#8bcaff" class="cell_B"/><g s:x="30" s:y="10" s:pid="Y"/></g><g s:type="inputExt" transform="translate(78,82)" s:width="30" s:height="20" id="cell_C"><text x="15" y="-4" class="nodelabel cell_C" s:attribute="ref">C</text><s:alias val="$_inputExt_"/><path d="M0,0 L0,20 L15,20 L30,10 L15,0 Z" fill="#8bcaff" class="cell_C"/><g s:x="30" s:y="10" s:pid="Y"/></g><g s:type="outputExt" transform="translate(339,188)" s:width="30" s:height="20" id="cell_Y"><text x="15" y="-4" class="nodelabel cell_Y" s:attribute="ref">Y</text><s:alias val="$_outputExt_"/><path d="M30,0 L30,20 L15,20 L0,10 L15,0 Z" fill="#169300" class="cell_Y"/><g s:x="0" s:y="10" s:pid="A"/></g><line x1="173" x2="183" y1="84.5" y2="84.5" class="net_6 width_1" style="stroke-width: 1"/><line x1="183" x2="183" y1="84.5" y2="129.5" class="net_6 width_1" style="stroke-width: 1"/><line x1="183" x2="212.33333333333334" y1="129.5" y2="129.5" class="net_6 width_1" style="stroke-width: 1"/><line x1="173" x2="212.33333333333334" y1="144.5" y2="144.5" class="net_7 width_1" style="stroke-width: 1"/><line x1="42" x2="62" y1="137" y2="137" class="net_2 width_1" style="stroke-width: 1"/><line x1="62" x2="62" y1="137" y2="17" class="net_2 width_1" style="stroke-width: 1"/><circle cx="62" cy="137" r="2" style="fill:#000" class="net_2 width_1"/><line x1="62" x2="77.66666666666667" y1="17" y2="17" class="net_2 width_1" style="stroke-width: 1"/><line x1="42" x2="143" y1="137" y2="137" class="net_2 width_1" style="stroke-width: 1"/><line x1="42" x2="62" y1="137" y2="137" class="net_2 width_1" style="stroke-width: 1"/><line x1="62" x2="62" y1="137" y2="158" class="net_2 width_1" style="stroke-width: 1"/><line x1="62" x2="77" y1="158" y2="158" class="net_2 width_1" style="stroke-width: 1"/><line x1="42" x2="52" y1="213" y2="213" class="net_3 width_1" style="stroke-width: 1"/><line x1="52" x2="52" y1="213" y2="32" class="net_3 width_1" style="stroke-width: 1"/><circle cx="52" cy="213" r="2" style="fill:#000" class="net_3 width_1"/><line x1="52" x2="77.66666666666667" y1="32" y2="32" class="net_3 width_1" style="stroke-width: 1"/><line x1="42" x2="77" y1="213" y2="213" class="net_3 width_1" style="stroke-width: 1"/><line x1="236.33333333333334" x2="249" y1="137" y2="137" class="net_8 width_1" style="stroke-width: 1"/><line x1="249" x2="249" y1="137" y2="190.5" class="net_8 width_1" style="stroke-width: 1"/><line x1="249" x2="274" y1="190.5" y2="190.5" class="net_8 width_1" style="stroke-width: 1"/><line x1="236" x2="274" y1="205.5" y2="205.5" class="net_10 width_1" style="stroke-width: 1"/><line x1="107.66666666666667" x2="118" y1="24.5" y2="24.5" class="net_9 width_1" style="stroke-width: 1"/><line x1="118" x2="118" y1="24.5" y2="77" class="net_9 width_1" style="stroke-width: 1"/><line x1="118" x2="143" y1="77" y2="77" class="net_9 width_1" style="stroke-width: 1"/><line x1="108" x2="143" y1="92" y2="92" class="net_4 width_1" style="stroke-width: 1"/><line x1="105" x2="118" y1="213" y2="213" class="net_11 width_1" style="stroke-width: 1"/><line x1="118" x2="118" y1="213" y2="152" class="net_11 width_1" style="stroke-width: 1"/><circle cx="118" cy="213" r="2" style="fill:#000" class="net_11 width_1"/><line x1="118" x2="143" y1="152" y2="152" class="net_11 width_1" style="stroke-width: 1"/><line x1="105" x2="143" y1="213" y2="213" class="net_11 width_1" style="stroke-width: 1"/><line x1="105" x2="128" y1="158" y2="158" class="net_12 width_1" style="stroke-width: 1"/><line x1="128" x2="128" y1="158" y2="198" class="net_12 width_1" style="stroke-width: 1"/><line x1="128" x2="143" y1="198" y2="198" class="net_12 width_1" style="stroke-width: 1"/><line x1="173" x2="208" y1="205.5" y2="205.5" class="net_13 width_1" style="stroke-width: 1"/><line x1="304" x2="339" y1="198" y2="198" class="net_5 width_1" style="stroke-width: 1"/></svg>