<svg xmlns="http://www.w3.org/2000/svg" xmlns:xlink="http://www.w3.org/1999/xlink" xmlns:s="https://github.com/nturley/netlistsvg" width="376" height="150"><style>svg {
  stroke:#000;
  fill:none;
}
text {
  fill:#000;
  stroke:none;
  font-size:10px;
  font-weight: bold;
  font-family: "Courier New", monospace;
}
line {
    stroke-linecap: round;
}
.nodelabel {
  text-anchor: middle;
}
.inputPortLabel {
  text-anchor: end;
}
.splitjoinBody {
  fill:#000;
}</style><g s:type="add" transform="translate(273,27)" s:width="25" s:height="25" id="cell_$add$ejercicio_22.v:9$4"><s:alias val="$add"/><circle r="12.5" cx="12.5" cy="12.5" fill="#ffc9c3" class="cell_$add$ejercicio_22.v:9$4"/><line x1="7.5" x2="17.5" y1="12.5" y2="12.5" class="cell_$add$ejercicio_22.v:9$4"/><line x1="12.5" x2="12.5" y1="7.5" y2="17.5" class="cell_$add$ejercicio_22.v:9$4"/><g s:x="2" s:y="5" s:pid="A"/><g s:x="2" s:y="20" s:pid="B"/><g s:x="26" s:y="12.5" s:pid="Y"/></g><g s:type="and" transform="translate(143,48)" s:width="30" s:height="25" id="cell_$and$ejercicio_22.v:9$2"><s:alias val="$and"/><s:alias val="$logic_and"/><s:alias val="$_AND_"/><path d="M0,0 L0,25 L15,25 A15 12.5 0 0 0 15,0 Z" fill="#eebaff" class="cell_$and$ejercicio_22.v:9$2"/><g s:x="0" s:y="5" s:pid="A"/><g s:x="0" s:y="20" s:pid="B"/><g s:x="30" s:y="12.5" s:pid="Y"/></g><g s:type="and" transform="translate(208,55.5)" s:width="30" s:height="25" id="cell_$and$ejercicio_22.v:9$3"><s:alias val="$and"/><s:alias val="$logic_and"/><s:alias val="$_AND_"/><path d="M0,0 L0,25 L15,25 A15 12.5 0 0 0 15,0 Z" fill="#eebaff" class="cell_$and$ejercicio_22.v:9$3"/><g s:x="0" s:y="5" s:pid="A"/><g s:x="0" s:y="20" s:pid="B"/><g s:x="30" s:y="12.5" s:pid="Y"/></g><g s:type="not" transform="translate(78,43)" s:width="30" s:height="20" id="cell_$logic_not$ejercicio_22.v:9$1"><s:alias val="$_NOT_"/><s:alias val="$not"/><s:alias val="$logic_not"/><path d="M0,0 L0,20 L20,10 Z" fill="#eebaff" class="cell_$logic_not$ejercicio_22.v:9$1"/><circle cx="24" cy="10" r="3" fill="#eebaff" class="cell_$logic_not$ejercicio_22.v:9$1"/><g s:x="-1" s:y="10" s:pid="A"/><g s:x="27" s:y="10" s:pid="Y"/></g><g s:type="inputExt" transform="translate(12,22)" s:width="30" s:height="20" id="cell_A"><text x="15" y="-4" class="nodelabel cell_A" s:attribute="ref">A</text><s:alias val="$_inputExt_"/><path d="M0,0 L0,20 L15,20 L30,10 L15,0 Z" fill="#8bcaff" class="cell_A"/><g s:x="30" s:y="10" s:pid="Y"/></g><g s:type="inputExt" transform="translate(78,108)" s:width="30" s:height="20" id="cell_B"><text x="15" y="-4" class="nodelabel cell_B" s:attribute="ref">B</text><s:alias val="$_inputExt_"/><path d="M0,0 L0,20 L15,20 L30,10 L15,0 Z" fill="#8bcaff" class="cell_B"/><g s:x="30" s:y="10" s:pid="Y"/></g><g s:type="inputExt" transform="translate(143,118)" s:width="30" s:height="20" id="cell_C"><text x="15" y="-4" class="nodelabel cell_C" s:attribute="ref">C</text><s:alias val="$_inputExt_"/><path d="M0,0 L0,20 L15,20 L30,10 L15,0 Z" fill="#8bcaff" class="cell_C"/><g s:x="30" s:y="10" s:pid="Y"/></g><g s:type="outputExt" transform="translate(334,29.5)" s:width="30" s:height="20" id="cell_Y"><text x="15" y="-4" class="nodelabel cell_Y" s:attribute="ref">Y</text><s:alias val="$_outputExt_"/><path d="M30,0 L30,20 L15,20 L0,10 L15,0 Z" fill="#169300" class="cell_Y"/><g s:x="0" s:y="10" s:pid="A"/></g><line x1="42" x2="275" y1="32" y2="32" class="net_2 width_1" style="stroke-width: 1"/><line x1="42" x2="52" y1="32" y2="32" class="net_2 width_1" style="stroke-width: 1"/><line x1="52" x2="52" y1="32" y2="53" class="net_2 width_1" style="stroke-width: 1"/><circle cx="52" cy="32" r="2" style="fill:#000" class="net_2 width_1"/><line x1="52" x2="77" y1="53" y2="53" class="net_2 width_1" style="stroke-width: 1"/><line x1="238" x2="248" y1="68" y2="68" class="net_6 width_1" style="stroke-width: 1"/><line x1="248" x2="248" y1="68" y2="47" class="net_6 width_1" style="stroke-width: 1"/><line x1="248" x2="275" y1="47" y2="47" class="net_6 width_1" style="stroke-width: 1"/><line x1="105" x2="143" y1="53" y2="53" class="net_7 width_1" style="stroke-width: 1"/><line x1="108" x2="118" y1="118" y2="118" class="net_3 width_1" style="stroke-width: 1"/><line x1="118" x2="118" y1="118" y2="68" class="net_3 width_1" style="stroke-width: 1"/><line x1="118" x2="143" y1="68" y2="68" class="net_3 width_1" style="stroke-width: 1"/><line x1="173" x2="208" y1="60.5" y2="60.5" class="net_8 width_1" style="stroke-width: 1"/><line x1="173" x2="183" y1="128" y2="128" class="net_4 width_1" style="stroke-width: 1"/><line x1="183" x2="183" y1="128" y2="75.5" class="net_4 width_1" style="stroke-width: 1"/><line x1="183" x2="208" y1="75.5" y2="75.5" class="net_4 width_1" style="stroke-width: 1"/><line x1="299" x2="334" y1="39.5" y2="39.5" class="net_5 width_1" style="stroke-width: 1"/></svg>