<svg xmlns="http://www.w3.org/2000/svg" xmlns:xlink="http://www.w3.org/1999/xlink" xmlns:s="https://github.com/nturley/netlistsvg" width="857" height="544"><style>svg {
  stroke:#000;
  fill:none;
}
text {
  fill:#000;
  stroke:none;
  font-size:10px;
  font-weight: bold;
  font-family: "Courier New", monospace;
}
line {
    stroke-linecap: round;
}
.nodelabel {
  text-anchor: middle;
}
.inputPortLabel {
  text-anchor: end;
}
.splitjoinBody {
  fill:#000;
}</style><g s:type="and" transform="translate(224,84.5)" s:width="30" s:height="25" id="cell_$and$ejercicio_30.v:6$10"><s:alias val="$and"/><s:alias val="$logic_and"/><s:alias val="$_AND_"/><path d="M0,0 L0,25 L15,25 A15 12.5 0 0 0 15,0 Z" fill="#eebaff" class="cell_$and$ejercicio_30.v:6$10"/><g s:x="0" s:y="5" s:pid="A"/><g s:x="0" s:y="20" s:pid="B"/><g s:x="30" s:y="12.5" s:pid="Y"/></g><g s:type="and" transform="translate(294,92)" s:width="30" s:height="25" id="cell_$and$ejercicio_30.v:6$11"><s:alias val="$and"/><s:alias val="$logic_and"/><s:alias val="$_AND_"/><path d="M0,0 L0,25 L15,25 A15 12.5 0 0 0 15,0 Z" fill="#eebaff" class="cell_$and$ejercicio_30.v:6$11"/><g s:x="0" s:y="5" s:pid="A"/><g s:x="0" s:y="20" s:pid="B"/><g s:x="30" s:y="12.5" s:pid="Y"/></g><g s:type="and" transform="translate(294,152)" s:width="30" s:height="25" id="cell_$and$ejercicio_30.v:6$16"><s:alias val="$and"/><s:alias val="$logic_and"/><s:alias val="$_AND_"/><path d="M0,0 L0,25 L15,25 A15 12.5 0 0 0 15,0 Z" fill="#eebaff" class="cell_$and$ejercicio_30.v:6$16"/><g s:x="0" s:y="5" s:pid="A"/><g s:x="0" s:y="20" s:pid="B"/><g s:x="30" s:y="12.5" s:pid="Y"/></g><g s:type="and" transform="translate(359,159.5)" s:width="30" s:height="25" id="cell_$and$ejercicio_30.v:6$17"><s:alias val="$and"/><s:alias val="$logic_and"/><s:alias val="$_AND_"/><path d="M0,0 L0,25 L15,25 A15 12.5 0 0 0 15,0 Z" fill="#eebaff" class="cell_$and$ejercicio_30.v:6$17"/><g s:x="0" s:y="5" s:pid="A"/><g s:x="0" s:y="20" s:pid="B"/><g s:x="30" s:y="12.5" s:pid="Y"/></g><g s:type="and" transform="translate(224,144.5)" s:width="30" s:height="25" id="cell_$and$ejercicio_30.v:6$20"><s:alias val="$and"/><s:alias val="$logic_and"/><s:alias val="$_AND_"/><path d="M0,0 L0,25 L15,25 A15 12.5 0 0 0 15,0 Z" fill="#eebaff" class="cell_$and$ejercicio_30.v:6$20"/><g s:x="0" s:y="5" s:pid="A"/><g s:x="0" s:y="20" s:pid="B"/><g s:x="30" s:y="12.5" s:pid="Y"/></g><g s:type="and" transform="translate(359,222.5)" s:width="30" s:height="25" id="cell_$and$ejercicio_30.v:6$21"><s:alias val="$and"/><s:alias val="$logic_and"/><s:alias val="$_AND_"/><path d="M0,0 L0,25 L15,25 A15 12.5 0 0 0 15,0 Z" fill="#eebaff" class="cell_$and$ejercicio_30.v:6$21"/><g s:x="0" s:y="5" s:pid="A"/><g s:x="0" s:y="20" s:pid="B"/><g s:x="30" s:y="12.5" s:pid="Y"/></g><g s:type="and" transform="translate(424.6666666666667,230)" s:width="30" s:height="25" id="cell_$and$ejercicio_30.v:6$22"><s:alias val="$and"/><s:alias val="$logic_and"/><s:alias val="$_AND_"/><path d="M0,0 L0,25 L15,25 A15 12.5 0 0 0 15,0 Z" fill="#eebaff" class="cell_$and$ejercicio_30.v:6$22"/><g s:x="0" s:y="5" s:pid="A"/><g s:x="0" s:y="20" s:pid="B"/><g s:x="30" s:y="12.5" s:pid="Y"/></g><g s:type="and" transform="translate(424.6666666666667,290)" s:width="30" s:height="25" id="cell_$and$ejercicio_30.v:6$27"><s:alias val="$and"/><s:alias val="$logic_and"/><s:alias val="$_AND_"/><path d="M0,0 L0,25 L15,25 A15 12.5 0 0 0 15,0 Z" fill="#eebaff" class="cell_$and$ejercicio_30.v:6$27"/><g s:x="0" s:y="5" s:pid="A"/><g s:x="0" s:y="20" s:pid="B"/><g s:x="30" s:y="12.5" s:pid="Y"/></g><g s:type="and" transform="translate(490,297.5)" s:width="30" s:height="25" id="cell_$and$ejercicio_30.v:6$29"><s:alias val="$and"/><s:alias val="$logic_and"/><s:alias val="$_AND_"/><path d="M0,0 L0,25 L15,25 A15 12.5 0 0 0 15,0 Z" fill="#eebaff" class="cell_$and$ejercicio_30.v:6$29"/><g s:x="0" s:y="5" s:pid="A"/><g s:x="0" s:y="20" s:pid="B"/><g s:x="30" s:y="12.5" s:pid="Y"/></g><g s:type="and" transform="translate(359,282.5)" s:width="30" s:height="25" id="cell_$and$ejercicio_30.v:6$32"><s:alias val="$and"/><s:alias val="$logic_and"/><s:alias val="$_AND_"/><path d="M0,0 L0,25 L15,25 A15 12.5 0 0 0 15,0 Z" fill="#eebaff" class="cell_$and$ejercicio_30.v:6$32"/><g s:x="0" s:y="5" s:pid="A"/><g s:x="0" s:y="20" s:pid="B"/><g s:x="30" s:y="12.5" s:pid="Y"/></g><g s:type="and" transform="translate(490,357.5)" s:width="30" s:height="25" id="cell_$and$ejercicio_30.v:6$33"><s:alias val="$and"/><s:alias val="$logic_and"/><s:alias val="$_AND_"/><path d="M0,0 L0,25 L15,25 A15 12.5 0 0 0 15,0 Z" fill="#eebaff" class="cell_$and$ejercicio_30.v:6$33"/><g s:x="0" s:y="5" s:pid="A"/><g s:x="0" s:y="20" s:pid="B"/><g s:x="30" s:y="12.5" s:pid="Y"/></g><g s:type="and" transform="translate(555,365)" s:width="30" s:height="25" id="cell_$and$ejercicio_30.v:6$35"><s:alias val="$and"/><s:alias val="$logic_and"/><s:alias val="$_AND_"/><path d="M0,0 L0,25 L15,25 A15 12.5 0 0 0 15,0 Z" fill="#eebaff" class="cell_$and$ejercicio_30.v:6$35"/><g s:x="0" s:y="5" s:pid="A"/><g s:x="0" s:y="20" s:pid="B"/><g s:x="30" s:y="12.5" s:pid="Y"/></g><g s:type="and" transform="translate(555,425)" s:width="30" s:height="25" id="cell_$and$ejercicio_30.v:6$39"><s:alias val="$and"/><s:alias val="$logic_and"/><s:alias val="$_AND_"/><path d="M0,0 L0,25 L15,25 A15 12.5 0 0 0 15,0 Z" fill="#eebaff" class="cell_$and$ejercicio_30.v:6$39"/><g s:x="0" s:y="5" s:pid="A"/><g s:x="0" s:y="20" s:pid="B"/><g s:x="30" s:y="12.5" s:pid="Y"/></g><g s:type="and" transform="translate(620,432.5)" s:width="30" s:height="25" id="cell_$and$ejercicio_30.v:6$41"><s:alias val="$and"/><s:alias val="$logic_and"/><s:alias val="$_AND_"/><path d="M0,0 L0,25 L15,25 A15 12.5 0 0 0 15,0 Z" fill="#eebaff" class="cell_$and$ejercicio_30.v:6$41"/><g s:x="0" s:y="5" s:pid="A"/><g s:x="0" s:y="20" s:pid="B"/><g s:x="30" s:y="12.5" s:pid="Y"/></g><g s:type="and" transform="translate(490,485)" s:width="30" s:height="25" id="cell_$and$ejercicio_30.v:6$43"><s:alias val="$and"/><s:alias val="$logic_and"/><s:alias val="$_AND_"/><path d="M0,0 L0,25 L15,25 A15 12.5 0 0 0 15,0 Z" fill="#eebaff" class="cell_$and$ejercicio_30.v:6$43"/><g s:x="0" s:y="5" s:pid="A"/><g s:x="0" s:y="20" s:pid="B"/><g s:x="30" s:y="12.5" s:pid="Y"/></g><g s:type="and" transform="translate(620,492.5)" s:width="30" s:height="25" id="cell_$and$ejercicio_30.v:6$44"><s:alias val="$and"/><s:alias val="$logic_and"/><s:alias val="$_AND_"/><path d="M0,0 L0,25 L15,25 A15 12.5 0 0 0 15,0 Z" fill="#eebaff" class="cell_$and$ejercicio_30.v:6$44"/><g s:x="0" s:y="5" s:pid="A"/><g s:x="0" s:y="20" s:pid="B"/><g s:x="30" s:y="12.5" s:pid="Y"/></g><g s:type="and" transform="translate(685,500)" s:width="30" s:height="25" id="cell_$and$ejercicio_30.v:6$46"><s:alias val="$and"/><s:alias val="$logic_and"/><s:alias val="$_AND_"/><path d="M0,0 L0,25 L15,25 A15 12.5 0 0 0 15,0 Z" fill="#eebaff" class="cell_$and$ejercicio_30.v:6$46"/><g s:x="0" s:y="5" s:pid="A"/><g s:x="0" s:y="20" s:pid="B"/><g s:x="30" s:y="12.5" s:pid="Y"/></g><g s:type="and" transform="translate(224,24.5)" s:width="30" s:height="25" id="cell_$and$ejercicio_30.v:6$5"><s:alias val="$and"/><s:alias val="$logic_and"/><s:alias val="$_AND_"/><path d="M0,0 L0,25 L15,25 A15 12.5 0 0 0 15,0 Z" fill="#eebaff" class="cell_$and$ejercicio_30.v:6$5"/><g s:x="0" s:y="5" s:pid="A"/><g s:x="0" s:y="20" s:pid="B"/><g s:x="30" s:y="12.5" s:pid="Y"/></g><g s:type="and" transform="translate(294,32)" s:width="30" s:height="25" id="cell_$and$ejercicio_30.v:6$6"><s:alias val="$and"/><s:alias val="$logic_and"/><s:alias val="$_AND_"/><path d="M0,0 L0,25 L15,25 A15 12.5 0 0 0 15,0 Z" fill="#eebaff" class="cell_$and$ejercicio_30.v:6$6"/><g s:x="0" s:y="5" s:pid="A"/><g s:x="0" s:y="20" s:pid="B"/><g s:x="30" s:y="12.5" s:pid="Y"/></g><g s:type="and" transform="translate(158.66666666666666,17)" s:width="30" s:height="25" id="cell_$and$ejercicio_30.v:6$9"><s:alias val="$and"/><s:alias val="$logic_and"/><s:alias val="$_AND_"/><path d="M0,0 L0,25 L15,25 A15 12.5 0 0 0 15,0 Z" fill="#eebaff" class="cell_$and$ejercicio_30.v:6$9"/><g s:x="0" s:y="5" s:pid="A"/><g s:x="0" s:y="20" s:pid="B"/><g s:x="30" s:y="12.5" s:pid="Y"/></g><g s:type="not" transform="translate(78,12)" s:width="30" s:height="20" id="cell_$logic_not$ejercicio_30.v:6$19"><s:alias val="$_NOT_"/><s:alias val="$not"/><s:alias val="$logic_not"/><path d="M0,0 L0,20 L20,10 Z" fill="#eebaff" class="cell_$logic_not$ejercicio_30.v:6$19"/><circle cx="24" cy="10" r="3" fill="#eebaff" class="cell_$logic_not$ejercicio_30.v:6$19"/><g s:x="-1" s:y="10" s:pid="A"/><g s:x="27" s:y="10" s:pid="Y"/></g><g s:type="not" transform="translate(78,175.5)" s:width="30" s:height="20" id="cell_$logic_not$ejercicio_30.v:6$31"><s:alias val="$_NOT_"/><s:alias val="$not"/><s:alias val="$logic_not"/><path d="M0,0 L0,20 L20,10 Z" fill="#eebaff" class="cell_$logic_not$ejercicio_30.v:6$31"/><circle cx="24" cy="10" r="3" fill="#eebaff" class="cell_$logic_not$ejercicio_30.v:6$31"/><g s:x="-1" s:y="10" s:pid="A"/><g s:x="27" s:y="10" s:pid="Y"/></g><g s:type="not" transform="translate(159,175.5)" s:width="30" s:height="20" id="cell_$logic_not$ejercicio_30.v:6$38"><s:alias val="$_NOT_"/><s:alias val="$not"/><s:alias val="$logic_not"/><path d="M0,0 L0,20 L20,10 Z" fill="#eebaff" class="cell_$logic_not$ejercicio_30.v:6$38"/><circle cx="24" cy="10" r="3" fill="#eebaff" class="cell_$logic_not$ejercicio_30.v:6$38"/><g s:x="-1" s:y="10" s:pid="A"/><g s:x="27" s:y="10" s:pid="Y"/></g><g s:type="not" transform="translate(425,456)" s:width="30" s:height="20" id="cell_$logic_not$ejercicio_30.v:6$45"><s:alias val="$_NOT_"/><s:alias val="$not"/><s:alias val="$logic_not"/><path d="M0,0 L0,20 L20,10 Z" fill="#eebaff" class="cell_$logic_not$ejercicio_30.v:6$45"/><circle cx="24" cy="10" r="3" fill="#eebaff" class="cell_$logic_not$ejercicio_30.v:6$45"/><g s:x="-1" s:y="10" s:pid="A"/><g s:x="27" s:y="10" s:pid="Y"/></g><g s:type="or" transform="translate(359,39.5)" s:width="30" s:height="25" id="cell_$or$ejercicio_30.v:6$12"><s:alias val="$or"/><s:alias val="$logic_or"/><s:alias val="$_OR_"/><path d="M0,25 L0,25 L15,25 A15 12.5 0 0 0 15,0 L0,0 A30 25 0 0 1 0,25 Z" fill="#eebaff" class="cell_$or$ejercicio_30.v:6$12"/><g s:x="2" s:y="5" s:pid="A"/><g s:x="2" s:y="20" s:pid="B"/><g s:x="30" s:y="12.5" s:pid="Y"/></g><g s:type="or" transform="translate(424.6666666666667,47)" s:width="30" s:height="25" id="cell_$or$ejercicio_30.v:6$18"><s:alias val="$or"/><s:alias val="$logic_or"/><s:alias val="$_OR_"/><path d="M0,25 L0,25 L15,25 A15 12.5 0 0 0 15,0 L0,0 A30 25 0 0 1 0,25 Z" fill="#eebaff" class="cell_$or$ejercicio_30.v:6$18"/><g s:x="2" s:y="5" s:pid="A"/><g s:x="2" s:y="20" s:pid="B"/><g s:x="30" s:y="12.5" s:pid="Y"/></g><g s:type="or" transform="translate(490,54.5)" s:width="30" s:height="25" id="cell_$or$ejercicio_30.v:6$23"><s:alias val="$or"/><s:alias val="$logic_or"/><s:alias val="$_OR_"/><path d="M0,25 L0,25 L15,25 A15 12.5 0 0 0 15,0 L0,0 A30 25 0 0 1 0,25 Z" fill="#eebaff" class="cell_$or$ejercicio_30.v:6$23"/><g s:x="2" s:y="5" s:pid="A"/><g s:x="2" s:y="20" s:pid="B"/><g s:x="30" s:y="12.5" s:pid="Y"/></g><g s:type="or" transform="translate(555,62)" s:width="30" s:height="25" id="cell_$or$ejercicio_30.v:6$30"><s:alias val="$or"/><s:alias val="$logic_or"/><s:alias val="$_OR_"/><path d="M0,25 L0,25 L15,25 A15 12.5 0 0 0 15,0 L0,0 A30 25 0 0 1 0,25 Z" fill="#eebaff" class="cell_$or$ejercicio_30.v:6$30"/><g s:x="2" s:y="5" s:pid="A"/><g s:x="2" s:y="20" s:pid="B"/><g s:x="30" s:y="12.5" s:pid="Y"/></g><g s:type="or" transform="translate(620,69.5)" s:width="30" s:height="25" id="cell_$or$ejercicio_30.v:6$36"><s:alias val="$or"/><s:alias val="$logic_or"/><s:alias val="$_OR_"/><path d="M0,25 L0,25 L15,25 A15 12.5 0 0 0 15,0 L0,0 A30 25 0 0 1 0,25 Z" fill="#eebaff" class="cell_$or$ejercicio_30.v:6$36"/><g s:x="2" s:y="5" s:pid="A"/><g s:x="2" s:y="20" s:pid="B"/><g s:x="30" s:y="12.5" s:pid="Y"/></g><g s:type="or" transform="translate(685,77)" s:width="30" s:height="25" id="cell_$or$ejercicio_30.v:6$42"><s:alias val="$or"/><s:alias val="$logic_or"/><s:alias val="$_OR_"/><path d="M0,25 L0,25 L15,25 A15 12.5 0 0 0 15,0 L0,0 A30 25 0 0 1 0,25 Z" fill="#eebaff" class="cell_$or$ejercicio_30.v:6$42"/><g s:x="2" s:y="5" s:pid="A"/><g s:x="2" s:y="20" s:pid="B"/><g s:x="30" s:y="12.5" s:pid="Y"/></g><g s:type="or" transform="translate(750,84.5)" s:width="30" s:height="25" id="cell_$or$ejercicio_30.v:6$47"><s:alias val="$or"/><s:alias val="$logic_or"/><s:alias val="$_OR_"/><path d="M0,25 L0,25 L15,25 A15 12.5 0 0 0 15,0 L0,0 A30 25 0 0 1 0,25 Z" fill="#eebaff" class="cell_$or$ejercicio_30.v:6$47"/><g s:x="2" s:y="5" s:pid="A"/><g s:x="2" s:y="20" s:pid="B"/><g s:x="30" s:y="12.5" s:pid="Y"/></g><g s:type="inputExt" transform="translate(12,277.5)" s:width="30" s:height="20" id="cell_A"><text x="15" y="-4" class="nodelabel cell_A" s:attribute="ref">A</text><s:alias val="$_inputExt_"/><path d="M0,0 L0,20 L15,20 L30,10 L15,0 Z" fill="#8bcaff" class="cell_A"/><g s:x="30" s:y="10" s:pid="Y"/></g><g s:type="inputExt" transform="translate(12,342.5)" s:width="30" s:height="20" id="cell_B"><text x="15" y="-4" class="nodelabel cell_B" s:attribute="ref">B</text><s:alias val="$_inputExt_"/><path d="M0,0 L0,20 L15,20 L30,10 L15,0 Z" fill="#8bcaff" class="cell_B"/><g s:x="30" s:y="10" s:pid="Y"/></g><g s:type="inputExt" transform="translate(78,240.5)" s:width="30" s:height="20" id="cell_C"><text x="15" y="-4" class="nodelabel cell_C" s:attribute="ref">C</text><s:alias val="$_inputExt_"/><path d="M0,0 L0,20 L15,20 L30,10 L15,0 Z" fill="#8bcaff" class="cell_C"/><g s:x="30" s:y="10" s:pid="Y"/></g><g s:type="inputExt" transform="translate(224,206.5)" s:width="30" s:height="20" id="cell_D"><text x="15" y="-4" class="nodelabel cell_D" s:attribute="ref">D</text><s:alias val="$_inputExt_"/><path d="M0,0 L0,20 L15,20 L30,10 L15,0 Z" fill="#8bcaff" class="cell_D"/><g s:x="30" s:y="10" s:pid="Y"/></g><g s:type="outputExt" transform="translate(815,87)" s:width="30" s:height="20" id="cell_Y"><text x="15" y="-4" class="nodelabel cell_Y" s:attribute="ref">Y</text><s:alias val="$_outputExt_"/><path d="M30,0 L30,20 L15,20 L0,10 L15,0 Z" fill="#169300" class="cell_Y"/><g s:x="0" s:y="10" s:pid="A"/></g><line x1="188.66666666666666" x2="209" y1="29.5" y2="29.5" class="net_7 width_1" style="stroke-width: 1"/><line x1="209" x2="209" y1="29.5" y2="89.5" class="net_7 width_1" style="stroke-width: 1"/><circle cx="209" cy="29.5" r="2" style="fill:#000" class="net_7 width_1"/><line x1="209" x2="224" y1="89.5" y2="89.5" class="net_7 width_1" style="stroke-width: 1"/><line x1="188.66666666666666" x2="224" y1="29.5" y2="29.5" class="net_7 width_1" style="stroke-width: 1"/><line x1="108" x2="138" y1="250.5" y2="250.5" class="net_4 width_1" style="stroke-width: 1"/><line x1="138" x2="138" y1="250.5" y2="104.5" class="net_4 width_1" style="stroke-width: 1"/><circle cx="138" cy="250.5" r="2" style="fill:#000" class="net_4 width_1"/><line x1="138" x2="224" y1="104.5" y2="104.5" class="net_4 width_1" style="stroke-width: 1"/><line x1="108" x2="334" y1="250.5" y2="250.5" class="net_4 width_1" style="stroke-width: 1"/><line x1="334" x2="334" y1="250.5" y2="242.5" class="net_4 width_1" style="stroke-width: 1"/><line x1="334" x2="359" y1="242.5" y2="242.5" class="net_4 width_1" style="stroke-width: 1"/><line x1="108" x2="138" y1="250.5" y2="250.5" class="net_4 width_1" style="stroke-width: 1"/><line x1="138" x2="138" y1="250.5" y2="377.5" class="net_4 width_1" style="stroke-width: 1"/><circle cx="138" cy="377.5" r="2" style="fill:#000" class="net_4 width_1"/><line x1="138" x2="490" y1="377.5" y2="377.5" class="net_4 width_1" style="stroke-width: 1"/><line x1="108" x2="138" y1="250.5" y2="250.5" class="net_4 width_1" style="stroke-width: 1"/><line x1="138" x2="138" y1="250.5" y2="520" class="net_4 width_1" style="stroke-width: 1"/><line x1="138" x2="595" y1="520" y2="520" class="net_4 width_1" style="stroke-width: 1"/><line x1="595" x2="595" y1="520" y2="512.5" class="net_4 width_1" style="stroke-width: 1"/><line x1="595" x2="620" y1="512.5" y2="512.5" class="net_4 width_1" style="stroke-width: 1"/><line x1="108" x2="138" y1="250.5" y2="250.5" class="net_4 width_1" style="stroke-width: 1"/><line x1="138" x2="138" y1="250.5" y2="185.5" class="net_4 width_1" style="stroke-width: 1"/><circle cx="138" cy="185.5" r="2" style="fill:#000" class="net_4 width_1"/><line x1="138" x2="158" y1="185.5" y2="185.5" class="net_4 width_1" style="stroke-width: 1"/><line x1="254" x2="294" y1="97" y2="97" class="net_8 width_1" style="stroke-width: 1"/><line x1="254" x2="264" y1="216.5" y2="216.5" class="net_5 width_1" style="stroke-width: 1"/><line x1="264" x2="264" y1="216.5" y2="112" class="net_5 width_1" style="stroke-width: 1"/><circle cx="264" cy="216.5" r="2" style="fill:#000" class="net_5 width_1"/><circle cx="264" cy="112" r="2" style="fill:#000" class="net_5 width_1"/><line x1="264" x2="294" y1="112" y2="112" class="net_5 width_1" style="stroke-width: 1"/><line x1="254" x2="334" y1="216.5" y2="216.5" class="net_5 width_1" style="stroke-width: 1"/><line x1="334" x2="334" y1="216.5" y2="179.5" class="net_5 width_1" style="stroke-width: 1"/><line x1="334" x2="359" y1="179.5" y2="179.5" class="net_5 width_1" style="stroke-width: 1"/><line x1="254" x2="264" y1="216.5" y2="216.5" class="net_5 width_1" style="stroke-width: 1"/><line x1="264" x2="264" y1="216.5" y2="261.5" class="net_5 width_1" style="stroke-width: 1"/><line x1="264" x2="399" y1="261.5" y2="261.5" class="net_5 width_1" style="stroke-width: 1"/><line x1="399" x2="399" y1="261.5" y2="250" class="net_5 width_1" style="stroke-width: 1"/><circle cx="264" cy="261.5" r="2" style="fill:#000" class="net_5 width_1"/><line x1="399" x2="424.6666666666667" y1="250" y2="250" class="net_5 width_1" style="stroke-width: 1"/><line x1="254" x2="264" y1="216.5" y2="216.5" class="net_5 width_1" style="stroke-width: 1"/><line x1="264" x2="264" y1="216.5" y2="52" class="net_5 width_1" style="stroke-width: 1"/><line x1="264" x2="294" y1="52" y2="52" class="net_5 width_1" style="stroke-width: 1"/><line x1="254" x2="264" y1="216.5" y2="216.5" class="net_5 width_1" style="stroke-width: 1"/><line x1="264" x2="264" y1="216.5" y2="466" class="net_5 width_1" style="stroke-width: 1"/><line x1="264" x2="424" y1="466" y2="466" class="net_5 width_1" style="stroke-width: 1"/><line x1="254" x2="294" y1="157" y2="157" class="net_10 width_1" style="stroke-width: 1"/><line x1="254" x2="284" y1="157" y2="157" class="net_10 width_1" style="stroke-width: 1"/><line x1="284" x2="284" y1="157" y2="227.5" class="net_10 width_1" style="stroke-width: 1"/><circle cx="284" cy="157" r="2" style="fill:#000" class="net_10 width_1"/><line x1="284" x2="359" y1="227.5" y2="227.5" class="net_10 width_1" style="stroke-width: 1"/><line x1="186" x2="274" y1="185.5" y2="185.5" class="net_11 width_1" style="stroke-width: 1"/><line x1="274" x2="274" y1="185.5" y2="172" class="net_11 width_1" style="stroke-width: 1"/><line x1="274" x2="294" y1="172" y2="172" class="net_11 width_1" style="stroke-width: 1"/><line x1="186" x2="199" y1="185.5" y2="185.5" class="net_11 width_1" style="stroke-width: 1"/><line x1="199" x2="199" y1="185.5" y2="317.5" class="net_11 width_1" style="stroke-width: 1"/><line x1="199" x2="399" y1="317.5" y2="317.5" class="net_11 width_1" style="stroke-width: 1"/><line x1="399" x2="399" y1="317.5" y2="310" class="net_11 width_1" style="stroke-width: 1"/><circle cx="199" cy="185.5" r="2" style="fill:#000" class="net_11 width_1"/><circle cx="199" cy="317.5" r="2" style="fill:#000" class="net_11 width_1"/><line x1="399" x2="424.6666666666667" y1="310" y2="310" class="net_11 width_1" style="stroke-width: 1"/><line x1="186" x2="199" y1="185.5" y2="185.5" class="net_11 width_1" style="stroke-width: 1"/><line x1="199" x2="199" y1="185.5" y2="445" class="net_11 width_1" style="stroke-width: 1"/><line x1="199" x2="555" y1="445" y2="445" class="net_11 width_1" style="stroke-width: 1"/><line x1="186" x2="199" y1="185.5" y2="185.5" class="net_11 width_1" style="stroke-width: 1"/><line x1="199" x2="199" y1="185.5" y2="44.5" class="net_11 width_1" style="stroke-width: 1"/><line x1="199" x2="224" y1="44.5" y2="44.5" class="net_11 width_1" style="stroke-width: 1"/><line x1="324" x2="359" y1="164.5" y2="164.5" class="net_12 width_1" style="stroke-width: 1"/><line x1="105" x2="148" y1="22" y2="22" class="net_14 width_1" style="stroke-width: 1"/><line x1="148" x2="148" y1="22" y2="149.5" class="net_14 width_1" style="stroke-width: 1"/><circle cx="148" cy="22" r="2" style="fill:#000" class="net_14 width_1"/><line x1="148" x2="224" y1="149.5" y2="149.5" class="net_14 width_1" style="stroke-width: 1"/><line x1="105" x2="158.66666666666666" y1="22" y2="22" class="net_14 width_1" style="stroke-width: 1"/><line x1="42" x2="62" y1="352.5" y2="352.5" class="net_3 width_1" style="stroke-width: 1"/><line x1="62" x2="62" y1="352.5" y2="164.5" class="net_3 width_1" style="stroke-width: 1"/><circle cx="62" cy="352.5" r="2" style="fill:#000" class="net_3 width_1"/><line x1="62" x2="224" y1="164.5" y2="164.5" class="net_3 width_1" style="stroke-width: 1"/><line x1="42" x2="62" y1="352.5" y2="352.5" class="net_3 width_1" style="stroke-width: 1"/><line x1="62" x2="62" y1="352.5" y2="505" class="net_3 width_1" style="stroke-width: 1"/><line x1="62" x2="490" y1="505" y2="505" class="net_3 width_1" style="stroke-width: 1"/><line x1="42" x2="62" y1="352.5" y2="352.5" class="net_3 width_1" style="stroke-width: 1"/><line x1="62" x2="62" y1="352.5" y2="185.5" class="net_3 width_1" style="stroke-width: 1"/><circle cx="62" cy="185.5" r="2" style="fill:#000" class="net_3 width_1"/><line x1="62" x2="77" y1="185.5" y2="185.5" class="net_3 width_1" style="stroke-width: 1"/><line x1="389" x2="424.6666666666667" y1="235" y2="235" class="net_15 width_1" style="stroke-width: 1"/><line x1="389" x2="424.6666666666667" y1="295" y2="295" class="net_17 width_1" style="stroke-width: 1"/><line x1="389" x2="409" y1="295" y2="295" class="net_17 width_1" style="stroke-width: 1"/><line x1="409" x2="409" y1="295" y2="362.5" class="net_17 width_1" style="stroke-width: 1"/><circle cx="409" cy="295" r="2" style="fill:#000" class="net_17 width_1"/><line x1="409" x2="490" y1="362.5" y2="362.5" class="net_17 width_1" style="stroke-width: 1"/><line x1="454.6666666666667" x2="490" y1="302.5" y2="302.5" class="net_18 width_1" style="stroke-width: 1"/><line x1="452" x2="465" y1="466" y2="466" class="net_19 width_1" style="stroke-width: 1"/><line x1="465" x2="465" y1="466" y2="317.5" class="net_19 width_1" style="stroke-width: 1"/><circle cx="465" cy="466" r="2" style="fill:#000" class="net_19 width_1"/><line x1="465" x2="490" y1="317.5" y2="317.5" class="net_19 width_1" style="stroke-width: 1"/><line x1="452" x2="465" y1="466" y2="466" class="net_19 width_1" style="stroke-width: 1"/><line x1="465" x2="465" y1="466" y2="392.5" class="net_19 width_1" style="stroke-width: 1"/><line x1="465" x2="530" y1="392.5" y2="392.5" class="net_19 width_1" style="stroke-width: 1"/><line x1="530" x2="530" y1="392.5" y2="385" class="net_19 width_1" style="stroke-width: 1"/><circle cx="465" cy="392.5" r="2" style="fill:#000" class="net_19 width_1"/><line x1="530" x2="555" y1="385" y2="385" class="net_19 width_1" style="stroke-width: 1"/><line x1="452" x2="595" y1="466" y2="466" class="net_19 width_1" style="stroke-width: 1"/><line x1="595" x2="595" y1="466" y2="452.5" class="net_19 width_1" style="stroke-width: 1"/><line x1="595" x2="620" y1="452.5" y2="452.5" class="net_19 width_1" style="stroke-width: 1"/><line x1="452" x2="465" y1="466" y2="466" class="net_19 width_1" style="stroke-width: 1"/><line x1="465" x2="465" y1="466" y2="531" class="net_19 width_1" style="stroke-width: 1"/><line x1="465" x2="660" y1="531" y2="531" class="net_19 width_1" style="stroke-width: 1"/><line x1="660" x2="660" y1="531" y2="520" class="net_19 width_1" style="stroke-width: 1"/><line x1="660" x2="685" y1="520" y2="520" class="net_19 width_1" style="stroke-width: 1"/><line x1="42" x2="359" y1="287.5" y2="287.5" class="net_2 width_1" style="stroke-width: 1"/><line x1="42" x2="118" y1="287.5" y2="287.5" class="net_2 width_1" style="stroke-width: 1"/><line x1="118" x2="118" y1="287.5" y2="490" class="net_2 width_1" style="stroke-width: 1"/><circle cx="118" cy="287.5" r="2" style="fill:#000" class="net_2 width_1"/><line x1="118" x2="490" y1="490" y2="490" class="net_2 width_1" style="stroke-width: 1"/><line x1="42" x2="52" y1="287.5" y2="287.5" class="net_2 width_1" style="stroke-width: 1"/><line x1="52" x2="52" y1="287.5" y2="22" class="net_2 width_1" style="stroke-width: 1"/><circle cx="52" cy="287.5" r="2" style="fill:#000" class="net_2 width_1"/><line x1="52" x2="77" y1="22" y2="22" class="net_2 width_1" style="stroke-width: 1"/><line x1="105" x2="128" y1="185.5" y2="185.5" class="net_21 width_1" style="stroke-width: 1"/><line x1="128" x2="128" y1="185.5" y2="302.5" class="net_21 width_1" style="stroke-width: 1"/><circle cx="128" cy="185.5" r="2" style="fill:#000" class="net_21 width_1"/><line x1="128" x2="359" y1="302.5" y2="302.5" class="net_21 width_1" style="stroke-width: 1"/><line x1="105" x2="128" y1="185.5" y2="185.5" class="net_21 width_1" style="stroke-width: 1"/><line x1="128" x2="128" y1="185.5" y2="37" class="net_21 width_1" style="stroke-width: 1"/><line x1="128" x2="158.66666666666666" y1="37" y2="37" class="net_21 width_1" style="stroke-width: 1"/><line x1="520" x2="555" y1="370" y2="370" class="net_22 width_1" style="stroke-width: 1"/><line x1="520" x2="530" y1="497.5" y2="497.5" class="net_24 width_1" style="stroke-width: 1"/><line x1="530" x2="530" y1="497.5" y2="430" class="net_24 width_1" style="stroke-width: 1"/><circle cx="530" cy="497.5" r="2" style="fill:#000" class="net_24 width_1"/><line x1="530" x2="555" y1="430" y2="430" class="net_24 width_1" style="stroke-width: 1"/><line x1="520" x2="620" y1="497.5" y2="497.5" class="net_24 width_1" style="stroke-width: 1"/><line x1="585" x2="620" y1="437.5" y2="437.5" class="net_25 width_1" style="stroke-width: 1"/><line x1="650" x2="685" y1="505" y2="505" class="net_27 width_1" style="stroke-width: 1"/><line x1="254" x2="294" y1="37" y2="37" class="net_29 width_1" style="stroke-width: 1"/><line x1="324" x2="361" y1="44.5" y2="44.5" class="net_30 width_1" style="stroke-width: 1"/><line x1="324" x2="334" y1="104.5" y2="104.5" class="net_9 width_1" style="stroke-width: 1"/><line x1="334" x2="334" y1="104.5" y2="59.5" class="net_9 width_1" style="stroke-width: 1"/><line x1="334" x2="361" y1="59.5" y2="59.5" class="net_9 width_1" style="stroke-width: 1"/><line x1="389" x2="426.6666666666667" y1="52" y2="52" class="net_31 width_1" style="stroke-width: 1"/><line x1="389" x2="399" y1="172" y2="172" class="net_13 width_1" style="stroke-width: 1"/><line x1="399" x2="399" y1="172" y2="67" class="net_13 width_1" style="stroke-width: 1"/><line x1="399" x2="426.6666666666667" y1="67" y2="67" class="net_13 width_1" style="stroke-width: 1"/><line x1="454.6666666666667" x2="492" y1="59.5" y2="59.5" class="net_32 width_1" style="stroke-width: 1"/><line x1="454.6666666666667" x2="465" y1="242.5" y2="242.5" class="net_16 width_1" style="stroke-width: 1"/><line x1="465" x2="465" y1="242.5" y2="74.5" class="net_16 width_1" style="stroke-width: 1"/><line x1="465" x2="492" y1="74.5" y2="74.5" class="net_16 width_1" style="stroke-width: 1"/><line x1="520" x2="557" y1="67" y2="67" class="net_33 width_1" style="stroke-width: 1"/><line x1="520" x2="530" y1="310" y2="310" class="net_20 width_1" style="stroke-width: 1"/><line x1="530" x2="530" y1="310" y2="82" class="net_20 width_1" style="stroke-width: 1"/><line x1="530" x2="557" y1="82" y2="82" class="net_20 width_1" style="stroke-width: 1"/><line x1="585" x2="622" y1="74.5" y2="74.5" class="net_34 width_1" style="stroke-width: 1"/><line x1="585" x2="595" y1="377.5" y2="377.5" class="net_23 width_1" style="stroke-width: 1"/><line x1="595" x2="595" y1="377.5" y2="89.5" class="net_23 width_1" style="stroke-width: 1"/><line x1="595" x2="622" y1="89.5" y2="89.5" class="net_23 width_1" style="stroke-width: 1"/><line x1="650" x2="687" y1="82" y2="82" class="net_35 width_1" style="stroke-width: 1"/><line x1="650" x2="660" y1="445" y2="445" class="net_26 width_1" style="stroke-width: 1"/><line x1="660" x2="660" y1="445" y2="97" class="net_26 width_1" style="stroke-width: 1"/><line x1="660" x2="687" y1="97" y2="97" class="net_26 width_1" style="stroke-width: 1"/><line x1="715" x2="752" y1="89.5" y2="89.5" class="net_36 width_1" style="stroke-width: 1"/><line x1="715" x2="725" y1="512.5" y2="512.5" class="net_28 width_1" style="stroke-width: 1"/><line x1="725" x2="725" y1="512.5" y2="104.5" class="net_28 width_1" style="stroke-width: 1"/><line x1="725" x2="752" y1="104.5" y2="104.5" class="net_28 width_1" style="stroke-width: 1"/><line x1="780" x2="815" y1="97" y2="97" class="net_6 width_1" style="stroke-width: 1"/></svg>