<svg xmlns="http://www.w3.org/2000/svg" xmlns:xlink="http://www.w3.org/1999/xlink" xmlns:s="https://github.com/nturley/netlistsvg" width="427" height="205"><style>svg {
  stroke:#000;
  fill:none;
}
text {
  fill:#000;
  stroke:none;
  font-size:10px;
  font-weight: bold;
  font-family: "Courier New", monospace;
}
line {
    stroke-linecap: round;
}
.nodelabel {
  text-anchor: middle;
}
.inputPortLabel {
  text-anchor: end;
}
.splitjoinBody {
  fill:#000;
}</style><g s:type="add" transform="translate(324,155.5)" s:width="25" s:height="25" id="cell_$add$ejercicio_22.v:7$8"><s:alias val="$add"/><circle r="12.5" cx="12.5" cy="12.5" fill="#ffc9c3" class="cell_$add$ejercicio_22.v:7$8"/><line x1="7.5" x2="17.5" y1="12.5" y2="12.5" class="cell_$add$ejercicio_22.v:7$8"/><line x1="12.5" x2="12.5" y1="7.5" y2="17.5" class="cell_$add$ejercicio_22.v:7$8"/><g s:x="2" s:y="5" s:pid="A"/><g s:x="2" s:y="20" s:pid="B"/><g s:x="26" s:y="12.5" s:pid="Y"/></g><g s:type="and" transform="translate(259,33)" s:width="30" s:height="25" id="cell_$and$ejercicio_22.v:7$3"><s:alias val="$and"/><s:alias val="$logic_and"/><s:alias val="$_AND_"/><path d="M0,0 L0,25 L15,25 A15 12.5 0 0 0 15,0 Z" fill="#eebaff" class="cell_$and$ejercicio_22.v:7$3"/><g s:x="0" s:y="5" s:pid="A"/><g s:x="0" s:y="20" s:pid="B"/><g s:x="30" s:y="12.5" s:pid="Y"/></g><g s:type="and" transform="translate(193.66666666666666,98)" s:width="30" s:height="25" id="cell_$and$ejercicio_22.v:7$5"><s:alias val="$and"/><s:alias val="$logic_and"/><s:alias val="$_AND_"/><path d="M0,0 L0,25 L15,25 A15 12.5 0 0 0 15,0 Z" fill="#eebaff" class="cell_$and$ejercicio_22.v:7$5"/><g s:x="0" s:y="5" s:pid="A"/><g s:x="0" s:y="20" s:pid="B"/><g s:x="30" s:y="12.5" s:pid="Y"/></g><g s:type="and" transform="translate(259,163)" s:width="30" s:height="25" id="cell_$and$ejercicio_22.v:7$7"><s:alias val="$and"/><s:alias val="$logic_and"/><s:alias val="$_AND_"/><path d="M0,0 L0,25 L15,25 A15 12.5 0 0 0 15,0 Z" fill="#eebaff" class="cell_$and$ejercicio_22.v:7$7"/><g s:x="0" s:y="5" s:pid="A"/><g s:x="0" s:y="20" s:pid="B"/><g s:x="30" s:y="12.5" s:pid="Y"/></g><g s:type="not" transform="translate(194,43)" s:width="30" s:height="20" id="cell_$logic_not$ejercicio_22.v:7$2"><s:alias val="$_NOT_"/><s:alias val="$not"/><s:alias val="$logic_not"/><path d="M0,0 L0,20 L20,10 Z" fill="#eebaff" class="cell_$logic_not$ejercicio_22.v:7$2"/><circle cx="24" cy="10" r="3" fill="#eebaff" class="cell_$logic_not$ejercicio_22.v:7$2"/><g s:x="-1" s:y="10" s:pid="A"/><g s:x="27" s:y="10" s:pid="Y"/></g><g s:type="not" transform="translate(128,22)" s:width="30" s:height="20" id="cell_$logic_not$ejercicio_22.v:7$4"><s:alias val="$_NOT_"/><s:alias val="$not"/><s:alias val="$logic_not"/><path d="M0,0 L0,20 L20,10 Z" fill="#eebaff" class="cell_$logic_not$ejercicio_22.v:7$4"/><circle cx="24" cy="10" r="3" fill="#eebaff" class="cell_$logic_not$ejercicio_22.v:7$4"/><g s:x="-1" s:y="10" s:pid="A"/><g s:x="27" s:y="10" s:pid="Y"/></g><g s:type="not" transform="translate(194,173)" s:width="30" s:height="20" id="cell_$logic_not$ejercicio_22.v:7$6"><s:alias val="$_NOT_"/><s:alias val="$not"/><s:alias val="$logic_not"/><path d="M0,0 L0,20 L20,10 Z" fill="#eebaff" class="cell_$logic_not$ejercicio_22.v:7$6"/><circle cx="24" cy="10" r="3" fill="#eebaff" class="cell_$logic_not$ejercicio_22.v:7$6"/><g s:x="-1" s:y="10" s:pid="A"/><g s:x="27" s:y="10" s:pid="Y"/></g><g s:type="inputExt" transform="translate(62,22)" s:width="30" s:height="20" id="cell_A"><text x="15" y="-4" class="nodelabel cell_A" s:attribute="ref">A</text><s:alias val="$_inputExt_"/><path d="M0,0 L0,20 L15,20 L30,10 L15,0 Z" fill="#8bcaff" class="cell_A"/><g s:x="30" s:y="10" s:pid="Y"/></g><g s:type="inputExt" transform="translate(128,108)" s:width="30" s:height="20" id="cell_B"><text x="15" y="-4" class="nodelabel cell_B" s:attribute="ref">B</text><s:alias val="$_inputExt_"/><path d="M0,0 L0,20 L15,20 L30,10 L15,0 Z" fill="#8bcaff" class="cell_B"/><g s:x="30" s:y="10" s:pid="Y"/></g><g s:type="inputExt" transform="translate(128,173)" s:width="30" s:height="20" id="cell_C"><text x="15" y="-4" class="nodelabel cell_C" s:attribute="ref">C</text><s:alias val="$_inputExt_"/><path d="M0,0 L0,20 L15,20 L30,10 L15,0 Z" fill="#8bcaff" class="cell_C"/><g s:x="30" s:y="10" s:pid="Y"/></g><g s:type="outputExt" transform="translate(385,158)" s:width="30" s:height="20" id="cell_X"><text x="15" y="-4" class="nodelabel cell_X" s:attribute="ref">X</text><s:alias val="$_outputExt_"/><path d="M30,0 L30,20 L15,20 L0,10 L15,0 Z" fill="#169300" class="cell_X"/><g s:x="0" s:y="10" s:pid="A"/></g><g s:type="outputExt" transform="translate(12,22)" s:width="30" s:height="20" id="cell_Y"><text x="15" y="-4" class="nodelabel cell_Y" s:attribute="ref">Y</text><s:alias val="$_outputExt_"/><path d="M30,0 L30,20 L15,20 L0,10 L15,0 Z" fill="#169300" class="cell_Y"/><g s:x="0" s:y="10" s:pid="A"/></g><line x1="289" x2="299" y1="45.5" y2="45.5" class="net_7 width_1" style="stroke-width: 1"/><line x1="299" x2="299" y1="45.5" y2="160.5" class="net_7 width_1" style="stroke-width: 1"/><line x1="299" x2="326" y1="160.5" y2="160.5" class="net_7 width_1" style="stroke-width: 1"/><line x1="289" x2="326" y1="175.5" y2="175.5" class="net_8 width_1" style="stroke-width: 1"/><line x1="155" x2="234" y1="32" y2="32" class="net_9 width_1" style="stroke-width: 1"/><line x1="234" x2="234" y1="32" y2="38" class="net_9 width_1" style="stroke-width: 1"/><line x1="234" x2="259" y1="38" y2="38" class="net_9 width_1" style="stroke-width: 1"/><line x1="155" x2="178" y1="32" y2="32" class="net_9 width_1" style="stroke-width: 1"/><line x1="178" x2="178" y1="32" y2="103" class="net_9 width_1" style="stroke-width: 1"/><circle cx="178" cy="32" r="2" style="fill:#000" class="net_9 width_1"/><line x1="178" x2="193.66666666666666" y1="103" y2="103" class="net_9 width_1" style="stroke-width: 1"/><line x1="221" x2="259" y1="53" y2="53" class="net_10 width_1" style="stroke-width: 1"/><line x1="158" x2="193.66666666666666" y1="118" y2="118" class="net_3 width_1" style="stroke-width: 1"/><line x1="158" x2="168" y1="118" y2="118" class="net_3 width_1" style="stroke-width: 1"/><line x1="168" x2="168" y1="118" y2="53" class="net_3 width_1" style="stroke-width: 1"/><circle cx="168" cy="118" r="2" style="fill:#000" class="net_3 width_1"/><line x1="168" x2="193" y1="53" y2="53" class="net_3 width_1" style="stroke-width: 1"/><line x1="223.66666666666666" x2="234" y1="110.5" y2="110.5" class="net_11 width_1" style="stroke-width: 1"/><line x1="234" x2="234" y1="110.5" y2="168" class="net_11 width_1" style="stroke-width: 1"/><line x1="234" x2="259" y1="168" y2="168" class="net_11 width_1" style="stroke-width: 1"/><line x1="221" x2="259" y1="183" y2="183" class="net_12 width_1" style="stroke-width: 1"/><line x1="92" x2="127" y1="32" y2="32" class="net_2 width_1" style="stroke-width: 1"/><line x1="158" x2="193" y1="183" y2="183" class="net_4 width_1" style="stroke-width: 1"/><line x1="350" x2="385" y1="168" y2="168" class="net_5 width_1" style="stroke-width: 1"/></svg>