<svg xmlns="http://www.w3.org/2000/svg" xmlns:xlink="http://www.w3.org/1999/xlink" xmlns:s="https://github.com/nturley/netlistsvg" width="843" height="484"><style>svg {
  stroke:#000;
  fill:none;
}
text {
  fill:#000;
  stroke:none;
  font-size:10px;
  font-weight: bold;
  font-family: "Courier New", monospace;
}
line {
    stroke-linecap: round;
}
.nodelabel {
  text-anchor: middle;
}
.inputPortLabel {
  text-anchor: end;
}
.splitjoinBody {
  fill:#000;
}</style><g s:type="add" transform="translate(351.6666666666667,49.5)" s:width="25" s:height="25" id="cell_$add$ejercicio_14.v:6$14"><s:alias val="$add"/><circle r="12.5" cx="12.5" cy="12.5" fill="#ffc9c3" class="cell_$add$ejercicio_14.v:6$14"/><line x1="7.5" x2="17.5" y1="12.5" y2="12.5" class="cell_$add$ejercicio_14.v:6$14"/><line x1="12.5" x2="12.5" y1="7.5" y2="17.5" class="cell_$add$ejercicio_14.v:6$14"/><g s:x="2" s:y="5" s:pid="A"/><g s:x="2" s:y="20" s:pid="B"/><g s:x="26" s:y="12.5" s:pid="Y"/></g><g s:type="add" transform="translate(416.6666666666667,57)" s:width="25" s:height="25" id="cell_$add$ejercicio_14.v:6$20"><s:alias val="$add"/><circle r="12.5" cx="12.5" cy="12.5" fill="#ffc9c3" class="cell_$add$ejercicio_14.v:6$20"/><line x1="7.5" x2="17.5" y1="12.5" y2="12.5" class="cell_$add$ejercicio_14.v:6$20"/><line x1="12.5" x2="12.5" y1="7.5" y2="17.5" class="cell_$add$ejercicio_14.v:6$20"/><g s:x="2" s:y="5" s:pid="A"/><g s:x="2" s:y="20" s:pid="B"/><g s:x="26" s:y="12.5" s:pid="Y"/></g><g s:type="add" transform="translate(481.6666666666667,64.5)" s:width="25" s:height="25" id="cell_$add$ejercicio_14.v:6$27"><s:alias val="$add"/><circle r="12.5" cx="12.5" cy="12.5" fill="#ffc9c3" class="cell_$add$ejercicio_14.v:6$27"/><line x1="7.5" x2="17.5" y1="12.5" y2="12.5" class="cell_$add$ejercicio_14.v:6$27"/><line x1="12.5" x2="12.5" y1="7.5" y2="17.5" class="cell_$add$ejercicio_14.v:6$27"/><g s:x="2" s:y="5" s:pid="A"/><g s:x="2" s:y="20" s:pid="B"/><g s:x="26" s:y="12.5" s:pid="Y"/></g><g s:type="add" transform="translate(546.6666666666666,72)" s:width="25" s:height="25" id="cell_$add$ejercicio_14.v:6$33"><s:alias val="$add"/><circle r="12.5" cx="12.5" cy="12.5" fill="#ffc9c3" class="cell_$add$ejercicio_14.v:6$33"/><line x1="7.5" x2="17.5" y1="12.5" y2="12.5" class="cell_$add$ejercicio_14.v:6$33"/><line x1="12.5" x2="12.5" y1="7.5" y2="17.5" class="cell_$add$ejercicio_14.v:6$33"/><g s:x="2" s:y="5" s:pid="A"/><g s:x="2" s:y="20" s:pid="B"/><g s:x="26" s:y="12.5" s:pid="Y"/></g><g s:type="add" transform="translate(611.6666666666666,79.5)" s:width="25" s:height="25" id="cell_$add$ejercicio_14.v:6$39"><s:alias val="$add"/><circle r="12.5" cx="12.5" cy="12.5" fill="#ffc9c3" class="cell_$add$ejercicio_14.v:6$39"/><line x1="7.5" x2="17.5" y1="12.5" y2="12.5" class="cell_$add$ejercicio_14.v:6$39"/><line x1="12.5" x2="12.5" y1="7.5" y2="17.5" class="cell_$add$ejercicio_14.v:6$39"/><g s:x="2" s:y="5" s:pid="A"/><g s:x="2" s:y="20" s:pid="B"/><g s:x="26" s:y="12.5" s:pid="Y"/></g><g s:type="add" transform="translate(676.6666666666666,87)" s:width="25" s:height="25" id="cell_$add$ejercicio_14.v:6$45"><s:alias val="$add"/><circle r="12.5" cx="12.5" cy="12.5" fill="#ffc9c3" class="cell_$add$ejercicio_14.v:6$45"/><line x1="7.5" x2="17.5" y1="12.5" y2="12.5" class="cell_$add$ejercicio_14.v:6$45"/><line x1="12.5" x2="12.5" y1="7.5" y2="17.5" class="cell_$add$ejercicio_14.v:6$45"/><g s:x="2" s:y="5" s:pid="A"/><g s:x="2" s:y="20" s:pid="B"/><g s:x="26" s:y="12.5" s:pid="Y"/></g><g s:type="add" transform="translate(740,94.5)" s:width="25" s:height="25" id="cell_$add$ejercicio_14.v:6$50"><s:alias val="$add"/><circle r="12.5" cx="12.5" cy="12.5" fill="#ffc9c3" class="cell_$add$ejercicio_14.v:6$50"/><line x1="7.5" x2="17.5" y1="12.5" y2="12.5" class="cell_$add$ejercicio_14.v:6$50"/><line x1="12.5" x2="12.5" y1="7.5" y2="17.5" class="cell_$add$ejercicio_14.v:6$50"/><g s:x="2" s:y="5" s:pid="A"/><g s:x="2" s:y="20" s:pid="B"/><g s:x="26" s:y="12.5" s:pid="Y"/></g><g s:type="and" transform="translate(285,102)" s:width="30" s:height="25" id="cell_$and$ejercicio_14.v:6$13"><s:alias val="$and"/><s:alias val="$logic_and"/><s:alias val="$_AND_"/><path d="M0,0 L0,25 L15,25 A15 12.5 0 0 0 15,0 Z" fill="#eebaff" class="cell_$and$ejercicio_14.v:6$13"/><g s:x="0" s:y="5" s:pid="A"/><g s:x="0" s:y="20" s:pid="B"/><g s:x="30" s:y="12.5" s:pid="Y"/></g><g s:type="and" transform="translate(148.66666666666666,27)" s:width="30" s:height="25" id="cell_$and$ejercicio_14.v:6$17"><s:alias val="$and"/><s:alias val="$logic_and"/><s:alias val="$_AND_"/><path d="M0,0 L0,25 L15,25 A15 12.5 0 0 0 15,0 Z" fill="#eebaff" class="cell_$and$ejercicio_14.v:6$17"/><g s:x="0" s:y="5" s:pid="A"/><g s:x="0" s:y="20" s:pid="B"/><g s:x="30" s:y="12.5" s:pid="Y"/></g><g s:type="and" transform="translate(219.66666666666666,94.5)" s:width="30" s:height="25" id="cell_$and$ejercicio_14.v:6$18"><s:alias val="$and"/><s:alias val="$logic_and"/><s:alias val="$_AND_"/><path d="M0,0 L0,25 L15,25 A15 12.5 0 0 0 15,0 Z" fill="#eebaff" class="cell_$and$ejercicio_14.v:6$18"/><g s:x="0" s:y="5" s:pid="A"/><g s:x="0" s:y="20" s:pid="B"/><g s:x="30" s:y="12.5" s:pid="Y"/></g><g s:type="and" transform="translate(350,132)" s:width="30" s:height="25" id="cell_$and$ejercicio_14.v:6$19"><s:alias val="$and"/><s:alias val="$logic_and"/><s:alias val="$_AND_"/><path d="M0,0 L0,25 L15,25 A15 12.5 0 0 0 15,0 Z" fill="#eebaff" class="cell_$and$ejercicio_14.v:6$19"/><g s:x="0" s:y="5" s:pid="A"/><g s:x="0" s:y="20" s:pid="B"/><g s:x="30" s:y="12.5" s:pid="Y"/></g><g s:type="and" transform="translate(350,192)" s:width="30" s:height="25" id="cell_$and$ejercicio_14.v:6$24"><s:alias val="$and"/><s:alias val="$logic_and"/><s:alias val="$_AND_"/><path d="M0,0 L0,25 L15,25 A15 12.5 0 0 0 15,0 Z" fill="#eebaff" class="cell_$and$ejercicio_14.v:6$24"/><g s:x="0" s:y="5" s:pid="A"/><g s:x="0" s:y="20" s:pid="B"/><g s:x="30" s:y="12.5" s:pid="Y"/></g><g s:type="and" transform="translate(415,199.5)" s:width="30" s:height="25" id="cell_$and$ejercicio_14.v:6$26"><s:alias val="$and"/><s:alias val="$logic_and"/><s:alias val="$_AND_"/><path d="M0,0 L0,25 L15,25 A15 12.5 0 0 0 15,0 Z" fill="#eebaff" class="cell_$and$ejercicio_14.v:6$26"/><g s:x="0" s:y="5" s:pid="A"/><g s:x="0" s:y="20" s:pid="B"/><g s:x="30" s:y="12.5" s:pid="Y"/></g><g s:type="and" transform="translate(285,227)" s:width="30" s:height="25" id="cell_$and$ejercicio_14.v:6$29"><s:alias val="$and"/><s:alias val="$logic_and"/><s:alias val="$_AND_"/><path d="M0,0 L0,25 L15,25 A15 12.5 0 0 0 15,0 Z" fill="#eebaff" class="cell_$and$ejercicio_14.v:6$29"/><g s:x="0" s:y="5" s:pid="A"/><g s:x="0" s:y="20" s:pid="B"/><g s:x="30" s:y="12.5" s:pid="Y"/></g><g s:type="and" transform="translate(415,270)" s:width="30" s:height="25" id="cell_$and$ejercicio_14.v:6$30"><s:alias val="$and"/><s:alias val="$logic_and"/><s:alias val="$_AND_"/><path d="M0,0 L0,25 L15,25 A15 12.5 0 0 0 15,0 Z" fill="#eebaff" class="cell_$and$ejercicio_14.v:6$30"/><g s:x="0" s:y="5" s:pid="A"/><g s:x="0" s:y="20" s:pid="B"/><g s:x="30" s:y="12.5" s:pid="Y"/></g><g s:type="and" transform="translate(480,277.5)" s:width="30" s:height="25" id="cell_$and$ejercicio_14.v:6$32"><s:alias val="$and"/><s:alias val="$logic_and"/><s:alias val="$_AND_"/><path d="M0,0 L0,25 L15,25 A15 12.5 0 0 0 15,0 Z" fill="#eebaff" class="cell_$and$ejercicio_14.v:6$32"/><g s:x="0" s:y="5" s:pid="A"/><g s:x="0" s:y="20" s:pid="B"/><g s:x="30" s:y="12.5" s:pid="Y"/></g><g s:type="and" transform="translate(415,368.5)" s:width="30" s:height="25" id="cell_$and$ejercicio_14.v:6$35"><s:alias val="$and"/><s:alias val="$logic_and"/><s:alias val="$_AND_"/><path d="M0,0 L0,25 L15,25 A15 12.5 0 0 0 15,0 Z" fill="#eebaff" class="cell_$and$ejercicio_14.v:6$35"/><g s:x="0" s:y="5" s:pid="A"/><g s:x="0" s:y="20" s:pid="B"/><g s:x="30" s:y="12.5" s:pid="Y"/></g><g s:type="and" transform="translate(480,337.5)" s:width="30" s:height="25" id="cell_$and$ejercicio_14.v:6$37"><s:alias val="$and"/><s:alias val="$logic_and"/><s:alias val="$_AND_"/><path d="M0,0 L0,25 L15,25 A15 12.5 0 0 0 15,0 Z" fill="#eebaff" class="cell_$and$ejercicio_14.v:6$37"/><g s:x="0" s:y="5" s:pid="A"/><g s:x="0" s:y="20" s:pid="B"/><g s:x="30" s:y="12.5" s:pid="Y"/></g><g s:type="and" transform="translate(545,345)" s:width="30" s:height="25" id="cell_$and$ejercicio_14.v:6$38"><s:alias val="$and"/><s:alias val="$logic_and"/><s:alias val="$_AND_"/><path d="M0,0 L0,25 L15,25 A15 12.5 0 0 0 15,0 Z" fill="#eebaff" class="cell_$and$ejercicio_14.v:6$38"/><g s:x="0" s:y="5" s:pid="A"/><g s:x="0" s:y="20" s:pid="B"/><g s:x="30" s:y="12.5" s:pid="Y"/></g><g s:type="and" transform="translate(545,409.5)" s:width="30" s:height="25" id="cell_$and$ejercicio_14.v:6$42"><s:alias val="$and"/><s:alias val="$logic_and"/><s:alias val="$_AND_"/><path d="M0,0 L0,25 L15,25 A15 12.5 0 0 0 15,0 Z" fill="#eebaff" class="cell_$and$ejercicio_14.v:6$42"/><g s:x="0" s:y="5" s:pid="A"/><g s:x="0" s:y="20" s:pid="B"/><g s:x="30" s:y="12.5" s:pid="Y"/></g><g s:type="and" transform="translate(610,417)" s:width="30" s:height="25" id="cell_$and$ejercicio_14.v:6$44"><s:alias val="$and"/><s:alias val="$logic_and"/><s:alias val="$_AND_"/><path d="M0,0 L0,25 L15,25 A15 12.5 0 0 0 15,0 Z" fill="#eebaff" class="cell_$and$ejercicio_14.v:6$44"/><g s:x="0" s:y="5" s:pid="A"/><g s:x="0" s:y="20" s:pid="B"/><g s:x="30" s:y="12.5" s:pid="Y"/></g><g s:type="and" transform="translate(675,447)" s:width="30" s:height="25" id="cell_$and$ejercicio_14.v:6$49"><s:alias val="$and"/><s:alias val="$logic_and"/><s:alias val="$_AND_"/><path d="M0,0 L0,25 L15,25 A15 12.5 0 0 0 15,0 Z" fill="#eebaff" class="cell_$and$ejercicio_14.v:6$49"/><g s:x="0" s:y="5" s:pid="A"/><g s:x="0" s:y="20" s:pid="B"/><g s:x="30" s:y="12.5" s:pid="Y"/></g><g s:type="and" transform="translate(219.66666666666666,34.5)" s:width="30" s:height="25" id="cell_$and$ejercicio_14.v:6$5"><s:alias val="$and"/><s:alias val="$logic_and"/><s:alias val="$_AND_"/><path d="M0,0 L0,25 L15,25 A15 12.5 0 0 0 15,0 Z" fill="#eebaff" class="cell_$and$ejercicio_14.v:6$5"/><g s:x="0" s:y="5" s:pid="A"/><g s:x="0" s:y="20" s:pid="B"/><g s:x="30" s:y="12.5" s:pid="Y"/></g><g s:type="and" transform="translate(285,42)" s:width="30" s:height="25" id="cell_$and$ejercicio_14.v:6$7"><s:alias val="$and"/><s:alias val="$logic_and"/><s:alias val="$_AND_"/><path d="M0,0 L0,25 L15,25 A15 12.5 0 0 0 15,0 Z" fill="#eebaff" class="cell_$and$ejercicio_14.v:6$7"/><g s:x="0" s:y="5" s:pid="A"/><g s:x="0" s:y="20" s:pid="B"/><g s:x="30" s:y="12.5" s:pid="Y"/></g><g s:type="not" transform="translate(78,22)" s:width="30" s:height="20" id="cell_$logic_not$ejercicio_14.v:6$28"><s:alias val="$_NOT_"/><s:alias val="$not"/><s:alias val="$logic_not"/><path d="M0,0 L0,20 L20,10 Z" fill="#eebaff" class="cell_$logic_not$ejercicio_14.v:6$28"/><circle cx="24" cy="10" r="3" fill="#eebaff" class="cell_$logic_not$ejercicio_14.v:6$28"/><g s:x="-1" s:y="10" s:pid="A"/><g s:x="27" s:y="10" s:pid="Y"/></g><g s:type="not" transform="translate(149,202)" s:width="30" s:height="20" id="cell_$logic_not$ejercicio_14.v:6$36"><s:alias val="$_NOT_"/><s:alias val="$not"/><s:alias val="$logic_not"/><path d="M0,0 L0,20 L20,10 Z" fill="#eebaff" class="cell_$logic_not$ejercicio_14.v:6$36"/><circle cx="24" cy="10" r="3" fill="#eebaff" class="cell_$logic_not$ejercicio_14.v:6$36"/><g s:x="-1" s:y="10" s:pid="A"/><g s:x="27" s:y="10" s:pid="Y"/></g><g s:type="not" transform="translate(220,254)" s:width="30" s:height="20" id="cell_$logic_not$ejercicio_14.v:6$43"><s:alias val="$_NOT_"/><s:alias val="$not"/><s:alias val="$logic_not"/><path d="M0,0 L0,20 L20,10 Z" fill="#eebaff" class="cell_$logic_not$ejercicio_14.v:6$43"/><circle cx="24" cy="10" r="3" fill="#eebaff" class="cell_$logic_not$ejercicio_14.v:6$43"/><g s:x="-1" s:y="10" s:pid="A"/><g s:x="27" s:y="10" s:pid="Y"/></g><g s:type="not" transform="translate(78,87)" s:width="30" s:height="20" id="cell_$logic_not$ejercicio_14.v:6$46"><s:alias val="$_NOT_"/><s:alias val="$not"/><s:alias val="$logic_not"/><path d="M0,0 L0,20 L20,10 Z" fill="#eebaff" class="cell_$logic_not$ejercicio_14.v:6$46"/><circle cx="24" cy="10" r="3" fill="#eebaff" class="cell_$logic_not$ejercicio_14.v:6$46"/><g s:x="-1" s:y="10" s:pid="A"/><g s:x="27" s:y="10" s:pid="Y"/></g><g s:type="inputExt" transform="translate(12,22)" s:width="30" s:height="20" id="cell_A"><text x="15" y="-4" class="nodelabel cell_A" s:attribute="ref">A</text><s:alias val="$_inputExt_"/><path d="M0,0 L0,20 L15,20 L30,10 L15,0 Z" fill="#8bcaff" class="cell_A"/><g s:x="30" s:y="10" s:pid="Y"/></g><g s:type="inputExt" transform="translate(12,87)" s:width="30" s:height="20" id="cell_B"><text x="15" y="-4" class="nodelabel cell_B" s:attribute="ref">B</text><s:alias val="$_inputExt_"/><path d="M0,0 L0,20 L15,20 L30,10 L15,0 Z" fill="#8bcaff" class="cell_B"/><g s:x="30" s:y="10" s:pid="Y"/></g><g s:type="inputExt" transform="translate(78,280)" s:width="30" s:height="20" id="cell_C"><text x="15" y="-4" class="nodelabel cell_C" s:attribute="ref">C</text><s:alias val="$_inputExt_"/><path d="M0,0 L0,20 L15,20 L30,10 L15,0 Z" fill="#8bcaff" class="cell_C"/><g s:x="30" s:y="10" s:pid="Y"/></g><g s:type="inputExt" transform="translate(149,311)" s:width="30" s:height="20" id="cell_D"><text x="15" y="-4" class="nodelabel cell_D" s:attribute="ref">D</text><s:alias val="$_inputExt_"/><path d="M0,0 L0,20 L15,20 L30,10 L15,0 Z" fill="#8bcaff" class="cell_D"/><g s:x="30" s:y="10" s:pid="Y"/></g><g s:type="outputExt" transform="translate(801,97)" s:width="30" s:height="20" id="cell_Y"><text x="15" y="-4" class="nodelabel cell_Y" s:attribute="ref">Y</text><s:alias val="$_outputExt_"/><path d="M30,0 L30,20 L15,20 L0,10 L15,0 Z" fill="#169300" class="cell_Y"/><g s:x="0" s:y="10" s:pid="A"/></g><line x1="315" x2="353.6666666666667" y1="54.5" y2="54.5" class="net_7 width_1" style="stroke-width: 1"/><line x1="315" x2="325" y1="114.5" y2="114.5" class="net_8 width_1" style="stroke-width: 1"/><line x1="325" x2="325" y1="114.5" y2="69.5" class="net_8 width_1" style="stroke-width: 1"/><line x1="325" x2="353.6666666666667" y1="69.5" y2="69.5" class="net_8 width_1" style="stroke-width: 1"/><line x1="377.6666666666667" x2="418.6666666666667" y1="62" y2="62" class="net_9 width_1" style="stroke-width: 1"/><line x1="380" x2="390" y1="144.5" y2="144.5" class="net_10 width_1" style="stroke-width: 1"/><line x1="390" x2="390" y1="144.5" y2="77" class="net_10 width_1" style="stroke-width: 1"/><line x1="390" x2="418.6666666666667" y1="77" y2="77" class="net_10 width_1" style="stroke-width: 1"/><line x1="442.6666666666667" x2="483.6666666666667" y1="69.5" y2="69.5" class="net_11 width_1" style="stroke-width: 1"/><line x1="445" x2="455" y1="212" y2="212" class="net_12 width_1" style="stroke-width: 1"/><line x1="455" x2="455" y1="212" y2="84.5" class="net_12 width_1" style="stroke-width: 1"/><line x1="455" x2="483.6666666666667" y1="84.5" y2="84.5" class="net_12 width_1" style="stroke-width: 1"/><line x1="507.6666666666667" x2="548.6666666666666" y1="77" y2="77" class="net_13 width_1" style="stroke-width: 1"/><line x1="510" x2="520" y1="290" y2="290" class="net_14 width_1" style="stroke-width: 1"/><line x1="520" x2="520" y1="290" y2="92" class="net_14 width_1" style="stroke-width: 1"/><line x1="520" x2="548.6666666666666" y1="92" y2="92" class="net_14 width_1" style="stroke-width: 1"/><line x1="572.6666666666666" x2="613.6666666666666" y1="84.5" y2="84.5" class="net_15 width_1" style="stroke-width: 1"/><line x1="575" x2="585" y1="357.5" y2="357.5" class="net_16 width_1" style="stroke-width: 1"/><line x1="585" x2="585" y1="357.5" y2="99.5" class="net_16 width_1" style="stroke-width: 1"/><line x1="585" x2="613.6666666666666" y1="99.5" y2="99.5" class="net_16 width_1" style="stroke-width: 1"/><line x1="637.6666666666666" x2="678.6666666666666" y1="92" y2="92" class="net_17 width_1" style="stroke-width: 1"/><line x1="640" x2="650" y1="429.5" y2="429.5" class="net_18 width_1" style="stroke-width: 1"/><line x1="650" x2="650" y1="429.5" y2="107" class="net_18 width_1" style="stroke-width: 1"/><line x1="650" x2="678.6666666666666" y1="107" y2="107" class="net_18 width_1" style="stroke-width: 1"/><line x1="702.6666666666666" x2="742" y1="99.5" y2="99.5" class="net_19 width_1" style="stroke-width: 1"/><line x1="705" x2="715" y1="459.5" y2="459.5" class="net_20 width_1" style="stroke-width: 1"/><line x1="715" x2="715" y1="459.5" y2="114.5" class="net_20 width_1" style="stroke-width: 1"/><line x1="715" x2="742" y1="114.5" y2="114.5" class="net_20 width_1" style="stroke-width: 1"/><line x1="249.66666666666666" x2="285" y1="107" y2="107" class="net_21 width_1" style="stroke-width: 1"/><line x1="249.66666666666666" x2="270" y1="107" y2="107" class="net_21 width_1" style="stroke-width: 1"/><line x1="270" x2="270" y1="107" y2="137" class="net_21 width_1" style="stroke-width: 1"/><circle cx="270" cy="107" r="2" style="fill:#000" class="net_21 width_1"/><line x1="270" x2="350" y1="137" y2="137" class="net_21 width_1" style="stroke-width: 1"/><line x1="247" x2="260" y1="264" y2="264" class="net_22 width_1" style="stroke-width: 1"/><line x1="260" x2="260" y1="264" y2="122" class="net_22 width_1" style="stroke-width: 1"/><circle cx="260" cy="264" r="2" style="fill:#000" class="net_22 width_1"/><circle cx="260" cy="122" r="2" style="fill:#000" class="net_22 width_1"/><line x1="260" x2="285" y1="122" y2="122" class="net_22 width_1" style="stroke-width: 1"/><line x1="247" x2="390" y1="264" y2="264" class="net_22 width_1" style="stroke-width: 1"/><line x1="390" x2="390" y1="264" y2="219.5" class="net_22 width_1" style="stroke-width: 1"/><line x1="390" x2="415" y1="219.5" y2="219.5" class="net_22 width_1" style="stroke-width: 1"/><line x1="247" x2="260" y1="264" y2="264" class="net_22 width_1" style="stroke-width: 1"/><line x1="260" x2="260" y1="264" y2="305" class="net_22 width_1" style="stroke-width: 1"/><line x1="260" x2="455" y1="305" y2="305" class="net_22 width_1" style="stroke-width: 1"/><line x1="455" x2="455" y1="305" y2="297.5" class="net_22 width_1" style="stroke-width: 1"/><circle cx="260" cy="305" r="2" style="fill:#000" class="net_22 width_1"/><line x1="455" x2="480" y1="297.5" y2="297.5" class="net_22 width_1" style="stroke-width: 1"/><line x1="247" x2="260" y1="264" y2="264" class="net_22 width_1" style="stroke-width: 1"/><line x1="260" x2="260" y1="264" y2="444.5" class="net_22 width_1" style="stroke-width: 1"/><line x1="260" x2="585" y1="444.5" y2="444.5" class="net_22 width_1" style="stroke-width: 1"/><line x1="585" x2="585" y1="444.5" y2="437" class="net_22 width_1" style="stroke-width: 1"/><line x1="585" x2="610" y1="437" y2="437" class="net_22 width_1" style="stroke-width: 1"/><line x1="247" x2="260" y1="264" y2="264" class="net_22 width_1" style="stroke-width: 1"/><line x1="260" x2="260" y1="264" y2="62" class="net_22 width_1" style="stroke-width: 1"/><line x1="260" x2="285" y1="62" y2="62" class="net_22 width_1" style="stroke-width: 1"/><line x1="105" x2="148.66666666666666" y1="32" y2="32" class="net_23 width_1" style="stroke-width: 1"/><line x1="105" x2="128" y1="32" y2="32" class="net_23 width_1" style="stroke-width: 1"/><line x1="128" x2="128" y1="32" y2="232" class="net_23 width_1" style="stroke-width: 1"/><circle cx="128" cy="32" r="2" style="fill:#000" class="net_23 width_1"/><line x1="128" x2="285" y1="232" y2="232" class="net_23 width_1" style="stroke-width: 1"/><line x1="105" x2="118" y1="97" y2="97" class="net_24 width_1" style="stroke-width: 1"/><line x1="118" x2="118" y1="97" y2="47" class="net_24 width_1" style="stroke-width: 1"/><circle cx="118" cy="97" r="2" style="fill:#000" class="net_24 width_1"/><line x1="118" x2="148.66666666666666" y1="47" y2="47" class="net_24 width_1" style="stroke-width: 1"/><line x1="105" x2="118" y1="97" y2="97" class="net_24 width_1" style="stroke-width: 1"/><line x1="118" x2="118" y1="97" y2="384.5" class="net_24 width_1" style="stroke-width: 1"/><line x1="118" x2="390" y1="384.5" y2="384.5" class="net_24 width_1" style="stroke-width: 1"/><line x1="390" x2="390" y1="384.5" y2="388.5" class="net_24 width_1" style="stroke-width: 1"/><line x1="390" x2="415" y1="388.5" y2="388.5" class="net_24 width_1" style="stroke-width: 1"/><line x1="178.66666666666666" x2="209" y1="39.5" y2="39.5" class="net_25 width_1" style="stroke-width: 1"/><line x1="209" x2="209" y1="39.5" y2="99.5" class="net_25 width_1" style="stroke-width: 1"/><circle cx="209" cy="39.5" r="2" style="fill:#000" class="net_25 width_1"/><line x1="209" x2="219.66666666666666" y1="99.5" y2="99.5" class="net_25 width_1" style="stroke-width: 1"/><line x1="178.66666666666666" x2="219.66666666666666" y1="39.5" y2="39.5" class="net_25 width_1" style="stroke-width: 1"/><line x1="108" x2="138" y1="290" y2="290" class="net_4 width_1" style="stroke-width: 1"/><line x1="138" x2="138" y1="290" y2="114.5" class="net_4 width_1" style="stroke-width: 1"/><circle cx="138" cy="290" r="2" style="fill:#000" class="net_4 width_1"/><line x1="138" x2="219.66666666666666" y1="114.5" y2="114.5" class="net_4 width_1" style="stroke-width: 1"/><line x1="108" x2="415" y1="290" y2="290" class="net_4 width_1" style="stroke-width: 1"/><line x1="108" x2="138" y1="290" y2="290" class="net_4 width_1" style="stroke-width: 1"/><line x1="138" x2="138" y1="290" y2="425.5" class="net_4 width_1" style="stroke-width: 1"/><line x1="138" x2="520" y1="425.5" y2="425.5" class="net_4 width_1" style="stroke-width: 1"/><line x1="520" x2="520" y1="425.5" y2="429.5" class="net_4 width_1" style="stroke-width: 1"/><line x1="520" x2="545" y1="429.5" y2="429.5" class="net_4 width_1" style="stroke-width: 1"/><line x1="108" x2="138" y1="290" y2="290" class="net_4 width_1" style="stroke-width: 1"/><line x1="138" x2="138" y1="290" y2="212" class="net_4 width_1" style="stroke-width: 1"/><circle cx="138" cy="212" r="2" style="fill:#000" class="net_4 width_1"/><line x1="138" x2="148" y1="212" y2="212" class="net_4 width_1" style="stroke-width: 1"/><line x1="179" x2="189" y1="321" y2="321" class="net_5 width_1" style="stroke-width: 1"/><line x1="189" x2="189" y1="321" y2="152" class="net_5 width_1" style="stroke-width: 1"/><circle cx="189" cy="321" r="2" style="fill:#000" class="net_5 width_1"/><line x1="189" x2="350" y1="152" y2="152" class="net_5 width_1" style="stroke-width: 1"/><line x1="179" x2="189" y1="321" y2="321" class="net_5 width_1" style="stroke-width: 1"/><line x1="189" x2="189" y1="321" y2="403.5" class="net_5 width_1" style="stroke-width: 1"/><line x1="189" x2="520" y1="403.5" y2="403.5" class="net_5 width_1" style="stroke-width: 1"/><line x1="520" x2="520" y1="403.5" y2="365" class="net_5 width_1" style="stroke-width: 1"/><circle cx="189" cy="403.5" r="2" style="fill:#000" class="net_5 width_1"/><line x1="520" x2="545" y1="365" y2="365" class="net_5 width_1" style="stroke-width: 1"/><line x1="179" x2="189" y1="321" y2="321" class="net_5 width_1" style="stroke-width: 1"/><line x1="189" x2="189" y1="321" y2="463" class="net_5 width_1" style="stroke-width: 1"/><line x1="189" x2="650" y1="463" y2="463" class="net_5 width_1" style="stroke-width: 1"/><line x1="650" x2="650" y1="463" y2="467" class="net_5 width_1" style="stroke-width: 1"/><line x1="650" x2="675" y1="467" y2="467" class="net_5 width_1" style="stroke-width: 1"/><line x1="179" x2="189" y1="321" y2="321" class="net_5 width_1" style="stroke-width: 1"/><line x1="189" x2="189" y1="321" y2="264" class="net_5 width_1" style="stroke-width: 1"/><circle cx="189" cy="264" r="2" style="fill:#000" class="net_5 width_1"/><line x1="189" x2="219" y1="264" y2="264" class="net_5 width_1" style="stroke-width: 1"/><line x1="315" x2="325" y1="239.5" y2="239.5" class="net_26 width_1" style="stroke-width: 1"/><line x1="325" x2="325" y1="239.5" y2="197" class="net_26 width_1" style="stroke-width: 1"/><circle cx="325" cy="239.5" r="2" style="fill:#000" class="net_26 width_1"/><line x1="325" x2="350" y1="197" y2="197" class="net_26 width_1" style="stroke-width: 1"/><line x1="315" x2="325" y1="239.5" y2="239.5" class="net_26 width_1" style="stroke-width: 1"/><line x1="325" x2="325" y1="239.5" y2="275" class="net_26 width_1" style="stroke-width: 1"/><line x1="325" x2="415" y1="275" y2="275" class="net_26 width_1" style="stroke-width: 1"/><line x1="176" x2="350" y1="212" y2="212" class="net_27 width_1" style="stroke-width: 1"/><line x1="176" x2="199" y1="212" y2="212" class="net_27 width_1" style="stroke-width: 1"/><line x1="199" x2="199" y1="212" y2="357.5" class="net_27 width_1" style="stroke-width: 1"/><circle cx="199" cy="212" r="2" style="fill:#000" class="net_27 width_1"/><line x1="199" x2="480" y1="357.5" y2="357.5" class="net_27 width_1" style="stroke-width: 1"/><line x1="176" x2="199" y1="212" y2="212" class="net_27 width_1" style="stroke-width: 1"/><line x1="199" x2="199" y1="212" y2="54.5" class="net_27 width_1" style="stroke-width: 1"/><line x1="199" x2="219.66666666666666" y1="54.5" y2="54.5" class="net_27 width_1" style="stroke-width: 1"/><line x1="380" x2="415" y1="204.5" y2="204.5" class="net_28 width_1" style="stroke-width: 1"/><line x1="42" x2="62" y1="97" y2="97" class="net_3 width_1" style="stroke-width: 1"/><line x1="62" x2="62" y1="97" y2="243" class="net_3 width_1" style="stroke-width: 1"/><line x1="62" x2="270" y1="243" y2="243" class="net_3 width_1" style="stroke-width: 1"/><line x1="270" x2="270" y1="243" y2="247" class="net_3 width_1" style="stroke-width: 1"/><circle cx="62" cy="97" r="2" style="fill:#000" class="net_3 width_1"/><line x1="270" x2="285" y1="247" y2="247" class="net_3 width_1" style="stroke-width: 1"/><line x1="42" x2="77" y1="97" y2="97" class="net_3 width_1" style="stroke-width: 1"/><line x1="445" x2="480" y1="282.5" y2="282.5" class="net_29 width_1" style="stroke-width: 1"/><line x1="42" x2="52" y1="32" y2="32" class="net_2 width_1" style="stroke-width: 1"/><line x1="52" x2="52" y1="32" y2="373.5" class="net_2 width_1" style="stroke-width: 1"/><circle cx="52" cy="32" r="2" style="fill:#000" class="net_2 width_1"/><line x1="52" x2="415" y1="373.5" y2="373.5" class="net_2 width_1" style="stroke-width: 1"/><line x1="42" x2="77" y1="32" y2="32" class="net_2 width_1" style="stroke-width: 1"/><line x1="445" x2="455" y1="381" y2="381" class="net_30 width_1" style="stroke-width: 1"/><line x1="455" x2="455" y1="381" y2="342.5" class="net_30 width_1" style="stroke-width: 1"/><circle cx="455" cy="381" r="2" style="fill:#000" class="net_30 width_1"/><line x1="455" x2="480" y1="342.5" y2="342.5" class="net_30 width_1" style="stroke-width: 1"/><line x1="445" x2="455" y1="381" y2="381" class="net_30 width_1" style="stroke-width: 1"/><line x1="455" x2="455" y1="381" y2="414.5" class="net_30 width_1" style="stroke-width: 1"/><line x1="455" x2="545" y1="414.5" y2="414.5" class="net_30 width_1" style="stroke-width: 1"/><line x1="510" x2="545" y1="350" y2="350" class="net_31 width_1" style="stroke-width: 1"/><line x1="575" x2="610" y1="422" y2="422" class="net_32 width_1" style="stroke-width: 1"/><line x1="575" x2="595" y1="422" y2="422" class="net_32 width_1" style="stroke-width: 1"/><line x1="595" x2="595" y1="422" y2="452" class="net_32 width_1" style="stroke-width: 1"/><circle cx="595" cy="422" r="2" style="fill:#000" class="net_32 width_1"/><line x1="595" x2="675" y1="452" y2="452" class="net_32 width_1" style="stroke-width: 1"/><line x1="249.66666666666666" x2="285" y1="47" y2="47" class="net_33 width_1" style="stroke-width: 1"/><line x1="766" x2="801" y1="107" y2="107" class="net_6 width_1" style="stroke-width: 1"/></svg>