<svg xmlns="http://www.w3.org/2000/svg" xmlns:xlink="http://www.w3.org/1999/xlink" xmlns:s="https://github.com/nturley/netlistsvg" width="642" height="367.5"><style>svg {
  stroke:#000;
  fill:none;
}
text {
  fill:#000;
  stroke:none;
  font-size:10px;
  font-weight: bold;
  font-family: "Courier New", monospace;
}
line {
    stroke-linecap: round;
}
.nodelabel {
  text-anchor: middle;
}
.inputPortLabel {
  text-anchor: end;
}
.splitjoinBody {
  fill:#000;
}</style><g s:type="add" transform="translate(280.6666666666667,42)" s:width="25" s:height="25" id="cell_$add$ejercicio_13.v:6$10"><s:alias val="$add"/><circle r="12.5" cx="12.5" cy="12.5" fill="#ffc9c3" class="cell_$add$ejercicio_13.v:6$10"/><line x1="7.5" x2="17.5" y1="12.5" y2="12.5" class="cell_$add$ejercicio_13.v:6$10"/><line x1="12.5" x2="12.5" y1="7.5" y2="17.5" class="cell_$add$ejercicio_13.v:6$10"/><g s:x="2" s:y="5" s:pid="A"/><g s:x="2" s:y="20" s:pid="B"/><g s:x="26" s:y="12.5" s:pid="Y"/></g><g s:type="add" transform="translate(345.6666666666667,49.5)" s:width="25" s:height="25" id="cell_$add$ejercicio_13.v:6$15"><s:alias val="$add"/><circle r="12.5" cx="12.5" cy="12.5" fill="#ffc9c3" class="cell_$add$ejercicio_13.v:6$15"/><line x1="7.5" x2="17.5" y1="12.5" y2="12.5" class="cell_$add$ejercicio_13.v:6$15"/><line x1="12.5" x2="12.5" y1="7.5" y2="17.5" class="cell_$add$ejercicio_13.v:6$15"/><g s:x="2" s:y="5" s:pid="A"/><g s:x="2" s:y="20" s:pid="B"/><g s:x="26" s:y="12.5" s:pid="Y"/></g><g s:type="add" transform="translate(410.6666666666667,57)" s:width="25" s:height="25" id="cell_$add$ejercicio_13.v:6$19"><s:alias val="$add"/><circle r="12.5" cx="12.5" cy="12.5" fill="#ffc9c3" class="cell_$add$ejercicio_13.v:6$19"/><line x1="7.5" x2="17.5" y1="12.5" y2="12.5" class="cell_$add$ejercicio_13.v:6$19"/><line x1="12.5" x2="12.5" y1="7.5" y2="17.5" class="cell_$add$ejercicio_13.v:6$19"/><g s:x="2" s:y="5" s:pid="A"/><g s:x="2" s:y="20" s:pid="B"/><g s:x="26" s:y="12.5" s:pid="Y"/></g><g s:type="add" transform="translate(475.6666666666667,64.5)" s:width="25" s:height="25" id="cell_$add$ejercicio_13.v:6$24"><s:alias val="$add"/><circle r="12.5" cx="12.5" cy="12.5" fill="#ffc9c3" class="cell_$add$ejercicio_13.v:6$24"/><line x1="7.5" x2="17.5" y1="12.5" y2="12.5" class="cell_$add$ejercicio_13.v:6$24"/><line x1="12.5" x2="12.5" y1="7.5" y2="17.5" class="cell_$add$ejercicio_13.v:6$24"/><g s:x="2" s:y="5" s:pid="A"/><g s:x="2" s:y="20" s:pid="B"/><g s:x="26" s:y="12.5" s:pid="Y"/></g><g s:type="add" transform="translate(539,72)" s:width="25" s:height="25" id="cell_$add$ejercicio_13.v:6$28"><s:alias val="$add"/><circle r="12.5" cx="12.5" cy="12.5" fill="#ffc9c3" class="cell_$add$ejercicio_13.v:6$28"/><line x1="7.5" x2="17.5" y1="12.5" y2="12.5" class="cell_$add$ejercicio_13.v:6$28"/><line x1="12.5" x2="12.5" y1="7.5" y2="17.5" class="cell_$add$ejercicio_13.v:6$28"/><g s:x="2" s:y="5" s:pid="A"/><g s:x="2" s:y="20" s:pid="B"/><g s:x="26" s:y="12.5" s:pid="Y"/></g><g s:type="and" transform="translate(279,162)" s:width="30" s:height="25" id="cell_$and$ejercicio_13.v:6$14"><s:alias val="$and"/><s:alias val="$logic_and"/><s:alias val="$_AND_"/><path d="M0,0 L0,25 L15,25 A15 12.5 0 0 0 15,0 Z" fill="#eebaff" class="cell_$and$ejercicio_13.v:6$14"/><g s:x="0" s:y="5" s:pid="A"/><g s:x="0" s:y="20" s:pid="B"/><g s:x="30" s:y="12.5" s:pid="Y"/></g><g s:type="and" transform="translate(214,154.5)" s:width="30" s:height="25" id="cell_$and$ejercicio_13.v:6$17"><s:alias val="$and"/><s:alias val="$logic_and"/><s:alias val="$_AND_"/><path d="M0,0 L0,25 L15,25 A15 12.5 0 0 0 15,0 Z" fill="#eebaff" class="cell_$and$ejercicio_13.v:6$17"/><g s:x="0" s:y="5" s:pid="A"/><g s:x="0" s:y="20" s:pid="B"/><g s:x="30" s:y="12.5" s:pid="Y"/></g><g s:type="and" transform="translate(344,192)" s:width="30" s:height="25" id="cell_$and$ejercicio_13.v:6$18"><s:alias val="$and"/><s:alias val="$logic_and"/><s:alias val="$_AND_"/><path d="M0,0 L0,25 L15,25 A15 12.5 0 0 0 15,0 Z" fill="#eebaff" class="cell_$and$ejercicio_13.v:6$18"/><g s:x="0" s:y="5" s:pid="A"/><g s:x="0" s:y="20" s:pid="B"/><g s:x="30" s:y="12.5" s:pid="Y"/></g><g s:type="and" transform="translate(344,252)" s:width="30" s:height="25" id="cell_$and$ejercicio_13.v:6$21"><s:alias val="$and"/><s:alias val="$logic_and"/><s:alias val="$_AND_"/><path d="M0,0 L0,25 L15,25 A15 12.5 0 0 0 15,0 Z" fill="#eebaff" class="cell_$and$ejercicio_13.v:6$21"/><g s:x="0" s:y="5" s:pid="A"/><g s:x="0" s:y="20" s:pid="B"/><g s:x="30" s:y="12.5" s:pid="Y"/></g><g s:type="and" transform="translate(409,259.5)" s:width="30" s:height="25" id="cell_$and$ejercicio_13.v:6$23"><s:alias val="$and"/><s:alias val="$logic_and"/><s:alias val="$_AND_"/><path d="M0,0 L0,25 L15,25 A15 12.5 0 0 0 15,0 Z" fill="#eebaff" class="cell_$and$ejercicio_13.v:6$23"/><g s:x="0" s:y="5" s:pid="A"/><g s:x="0" s:y="20" s:pid="B"/><g s:x="30" s:y="12.5" s:pid="Y"/></g><g s:type="and" transform="translate(409,319.5)" s:width="30" s:height="25" id="cell_$and$ejercicio_13.v:6$25"><s:alias val="$and"/><s:alias val="$logic_and"/><s:alias val="$_AND_"/><path d="M0,0 L0,25 L15,25 A15 12.5 0 0 0 15,0 Z" fill="#eebaff" class="cell_$and$ejercicio_13.v:6$25"/><g s:x="0" s:y="5" s:pid="A"/><g s:x="0" s:y="20" s:pid="B"/><g s:x="30" s:y="12.5" s:pid="Y"/></g><g s:type="and" transform="translate(474,327)" s:width="30" s:height="25" id="cell_$and$ejercicio_13.v:6$27"><s:alias val="$and"/><s:alias val="$logic_and"/><s:alias val="$_AND_"/><path d="M0,0 L0,25 L15,25 A15 12.5 0 0 0 15,0 Z" fill="#eebaff" class="cell_$and$ejercicio_13.v:6$27"/><g s:x="0" s:y="5" s:pid="A"/><g s:x="0" s:y="20" s:pid="B"/><g s:x="30" s:y="12.5" s:pid="Y"/></g><g s:type="and" transform="translate(214,34.5)" s:width="30" s:height="25" id="cell_$and$ejercicio_13.v:6$5"><s:alias val="$and"/><s:alias val="$logic_and"/><s:alias val="$_AND_"/><path d="M0,0 L0,25 L15,25 A15 12.5 0 0 0 15,0 Z" fill="#eebaff" class="cell_$and$ejercicio_13.v:6$5"/><g s:x="0" s:y="5" s:pid="A"/><g s:x="0" s:y="20" s:pid="B"/><g s:x="30" s:y="12.5" s:pid="Y"/></g><g s:type="and" transform="translate(148.66666666666666,27)" s:width="30" s:height="25" id="cell_$and$ejercicio_13.v:6$8"><s:alias val="$and"/><s:alias val="$logic_and"/><s:alias val="$_AND_"/><path d="M0,0 L0,25 L15,25 A15 12.5 0 0 0 15,0 Z" fill="#eebaff" class="cell_$and$ejercicio_13.v:6$8"/><g s:x="0" s:y="5" s:pid="A"/><g s:x="0" s:y="20" s:pid="B"/><g s:x="30" s:y="12.5" s:pid="Y"/></g><g s:type="and" transform="translate(214,94.5)" s:width="30" s:height="25" id="cell_$and$ejercicio_13.v:6$9"><s:alias val="$and"/><s:alias val="$logic_and"/><s:alias val="$_AND_"/><path d="M0,0 L0,25 L15,25 A15 12.5 0 0 0 15,0 Z" fill="#eebaff" class="cell_$and$ejercicio_13.v:6$9"/><g s:x="0" s:y="5" s:pid="A"/><g s:x="0" s:y="20" s:pid="B"/><g s:x="30" s:y="12.5" s:pid="Y"/></g><g s:type="not" transform="translate(78,22)" s:width="30" s:height="20" id="cell_$logic_not$ejercicio_13.v:6$16"><s:alias val="$_NOT_"/><s:alias val="$not"/><s:alias val="$logic_not"/><path d="M0,0 L0,20 L20,10 Z" fill="#eebaff" class="cell_$logic_not$ejercicio_13.v:6$16"/><circle cx="24" cy="10" r="3" fill="#eebaff" class="cell_$logic_not$ejercicio_13.v:6$16"/><g s:x="-1" s:y="10" s:pid="A"/><g s:x="27" s:y="10" s:pid="Y"/></g><g s:type="not" transform="translate(78,268)" s:width="30" s:height="20" id="cell_$logic_not$ejercicio_13.v:6$20"><s:alias val="$_NOT_"/><s:alias val="$not"/><s:alias val="$logic_not"/><path d="M0,0 L0,20 L20,10 Z" fill="#eebaff" class="cell_$logic_not$ejercicio_13.v:6$20"/><circle cx="24" cy="10" r="3" fill="#eebaff" class="cell_$logic_not$ejercicio_13.v:6$20"/><g s:x="-1" s:y="10" s:pid="A"/><g s:x="27" s:y="10" s:pid="Y"/></g><g s:type="not" transform="translate(149,223)" s:width="30" s:height="20" id="cell_$logic_not$ejercicio_13.v:6$26"><s:alias val="$_NOT_"/><s:alias val="$not"/><s:alias val="$logic_not"/><path d="M0,0 L0,20 L20,10 Z" fill="#eebaff" class="cell_$logic_not$ejercicio_13.v:6$26"/><circle cx="24" cy="10" r="3" fill="#eebaff" class="cell_$logic_not$ejercicio_13.v:6$26"/><g s:x="-1" s:y="10" s:pid="A"/><g s:x="27" s:y="10" s:pid="Y"/></g><g s:type="inputExt" transform="translate(12,22)" s:width="30" s:height="20" id="cell_A"><text x="15" y="-4" class="nodelabel cell_A" s:attribute="ref">A</text><s:alias val="$_inputExt_"/><path d="M0,0 L0,20 L15,20 L30,10 L15,0 Z" fill="#8bcaff" class="cell_A"/><g s:x="30" s:y="10" s:pid="Y"/></g><g s:type="inputExt" transform="translate(12,164.5)" s:width="30" s:height="20" id="cell_B"><text x="15" y="-4" class="nodelabel cell_B" s:attribute="ref">B</text><s:alias val="$_inputExt_"/><path d="M0,0 L0,20 L15,20 L30,10 L15,0 Z" fill="#8bcaff" class="cell_B"/><g s:x="30" s:y="10" s:pid="Y"/></g><g s:type="inputExt" transform="translate(78,202)" s:width="30" s:height="20" id="cell_C"><text x="15" y="-4" class="nodelabel cell_C" s:attribute="ref">C</text><s:alias val="$_inputExt_"/><path d="M0,0 L0,20 L15,20 L30,10 L15,0 Z" fill="#8bcaff" class="cell_C"/><g s:x="30" s:y="10" s:pid="Y"/></g><g s:type="outputExt" transform="translate(600,74.5)" s:width="30" s:height="20" id="cell_Y"><text x="15" y="-4" class="nodelabel cell_Y" s:attribute="ref">Y</text><s:alias val="$_outputExt_"/><path d="M30,0 L30,20 L15,20 L0,10 L15,0 Z" fill="#169300" class="cell_Y"/><g s:x="0" s:y="10" s:pid="A"/></g><line x1="244" x2="282.6666666666667" y1="47" y2="47" class="net_6 width_1" style="stroke-width: 1"/><line x1="244" x2="254" y1="107" y2="107" class="net_7 width_1" style="stroke-width: 1"/><line x1="254" x2="254" y1="107" y2="62" class="net_7 width_1" style="stroke-width: 1"/><line x1="254" x2="282.6666666666667" y1="62" y2="62" class="net_7 width_1" style="stroke-width: 1"/><line x1="306.6666666666667" x2="347.6666666666667" y1="54.5" y2="54.5" class="net_8 width_1" style="stroke-width: 1"/><line x1="309" x2="319" y1="174.5" y2="174.5" class="net_9 width_1" style="stroke-width: 1"/><line x1="319" x2="319" y1="174.5" y2="69.5" class="net_9 width_1" style="stroke-width: 1"/><line x1="319" x2="347.6666666666667" y1="69.5" y2="69.5" class="net_9 width_1" style="stroke-width: 1"/><line x1="371.6666666666667" x2="412.6666666666667" y1="62" y2="62" class="net_10 width_1" style="stroke-width: 1"/><line x1="374" x2="384" y1="204.5" y2="204.5" class="net_11 width_1" style="stroke-width: 1"/><line x1="384" x2="384" y1="204.5" y2="77" class="net_11 width_1" style="stroke-width: 1"/><line x1="384" x2="412.6666666666667" y1="77" y2="77" class="net_11 width_1" style="stroke-width: 1"/><line x1="436.6666666666667" x2="477.6666666666667" y1="69.5" y2="69.5" class="net_12 width_1" style="stroke-width: 1"/><line x1="439" x2="449" y1="272" y2="272" class="net_13 width_1" style="stroke-width: 1"/><line x1="449" x2="449" y1="272" y2="84.5" class="net_13 width_1" style="stroke-width: 1"/><line x1="449" x2="477.6666666666667" y1="84.5" y2="84.5" class="net_13 width_1" style="stroke-width: 1"/><line x1="501.6666666666667" x2="541" y1="77" y2="77" class="net_14 width_1" style="stroke-width: 1"/><line x1="504" x2="514" y1="339.5" y2="339.5" class="net_15 width_1" style="stroke-width: 1"/><line x1="514" x2="514" y1="339.5" y2="92" class="net_15 width_1" style="stroke-width: 1"/><line x1="514" x2="541" y1="92" y2="92" class="net_15 width_1" style="stroke-width: 1"/><line x1="244" x2="279" y1="167" y2="167" class="net_16 width_1" style="stroke-width: 1"/><line x1="244" x2="264" y1="167" y2="167" class="net_16 width_1" style="stroke-width: 1"/><line x1="264" x2="264" y1="167" y2="197" class="net_16 width_1" style="stroke-width: 1"/><circle cx="264" cy="167" r="2" style="fill:#000" class="net_16 width_1"/><line x1="264" x2="344" y1="197" y2="197" class="net_16 width_1" style="stroke-width: 1"/><line x1="176" x2="189" y1="233" y2="233" class="net_17 width_1" style="stroke-width: 1"/><line x1="189" x2="189" y1="233" y2="189.5" class="net_17 width_1" style="stroke-width: 1"/><line x1="189" x2="254" y1="189.5" y2="189.5" class="net_17 width_1" style="stroke-width: 1"/><line x1="254" x2="254" y1="189.5" y2="182" class="net_17 width_1" style="stroke-width: 1"/><circle cx="189" cy="233" r="2" style="fill:#000" class="net_17 width_1"/><circle cx="189" cy="189.5" r="2" style="fill:#000" class="net_17 width_1"/><line x1="254" x2="279" y1="182" y2="182" class="net_17 width_1" style="stroke-width: 1"/><line x1="176" x2="189" y1="233" y2="233" class="net_17 width_1" style="stroke-width: 1"/><line x1="189" x2="189" y1="233" y2="289" class="net_17 width_1" style="stroke-width: 1"/><line x1="189" x2="384" y1="289" y2="289" class="net_17 width_1" style="stroke-width: 1"/><line x1="384" x2="384" y1="289" y2="279.5" class="net_17 width_1" style="stroke-width: 1"/><circle cx="189" cy="289" r="2" style="fill:#000" class="net_17 width_1"/><line x1="384" x2="409" y1="279.5" y2="279.5" class="net_17 width_1" style="stroke-width: 1"/><line x1="176" x2="189" y1="233" y2="233" class="net_17 width_1" style="stroke-width: 1"/><line x1="189" x2="189" y1="233" y2="354.5" class="net_17 width_1" style="stroke-width: 1"/><line x1="189" x2="449" y1="354.5" y2="354.5" class="net_17 width_1" style="stroke-width: 1"/><line x1="449" x2="449" y1="354.5" y2="347" class="net_17 width_1" style="stroke-width: 1"/><line x1="449" x2="474" y1="347" y2="347" class="net_17 width_1" style="stroke-width: 1"/><line x1="176" x2="189" y1="233" y2="233" class="net_17 width_1" style="stroke-width: 1"/><line x1="189" x2="189" y1="233" y2="54.5" class="net_17 width_1" style="stroke-width: 1"/><line x1="189" x2="214" y1="54.5" y2="54.5" class="net_17 width_1" style="stroke-width: 1"/><line x1="105" x2="138" y1="32" y2="32" class="net_18 width_1" style="stroke-width: 1"/><line x1="138" x2="138" y1="32" y2="159.5" class="net_18 width_1" style="stroke-width: 1"/><circle cx="138" cy="32" r="2" style="fill:#000" class="net_18 width_1"/><line x1="138" x2="214" y1="159.5" y2="159.5" class="net_18 width_1" style="stroke-width: 1"/><line x1="105" x2="148.66666666666666" y1="32" y2="32" class="net_18 width_1" style="stroke-width: 1"/><line x1="42" x2="214" y1="174.5" y2="174.5" class="net_3 width_1" style="stroke-width: 1"/><line x1="42" x2="52" y1="174.5" y2="174.5" class="net_3 width_1" style="stroke-width: 1"/><line x1="52" x2="52" y1="174.5" y2="335.5" class="net_3 width_1" style="stroke-width: 1"/><line x1="52" x2="384" y1="335.5" y2="335.5" class="net_3 width_1" style="stroke-width: 1"/><line x1="384" x2="384" y1="335.5" y2="339.5" class="net_3 width_1" style="stroke-width: 1"/><circle cx="52" cy="174.5" r="2" style="fill:#000" class="net_3 width_1"/><line x1="384" x2="409" y1="339.5" y2="339.5" class="net_3 width_1" style="stroke-width: 1"/><line x1="42" x2="52" y1="174.5" y2="174.5" class="net_3 width_1" style="stroke-width: 1"/><line x1="52" x2="52" y1="174.5" y2="278" class="net_3 width_1" style="stroke-width: 1"/><circle cx="52" cy="278" r="2" style="fill:#000" class="net_3 width_1"/><line x1="52" x2="77" y1="278" y2="278" class="net_3 width_1" style="stroke-width: 1"/><line x1="108" x2="344" y1="212" y2="212" class="net_4 width_1" style="stroke-width: 1"/><line x1="108" x2="128" y1="212" y2="212" class="net_4 width_1" style="stroke-width: 1"/><line x1="128" x2="128" y1="212" y2="114.5" class="net_4 width_1" style="stroke-width: 1"/><circle cx="128" cy="212" r="2" style="fill:#000" class="net_4 width_1"/><line x1="128" x2="214" y1="114.5" y2="114.5" class="net_4 width_1" style="stroke-width: 1"/><line x1="108" x2="128" y1="212" y2="212" class="net_4 width_1" style="stroke-width: 1"/><line x1="128" x2="128" y1="212" y2="233" class="net_4 width_1" style="stroke-width: 1"/><line x1="128" x2="148" y1="233" y2="233" class="net_4 width_1" style="stroke-width: 1"/><line x1="42" x2="62" y1="32" y2="32" class="net_2 width_1" style="stroke-width: 1"/><line x1="62" x2="62" y1="32" y2="257" class="net_2 width_1" style="stroke-width: 1"/><circle cx="62" cy="32" r="2" style="fill:#000" class="net_2 width_1"/><circle cx="62" cy="257" r="2" style="fill:#000" class="net_2 width_1"/><line x1="62" x2="344" y1="257" y2="257" class="net_2 width_1" style="stroke-width: 1"/><line x1="42" x2="62" y1="32" y2="32" class="net_2 width_1" style="stroke-width: 1"/><line x1="62" x2="62" y1="32" y2="324.5" class="net_2 width_1" style="stroke-width: 1"/><line x1="62" x2="409" y1="324.5" y2="324.5" class="net_2 width_1" style="stroke-width: 1"/><line x1="42" x2="77" y1="32" y2="32" class="net_2 width_1" style="stroke-width: 1"/><line x1="105" x2="319" y1="278" y2="278" class="net_19 width_1" style="stroke-width: 1"/><line x1="319" x2="319" y1="278" y2="272" class="net_19 width_1" style="stroke-width: 1"/><line x1="319" x2="344" y1="272" y2="272" class="net_19 width_1" style="stroke-width: 1"/><line x1="105" x2="118" y1="278" y2="278" class="net_19 width_1" style="stroke-width: 1"/><line x1="118" x2="118" y1="278" y2="47" class="net_19 width_1" style="stroke-width: 1"/><circle cx="118" cy="278" r="2" style="fill:#000" class="net_19 width_1"/><line x1="118" x2="148.66666666666666" y1="47" y2="47" class="net_19 width_1" style="stroke-width: 1"/><line x1="374" x2="409" y1="264.5" y2="264.5" class="net_20 width_1" style="stroke-width: 1"/><line x1="439" x2="474" y1="332" y2="332" class="net_21 width_1" style="stroke-width: 1"/><line x1="178.66666666666666" x2="214" y1="39.5" y2="39.5" class="net_22 width_1" style="stroke-width: 1"/><line x1="178.66666666666666" x2="199" y1="39.5" y2="39.5" class="net_22 width_1" style="stroke-width: 1"/><line x1="199" x2="199" y1="39.5" y2="99.5" class="net_22 width_1" style="stroke-width: 1"/><circle cx="199" cy="39.5" r="2" style="fill:#000" class="net_22 width_1"/><line x1="199" x2="214" y1="99.5" y2="99.5" class="net_22 width_1" style="stroke-width: 1"/><line x1="565" x2="600" y1="84.5" y2="84.5" class="net_5 width_1" style="stroke-width: 1"/></svg>